<svg width="73" height="25" viewBox="0 0 73 25" fill="none" xmlns="http://www.w3.org/2000/svg">
<path d="M71.7617 8.11133C72.1458 8.11133 72.3997 8.31966 72.5234 8.73633L72.5332 8.87305C72.5332 9.37435 72.3411 11.6172 71.957 15.6016L71.7031 18.9219C71.5273 19.3125 71.2799 19.5078 70.9609 19.5078H70.9512C70.4303 19.4492 70.1699 19.2083 70.1699 18.7852C70.5931 15.5755 70.8047 13.5508 70.8047 12.7109C70.9219 11.0443 70.9805 9.76497 70.9805 8.87305C70.9805 8.48893 71.2116 8.23503 71.6738 8.11133H71.7617Z" fill="#2F2F2F"/>
<path d="M60.6973 17.3008C62.5137 16.9492 64.0013 16.2981 65.1602 15.3476C66.319 14.3971 67.0091 14.4199 67.2305 15.416V15.4453C67.263 15.875 66.7031 16.4414 65.5508 17.1445C64.4049 17.8476 62.888 18.3782 61 18.7363C59.1185 19.0944 57.7025 19.2278 56.752 19.1367C55.8014 19.0455 55.3262 18.8926 55.3262 18.6777C55.1764 18.541 55.1016 18.3685 55.1016 18.1601C55.1927 17.6653 55.4434 17.4179 55.8535 17.4179C57.2728 17.6849 58.8874 17.6458 60.6973 17.3008Z" fill="#2F2F2F"/>
<path d="M55.4824 15.4746C55.4564 15.6634 55.4759 15.9987 55.541 16.4805C55.6061 16.9557 55.7656 17.2422 56.0195 17.3398C56.2799 17.4375 56.4557 17.571 56.5469 17.7402C56.638 17.9095 56.6673 18.1113 56.6348 18.3457C56.6022 18.5801 56.4883 18.7624 56.293 18.8926C56.0977 19.0228 55.8405 19.013 55.5215 18.8633C55.209 18.7135 54.8997 18.4043 54.5938 17.9355C54.2943 17.4603 54.1999 16.8613 54.3105 16.1387C54.4212 15.4095 54.6491 15.0677 54.9941 15.1133C55.3457 15.1589 55.5085 15.2793 55.4824 15.4746ZM54.2715 11.3242C54.0892 10.4128 54.1087 9.84961 54.3301 9.63477C54.5579 9.41341 54.7923 9.40039 55.0332 9.5957C55.2741 9.78451 55.4954 10.3216 55.6973 11.207C55.8991 12.0924 55.9349 13.2122 55.8047 14.5664C55.6745 15.9141 55.1016 16.972 54.0859 17.7402C53.0768 18.502 51.931 18.9219 50.6484 19C50.0951 18.9479 49.8184 18.7201 49.8184 18.3164V18.0918C49.8184 17.6426 50.0951 17.418 50.6484 17.418C51.4427 17.418 52.2467 17.0859 53.0605 16.4219C53.8809 15.7513 54.3333 14.9603 54.418 14.0488C54.5091 13.1374 54.4603 12.2292 54.2715 11.3242ZM63.373 0.738281C63.7376 0.738281 63.9883 0.943359 64.125 1.35352V1.55859C64.125 1.8125 63.3242 2.42448 61.7227 3.39453C60.1276 4.35807 58.8353 5.12305 57.8457 5.68945C56.8561 6.24935 56.0749 6.64323 55.502 6.87109C54.9355 7.09245 54.597 6.98177 54.4863 6.53906C54.3822 6.08984 54.6035 5.72852 55.1504 5.45508C55.7038 5.17513 56.6706 4.6901 58.0508 4C59.431 3.30339 61.0684 2.26172 62.9629 0.875L63.373 0.738281Z" fill="#2F2F2F"/>
<path d="M50.1016 14.1855C49.9323 15.4551 49.8802 16.2624 49.9453 16.6074C50.0104 16.9525 50.2643 17.2161 50.707 17.3984C51.026 17.431 51.2474 17.5645 51.3711 17.7988C51.4948 18.0267 51.5208 18.248 51.4492 18.4629C51.3841 18.6777 51.2441 18.8307 51.0293 18.9219C50.8145 19.013 50.4954 18.9837 50.0723 18.834C49.6491 18.6842 49.291 18.3783 48.998 17.916C48.7051 17.4538 48.5391 16.3079 48.5 14.4785C48.4674 12.6491 48.7669 11.8255 49.3984 12.0078C50.0365 12.1901 50.2708 12.916 50.1016 14.1855ZM49.3594 11.7734H49.5742C49.9974 11.7799 50.2383 12.1022 50.2969 12.7402L50.082 14.5469C49.9583 16.1224 49.6198 17.2715 49.0664 17.9941C48.0182 19.4915 46.7617 20.6439 45.2969 21.4512C42.5299 23.1309 39.6003 23.9707 36.5078 23.9707C33.5391 23.9707 30.8372 23.1634 28.4023 21.5488C27.2044 20.5658 26.6055 19.485 26.6055 18.3066C26.6055 16.5684 27.7025 14.8952 29.8965 13.2871C33.054 11.3079 35.8568 10.1556 38.3047 9.83008C38.7865 9.91471 39.0273 10.1426 39.0273 10.5137V10.7285C39.0273 11.1387 38.5326 11.4023 37.543 11.5195C37.1849 11.5195 36.0423 11.8906 34.1152 12.6328C32.4876 13.4206 31.0586 14.2962 29.8281 15.2598C28.6953 16.373 28.1289 17.3757 28.1289 18.2676C28.1289 19.2702 28.7051 20.2272 29.8574 21.1387C31.5111 22.1543 33.474 22.6621 35.7461 22.6621H36.127C39.9941 22.6621 43.4316 21.4186 46.4395 18.9316C47.4421 17.9486 48.041 17.0469 48.2363 16.2266C48.3275 15.7839 48.4349 15.2012 48.5586 14.4785L48.7441 12.4277V12.3984C48.8809 11.9818 49.0859 11.7734 49.3594 11.7734ZM41.5176 14.9766C41.9928 14.9766 42.3965 15.2891 42.7285 15.9141V16.1094C42.7285 16.4284 42.4421 16.6497 41.8691 16.7734H41.6738C41.179 16.7734 40.8796 16.3958 40.7754 15.6406C40.7754 15.263 41.0228 15.0417 41.5176 14.9766Z" fill="#2F2F2F"/>
<path d="M19.3203 11.3242C19.138 10.4128 19.1576 9.84961 19.3789 9.63477C19.6068 9.41341 19.8411 9.40039 20.082 9.5957C20.3229 9.78451 20.5443 10.3216 20.7461 11.207C20.9479 12.0924 20.9837 13.2122 20.8535 14.5664C20.7233 15.9141 20.1504 16.972 19.1348 17.7402C18.1257 18.502 16.9798 18.9219 15.6973 19C15.1439 18.9479 14.8672 18.7201 14.8672 18.3164V18.0918C14.8672 17.6426 15.1439 17.418 15.6973 17.418C16.4915 17.418 17.2956 17.0859 18.1094 16.4219C18.9297 15.7513 19.3822 14.9603 19.4668 14.0488C19.5579 13.1374 19.5091 12.2292 19.3203 11.3242ZM28.4219 0.738281C28.7865 0.738281 29.0371 0.943359 29.1738 1.35352V1.55859C29.1738 1.8125 28.373 2.42448 26.7715 3.39453C25.1764 4.35807 23.8841 5.12305 22.8945 5.68945C21.9049 6.24935 21.1237 6.64323 20.5508 6.87109C19.9844 7.09245 19.6458 6.98177 19.5352 6.53906C19.431 6.08984 19.6523 5.72852 20.1992 5.45508C20.7526 5.17513 21.7194 4.6901 23.0996 4C24.4798 3.30339 26.1172 2.26172 28.0117 0.875L28.4219 0.738281Z" fill="#2F2F2F"/>
<path d="M14.9941 16.041C14.9355 16.2298 14.9127 16.4902 14.9258 16.8223C14.9388 17.1478 15.1699 17.3398 15.6191 17.3984C16.0293 17.3659 16.2897 17.6035 16.4004 18.1113V18.2871C16.2962 18.7624 16.026 19 15.5898 19C14.5156 19.0065 13.9232 18.6094 13.8125 17.8086C13.526 18.2513 13.2298 18.5605 12.9238 18.7363C12.6178 18.9121 12.2402 19.0098 11.791 19.0293C11.2116 18.9382 10.9414 18.6517 10.9804 18.1699C11.013 17.6882 11.2734 17.4082 11.7617 17.3301C12.5299 17.3301 13.1159 16.7246 13.5195 15.5137C13.9297 14.3027 14.2487 13.5768 14.4765 13.3359C14.7044 13.0951 14.9583 13.0169 15.2383 13.1016C15.7786 13.375 15.8567 13.9023 15.4726 14.6836C15.2122 15.3932 15.0527 15.8457 14.9941 16.041ZM14.7695 8.01367C15.2448 8.01367 15.6484 8.32617 15.9804 8.95117V9.14648C15.9804 9.46549 15.694 9.68685 15.1211 9.81055H14.9258C14.431 9.81055 14.1315 9.43294 14.0273 8.67773C14.0273 8.30013 14.2747 8.07878 14.7695 8.01367Z" fill="#2F2F2F"/>
<path d="M11.2148 16.041C11.1562 16.2298 11.1334 16.4902 11.1465 16.8223C11.1595 17.1478 11.3906 17.3398 11.8398 17.3984C12.25 17.3659 12.5104 17.6035 12.6211 18.1113V18.2871C12.5169 18.7624 12.2467 19 11.8105 19C10.7363 19.0065 10.1439 18.6094 10.0332 17.8086C9.74672 18.2513 9.4505 18.5605 9.14451 18.7363C8.83852 18.9121 8.46092 19.0098 8.0117 19.0293C7.43227 18.9381 7.16209 18.6517 7.20115 18.1699C7.2337 17.6881 7.49412 17.4082 7.9824 17.3301C8.75063 17.3301 9.33657 16.7246 9.74021 15.5137C10.1504 14.3027 10.4694 13.5768 10.6972 13.3359C10.9251 13.095 11.179 13.0169 11.459 13.1016C11.9993 13.375 12.0775 13.9023 11.6933 14.6836C11.4329 15.3932 11.2734 15.8457 11.2148 16.041ZM11.7715 22.5644C11.9212 22.5644 12.0319 22.6556 12.1035 22.8379L11.9375 23.5019C11.8984 23.7298 10.6354 24.0293 8.14842 24.4004H8.08982C7.67967 24.4004 7.47459 24.2311 7.47459 23.8926C7.47459 23.4694 7.70571 23.1829 8.16795 23.0332C8.81248 22.8769 10.0136 22.7207 11.7715 22.5644Z" fill="#2F2F2F"/>
<path d="M7.49414 11.3535C7.78711 11.2819 8.02148 11.3828 8.19727 11.6563C8.37305 11.9232 8.24935 12.6035 7.82617 13.6973C7.40951 14.791 7.23698 15.6862 7.30859 16.3828C7.38672 17.0729 7.59505 17.4375 7.93359 17.4766C8.29818 17.4766 8.54232 17.6654 8.66602 18.043L8.68555 18.1797V18.2871C8.68555 18.5996 8.49674 18.8275 8.11914 18.9707L7.93359 18.9903C7.22396 18.9903 6.73242 18.7982 6.45898 18.4141C6.18555 18.0235 6.06836 17.4408 6.10742 16.666H6.08789C5.28711 17.8705 4.5026 18.7363 3.73438 19.2637C3.07682 19.7585 2.47786 20.1426 1.9375 20.416C1.50781 20.6374 1.23438 20.7481 1.11719 20.7481H0.951172C0.560547 20.7481 0.277344 20.5625 0.101562 20.1914L0.0820312 20.0156V19.9375C0.0820312 19.5729 0.358724 19.2962 0.912109 19.1074C1.79753 18.6843 2.48763 18.2741 2.98242 17.877C3.48372 17.4733 4.08268 16.8418 4.7793 15.9824C5.48242 15.1166 6.03581 14.1465 6.43945 13.0723C6.84961 11.9981 7.20117 11.4251 7.49414 11.3535Z" fill="#2F2F2F"/>
</svg>
