<svg width="61" height="19" viewBox="0 0 61 19" fill="none" xmlns="http://www.w3.org/2000/svg">
<path d="M58.8672 10.1797H58.9062C59.2396 10.1797 59.5156 10.3438 59.7344 10.6719C59.9583 11 60.0599 11.4766 60.0391 12.1016C60.0234 12.7214 59.8516 13.2943 59.5234 13.8203C59.1953 14.3464 58.6667 14.6172 57.9375 14.6328C57.2917 14.5807 56.8463 14.3151 56.6016 13.8359C56.1224 14.4089 55.6823 14.6641 55.2812 14.6016C54.9531 14.513 54.7838 14.3281 54.7734 14.0469C54.7578 13.7604 54.8333 13.5651 55 13.4609C55.1667 13.3516 55.3463 13.2865 55.5391 13.2656C55.737 13.2396 55.9531 13.0807 56.1875 12.7891C56.4219 12.4974 56.7865 11.9896 57.2812 11.2656C57.776 10.5417 58.3047 10.1797 58.8672 10.1797ZM57.8672 13.4609C58.1641 13.5391 58.4531 13.4453 58.7344 13.1797C59.0208 12.9089 59.1536 12.6042 59.1328 12.2656C59.1172 11.9219 59 11.7031 58.7812 11.6094C58.5625 11.5156 58.2786 11.7031 57.9297 12.1719C57.5807 12.6406 57.3802 12.9453 57.3281 13.0859C57.3906 13.2578 57.5703 13.3828 57.8672 13.4609Z" fill="#2F2F2F"/>
<path d="M46.625 13.3906C49.7031 13.5885 52.7344 13.5911 55.7188 13.3984V14.6094C52.724 14.8594 49.6927 14.8594 46.625 14.6094V13.3906ZM51.5938 4.48438C51.974 4.48438 52.2969 4.73438 52.5625 5.23438V5.39062C52.5625 5.64583 52.3333 5.82292 51.875 5.92188H51.7188C51.3229 5.92188 51.0833 5.61979 51 5.01562C51 4.71354 51.1979 4.53646 51.5938 4.48438ZM54.0078 8.125C54.1901 8.125 54.3255 8.19792 54.4141 8.34375L54.2109 8.875C54.1641 9.05729 52.6276 9.29688 49.6016 9.59375H49.5391C49.0391 9.59375 48.7891 9.45833 48.7891 9.1875C48.7891 8.84896 49.0703 8.61979 49.6328 8.5C50.4193 8.375 51.8776 8.25 54.0078 8.125Z" fill="#2F2F2F"/>
<path d="M47.7734 7.125H47.9844C48.25 7.125 48.4297 7.28646 48.5234 7.60938V7.72656C48.5234 7.9401 48.224 8.35417 47.625 8.96875C46.4583 10.349 45.875 11.3932 45.875 12.1016V12.2812C45.9531 12.9896 46.2526 13.3438 46.7734 13.3438C47.2161 13.3438 47.4375 13.5234 47.4375 13.8828V14.0625C47.4375 14.3854 47.2161 14.5677 46.7734 14.6094C45.7682 14.6094 45.0859 14.0547 44.7266 12.9453L44.6641 12.2812V12.1953C44.6641 10.8984 45.6198 9.23958 47.5312 7.21875L47.7734 7.125Z" fill="#2F2F2F"/>
<path d="M37.8359 10.1172C38.5651 10.1172 39.6849 10.2057 41.1953 10.3828C42.4662 10.5964 43.1016 11.1016 43.1016 11.8984C43.1016 12.5859 42.6563 13.1979 41.7656 13.7344C41.3958 14.0052 40.6276 14.2135 39.4609 14.3594C38.9453 14.4427 38.4037 14.4844 37.8359 14.4844C37.2682 14.4688 36.9844 14.4505 36.9844 14.4297C36.2188 14.5859 35.3932 14.6458 34.5078 14.6094C34.1276 14.5365 33.9193 14.3333 33.8828 14C33.8412 13.6615 34.0443 13.4531 34.4922 13.375C34.8151 13.3698 35.0521 13.3594 35.2031 13.3438C35.1511 13.2656 35.125 13.1875 35.125 13.1094C35.125 12.5417 35.4583 11.9297 36.125 11.2734C36.5313 10.9036 36.9375 10.6484 37.3438 10.5078C37.4583 10.2474 37.6224 10.1172 37.8359 10.1172ZM40.2109 11.5078C40.2474 11.5651 40.2656 11.6302 40.2656 11.7031C40.2656 12.0677 40.0339 12.5417 39.5703 13.125C40.1484 13.0573 40.6302 12.9401 41.0156 12.7734C41.599 12.4297 41.8906 12.1328 41.8906 11.8828C41.8906 11.7786 41.4974 11.6641 40.7109 11.5391L40.2109 11.4844V11.5078ZM36.3047 13.2188C36.3047 13.3385 36.4011 13.3984 36.5938 13.3984C37.1979 13.3984 37.875 13.0339 38.625 12.3047C38.9115 11.9818 39.0547 11.7734 39.0547 11.6797C38.9297 11.5651 38.7162 11.5078 38.4141 11.5078C37.6224 11.5078 36.9662 11.9349 36.4453 12.7891C36.3516 12.9661 36.3047 13.1094 36.3047 13.2188Z" fill="#2F2F2F"/>
<path d="M34.0703 8.4922C34.3047 8.43491 34.4922 8.51564 34.6328 8.73439C34.7734 8.94793 34.6745 9.4922 34.3359 10.3672C34.0026 11.2422 33.8646 11.9583 33.9219 12.5156C33.9844 13.0677 34.151 13.3594 34.4219 13.3906C34.7135 13.3906 34.9089 13.5417 35.0078 13.8438L35.0234 13.9531V14.0391C35.0234 14.2891 34.8724 14.4714 34.5703 14.586L34.4219 14.6016C33.8542 14.6016 33.4609 14.4479 33.2422 14.1406C33.0234 13.8281 32.9297 13.362 32.9609 12.7422H32.9453C32.3047 13.7057 31.6771 14.3985 31.0625 14.8203C30.5365 15.2162 30.0573 15.5235 29.625 15.7422C29.2812 15.9193 29.0625 16.0078 28.9688 16.0078H28.8359C28.5234 16.0078 28.2969 15.8594 28.1562 15.5625L28.1406 15.4219V15.3594C28.1406 15.0677 28.362 14.8464 28.8047 14.6953C29.513 14.3568 30.0651 14.0287 30.4609 13.711C30.862 13.388 31.3411 12.8828 31.8984 12.1953C32.4609 11.5026 32.9036 10.7266 33.2266 9.8672C33.5547 9.00783 33.8359 8.54949 34.0703 8.4922Z" fill="#2F2F2F"/>
<path d="M25.8984 10.0391C26.1068 10.0391 26.4766 10.2396 27.0078 10.6406C27.4193 11.0104 27.6641 11.2656 27.7422 11.4062C27.9714 11.7448 28.0859 12.1328 28.0859 12.5703C28.0859 13.1745 27.8516 13.638 27.3828 13.9609C26.7057 14.3724 25.7969 14.5781 24.6562 14.5781H24.3438C23.2708 14.5781 22.6068 14.5 22.3516 14.3438C22.2005 14.2865 22.0312 14.1667 21.8438 13.9844C21.6094 13.7135 21.4922 13.4141 21.4922 13.0859C21.4922 12.5964 21.7578 12.1432 22.2891 11.7266C22.6745 11.3984 23.0495 11.1354 23.4141 10.9375C23.7682 10.7292 24.1953 10.5391 24.6953 10.3672C25.1224 10.2214 25.3854 10.1484 25.4844 10.1484H25.5547L25.6875 10.0859C25.7604 10.0547 25.8307 10.0391 25.8984 10.0391ZM25.7969 11.1953C25.7448 11.237 25.5885 11.2891 25.3281 11.3516C24.8073 11.5182 24.3672 11.7005 24.0078 11.8984C23.6641 12.0859 23.2839 12.3594 22.8672 12.7188C22.7057 12.8698 22.625 12.9948 22.625 13.0938V13.1016C22.625 13.2005 22.7344 13.2865 22.9531 13.3594C23.0469 13.401 23.5208 13.4297 24.375 13.4453H24.5234C25.5807 13.4453 26.3464 13.2891 26.8203 12.9766C26.9089 12.8724 26.9531 12.7448 26.9531 12.5938V12.5391C26.9531 12.2839 26.8542 12.0599 26.6562 11.8672C26.4271 11.6328 26.2448 11.4714 26.1094 11.3828L25.7969 11.1953Z" fill="#2F2F2F"/>
<path d="M15.3906 8.46875C15.2448 7.73958 15.2604 7.28906 15.4375 7.11719C15.6198 6.9401 15.8073 6.92969 16 7.08594C16.1927 7.23698 16.3698 7.66667 16.5312 8.375C16.6927 9.08333 16.7214 9.97917 16.6172 11.0625C16.513 12.1406 16.0547 12.987 15.2422 13.6016C14.4349 14.2109 13.5182 14.5469 12.4922 14.6094C12.0495 14.5677 11.8281 14.3854 11.8281 14.0625V13.8828C11.8281 13.5234 12.0495 13.3438 12.4922 13.3438C13.1276 13.3438 13.7708 13.0781 14.4219 12.5469C15.0781 12.0104 15.4401 11.3776 15.5078 10.6484C15.5807 9.91927 15.5417 9.19271 15.3906 8.46875ZM22.6719 0C22.9635 0 23.1641 0.164062 23.2734 0.492188V0.65625C23.2734 0.859375 22.6328 1.34896 21.3516 2.125C20.0755 2.89583 19.0417 3.50781 18.25 3.96094C17.4583 4.40885 16.8333 4.72396 16.375 4.90625C15.9219 5.08333 15.651 4.99479 15.5625 4.64062C15.4792 4.28125 15.6562 3.99219 16.0938 3.77344C16.5365 3.54948 17.3099 3.16146 18.4141 2.60938C19.5182 2.05208 20.8281 1.21875 22.3438 0.109375L22.6719 0Z" fill="#2F2F2F"/>
<path d="M11.9297 12.2422C11.8828 12.3932 11.8646 12.6016 11.875 12.8672C11.8854 13.1276 12.0703 13.2812 12.4297 13.3281C12.7578 13.3021 12.9662 13.4922 13.0547 13.8984V14.0391C12.9714 14.4193 12.7552 14.6094 12.4063 14.6094C11.5469 14.6146 11.0729 14.2969 10.9844 13.6562C10.7552 14.0104 10.5183 14.2578 10.2735 14.3984C10.0287 14.5391 9.72659 14.6172 9.36722 14.6328C8.90368 14.5599 8.68753 14.3307 8.71878 13.9453C8.74482 13.5599 8.95316 13.3359 9.34378 13.2734C9.95836 13.2734 10.4271 12.7891 10.75 11.8203C11.0782 10.8516 11.3334 10.2708 11.5157 10.0781C11.6979 9.88542 11.9011 9.82292 12.125 9.89062C12.5573 10.1094 12.6198 10.5312 12.3125 11.1562C12.1042 11.724 11.9766 12.0859 11.9297 12.2422ZM11.75 5.82031C12.1302 5.82031 12.4532 6.07031 12.7188 6.57031V6.72656C12.7188 6.98177 12.4896 7.15885 12.0313 7.25781H11.875C11.4792 7.25781 11.2396 6.95573 11.1563 6.35156C11.1563 6.04948 11.3542 5.8724 11.75 5.82031Z" fill="#2F2F2F"/>
<path d="M8.90628 12.2422C8.85941 12.3932 8.84118 12.6015 8.85159 12.8672C8.86201 13.1276 9.04691 13.2812 9.40628 13.3281C9.73441 13.3021 9.94274 13.4922 10.0313 13.8984V14.039C9.94795 14.4192 9.7318 14.6094 9.38284 14.6094C8.52347 14.6146 8.04951 14.2969 7.96097 13.6562C7.7318 14.0104 7.49482 14.2578 7.25003 14.3984C7.00524 14.539 6.70316 14.6172 6.34378 14.6328C5.88024 14.5599 5.66409 14.3307 5.69534 13.9453C5.72139 13.5599 5.92972 13.3359 6.32034 13.2734C6.93493 13.2734 7.40368 12.789 7.72659 11.8203C8.05472 10.8515 8.30993 10.2708 8.49222 10.0781C8.67451 9.88539 8.87763 9.82289 9.10159 9.8906C9.53388 10.1094 9.59638 10.5312 9.28909 11.1562C9.08076 11.7239 8.95316 12.0859 8.90628 12.2422ZM9.35159 17.4609C9.47138 17.4609 9.55993 17.5338 9.61722 17.6797L9.48441 18.2109C9.45316 18.3932 8.44274 18.6328 6.45316 18.9297H6.40628C6.07816 18.9297 5.91409 18.7942 5.91409 18.5234C5.91409 18.1849 6.09899 17.9557 6.46878 17.8359C6.98441 17.7109 7.94534 17.5859 9.35159 17.4609Z" fill="#2F2F2F"/>
<path d="M5.92969 8.4922C6.16406 8.43491 6.35156 8.51564 6.49219 8.73439C6.63281 8.94793 6.53385 9.4922 6.19531 10.3672C5.86198 11.2422 5.72396 11.9583 5.78125 12.5156C5.84375 13.0677 6.01042 13.3594 6.28125 13.3906C6.57292 13.3906 6.76823 13.5417 6.86719 13.8438L6.88281 13.9531V14.0391C6.88281 14.2891 6.73177 14.4714 6.42969 14.586L6.28125 14.6016C5.71354 14.6016 5.32031 14.4479 5.10156 14.1406C4.88281 13.8281 4.78906 13.362 4.82031 12.7422H4.80469C4.16406 13.7057 3.53646 14.3985 2.92188 14.8203C2.39583 15.2162 1.91667 15.5235 1.48438 15.7422C1.14062 15.9193 0.921875 16.0078 0.828125 16.0078H0.695312C0.382812 16.0078 0.15625 15.8594 0.015625 15.5625L0 15.4219V15.3594C0 15.0677 0.221354 14.8464 0.664062 14.6953C1.3724 14.3568 1.92448 14.0287 2.32031 13.711C2.72135 13.388 3.20052 12.8828 3.75781 12.1953C4.32031 11.5026 4.76302 10.7266 5.08594 9.8672C5.41406 9.00783 5.69531 8.54949 5.92969 8.4922Z" fill="#2F2F2F"/>
</svg>
