<svg width="100" height="100" viewBox="0 0 100 100" fill="none" xmlns="http://www.w3.org/2000/svg">
<mask id="path-1-inside-1_3957_10621" fill="white">
<path d="M100 50C100 56.5661 98.7067 63.0679 96.194 69.1342C93.6812 75.2005 89.9983 80.7124 85.3553 85.3553C80.7124 89.9983 75.2004 93.6812 69.1342 96.194C63.0679 98.7067 56.5661 100 50 100C43.4339 100 36.9321 98.7067 30.8658 96.194C24.7995 93.6812 19.2876 89.9983 14.6447 85.3553C10.0017 80.7124 6.31876 75.2004 3.80602 69.1342C1.29329 63.0679 -5.74026e-07 56.5661 0 50L50 50H100Z"/>
</mask>
<path d="M100 50C100 56.5661 98.7067 63.0679 96.194 69.1342C93.6812 75.2005 89.9983 80.7124 85.3553 85.3553C80.7124 89.9983 75.2004 93.6812 69.1342 96.194C63.0679 98.7067 56.5661 100 50 100C43.4339 100 36.9321 98.7067 30.8658 96.194C24.7995 93.6812 19.2876 89.9983 14.6447 85.3553C10.0017 80.7124 6.31876 75.2004 3.80602 69.1342C1.29329 63.0679 -5.74026e-07 56.5661 0 50L50 50H100Z" fill="white" stroke="#183D3D" stroke-width="2" stroke-dasharray="6 6" mask="url(#path-1-inside-1_3957_10621)"/>
<rect width="60.2378" height="58.8695" transform="translate(19.8811 20.5652)" fill="white"/>
<path d="M28.1314 26.6747C28.6834 26.4743 29.3232 26.5516 29.8072 26.8856C30.767 27.5219 31.7256 28.1618 32.683 28.8016C33.3838 29.268 33.9545 29.9325 34.292 30.7059C34.5064 31.1829 34.6002 31.7009 34.7173 32.2083C36.3791 39.5149 38.0373 46.8227 39.7002 54.1305C39.9908 55.5157 41.3232 56.5809 42.7388 56.561C49.265 56.5634 55.7912 56.5657 62.3173 56.5598C63.7177 56.5622 65.0185 55.5016 65.3091 54.1329C66.6404 48.2794 67.9752 42.427 69.2982 36.5723C69.658 35.0337 68.6408 33.352 67.1209 32.9407C66.6252 32.786 66.1013 32.8141 65.5904 32.813C59.3771 32.813 53.1638 32.813 46.9506 32.813C46.1338 32.8505 45.3369 32.2868 45.0943 31.5075C44.6642 30.3262 45.7084 28.968 46.9564 29.063C53.4029 29.0641 59.8494 29.0606 66.2959 29.0641C68.1298 29.0665 69.9427 29.8481 71.2025 31.1794C72.4541 32.479 73.1689 34.2837 73.1162 36.0907C73.1068 36.9473 72.8677 37.7747 72.6849 38.6055C71.4451 44.0559 70.2099 49.5087 68.9666 54.9579C68.5517 56.8083 67.3365 58.4606 65.6865 59.3969C64.6306 60.0075 63.4107 60.3169 62.1931 60.3122C55.7443 60.3145 49.2955 60.3134 42.8455 60.3122C41.2881 60.3298 39.7295 59.8094 38.506 58.8415C37.2486 57.8653 36.3615 56.4356 36.0252 54.8805C34.347 47.4977 32.6677 40.1137 30.992 32.7298C30.9205 32.4497 30.9017 32.1028 30.624 31.9399C29.6666 31.2884 28.6963 30.6555 27.7341 30.0098C27.2537 29.7005 26.9349 29.1661 26.8916 28.5966C26.7978 27.7704 27.3439 26.9337 28.1314 26.6747Z" fill="#183D3D"/>
<path d="M57.3615 39.4669C57.7623 39.0544 58.3576 38.854 58.9259 38.9302C59.7498 39.0122 60.4587 39.7165 60.5466 40.5403C60.6275 41.1169 60.4212 41.7216 60.0017 42.127C57.058 45.0719 54.1154 48.0192 51.1669 50.9606C50.6126 51.5231 49.688 51.6544 48.9931 51.2864C48.7165 51.1481 48.5009 50.9231 48.2876 50.7063C47.1755 49.5895 46.0552 48.4809 44.9455 47.3618C44.4357 46.8356 44.3091 45.9966 44.6033 45.3321C44.8705 44.7262 45.4751 44.2727 46.1408 44.227C46.6986 44.1673 47.2693 44.3782 47.6607 44.7802C48.3931 45.5091 49.1244 46.2391 49.8544 46.9704C52.3599 44.4731 54.8595 41.9677 57.3615 39.4669Z" fill="#183D3D"/>
<path d="M44.5482 63.4622C45.6614 63.3591 46.8075 63.638 47.7415 64.2555C48.9626 65.0466 49.8029 66.3954 49.9657 67.8415C50.1333 69.1833 49.7232 70.5825 48.856 71.6208C47.8962 72.8032 46.3681 73.4887 44.847 73.4313C43.3564 73.3962 41.9091 72.6391 41.0173 71.4462C40.1302 70.2919 39.8068 68.7391 40.1337 67.3235C40.5732 65.2645 42.447 63.6216 44.5482 63.4622ZM44.7825 67.211C43.872 67.3329 43.4279 68.5587 44.049 69.236C44.6079 69.9766 45.9099 69.7423 46.1794 68.8551C46.5322 67.9997 45.679 67.0048 44.7825 67.211Z" fill="#183D3D"/>
<path d="M59.5494 63.4622C60.6615 63.3591 61.8064 63.638 62.7404 64.2544C63.992 65.0641 64.8428 66.4622 64.9775 67.9493C65.1158 69.2841 64.6811 70.6645 63.8057 71.6817C62.8436 72.8278 61.34 73.4887 59.8447 73.4313C58.3564 73.395 56.9103 72.6403 56.0197 71.4485C55.1127 70.272 54.7939 68.6794 55.1537 67.2403C55.6236 65.2177 57.4764 63.6204 59.5494 63.4622ZM59.7838 67.211C58.8756 67.3305 58.4279 68.5528 59.0455 69.2313C59.6021 69.9755 60.9088 69.7458 61.1795 68.8563C61.5322 68.0009 60.6814 67.0059 59.7838 67.211Z" fill="#183D3D"/>
<path d="M66.331 12.5789L66.331 12.5789L66.3318 12.5759C66.4941 11.9316 66.6914 11.2939 66.912 10.6608C67.8998 11.0651 68.8564 11.4694 69.7527 11.9891L69.753 11.9893C70.7107 12.5435 71.5937 13.2349 72.3909 14.0219L72.3927 14.0238C73.3905 14.9987 74.1365 16.2375 74.6522 17.5807C74.9959 18.5187 75.1556 19.5349 75.1789 20.5647L75.1789 20.5647L75.179 20.5691C75.2046 21.3832 75.117 22.197 75.025 23.0513C75.0159 23.1357 75.0067 23.2206 74.9977 23.3059C74.8983 24.239 74.8076 25.2182 74.9007 26.21L74.9006 26.21L74.9019 26.2213C74.9118 26.3063 74.9205 26.4036 74.9297 26.5082C74.9416 26.642 74.9546 26.7877 74.9726 26.9347C74.6919 26.843 74.4113 26.7541 74.1332 26.6659C74.0075 26.626 73.8824 26.5863 73.758 26.5466C73.0998 26.3366 72.4556 26.1243 71.8276 25.8765C71.0514 25.5673 70.3164 25.1943 69.6703 24.7072L69.6703 24.7071L69.666 24.704C68.9442 24.1718 68.2816 23.5931 67.7618 22.9046L67.7618 22.9046L67.7603 22.9026C67.2641 22.2521 66.8986 21.4972 66.5242 20.6951C66.2133 20.0238 66.0123 19.2956 65.9237 18.5482L65.9238 18.5482L65.9226 18.5396C65.6543 16.5687 65.8264 14.5319 66.331 12.5789ZM68.495 17.5078L68.4989 17.5194L68.5035 17.5308C68.9151 18.5628 69.38 19.5747 69.8386 20.5727C69.9927 20.9081 70.146 21.2419 70.2964 21.5744C70.4698 21.9717 70.9374 22.417 71.5516 22.2906C71.9102 22.2262 72.1679 21.9766 72.3018 21.712C72.4358 21.4472 72.4834 21.0937 72.329 20.7679C72.1006 20.25 71.875 19.7224 71.648 19.1918C71.2638 18.2934 70.8759 17.3864 70.4645 16.5028C70.3436 16.2258 70.0811 15.8683 69.6292 15.7857C69.0146 15.667 68.4075 16.1387 68.3443 16.7535C68.3242 16.9407 68.3591 17.1039 68.3956 17.2256C68.4157 17.2929 68.4535 17.395 68.4768 17.458C68.4853 17.4811 68.4919 17.499 68.495 17.5078Z" stroke="#A7D397"/>
<path d="M94.6326 15.4778L94.6314 15.4776C92.6965 15.1681 90.7017 15.2231 88.7757 15.6049L94.6326 15.4778ZM94.6326 15.4778C94.9035 15.5205 95.1704 15.5756 95.4507 15.6334C95.5182 15.6474 95.5865 15.6615 95.6558 15.6756C95.852 15.7156 96.0541 15.7553 96.2608 15.7892C96.0812 17.5052 95.7985 19.1923 95.2167 20.7848L95.2159 20.7871M94.6326 15.4778L95.2159 20.7871M95.2159 20.7871C94.9401 21.5532 94.5452 22.2814 94.1187 23.0285C93.4715 24.1582 92.7161 25.2207 91.8036 26.1348L91.8034 26.135M95.2159 20.7871L91.8034 26.135M91.8034 26.135C90.6438 27.2976 89.2827 28.2736 87.7886 28.9912L87.7875 28.9917M91.8034 26.135L87.7875 28.9917M87.7875 28.9917C86.3096 29.7059 84.7006 30.166 83.056 30.3861L83.056 30.3861M87.7875 28.9917L83.056 30.3861M83.056 30.3861L83.0503 30.3869M83.056 30.3861L83.0503 30.3869M83.0503 30.3869C82.2327 30.5059 81.3945 30.5083 80.5281 30.4939C80.4779 30.4919 80.4282 30.4901 80.3788 30.4882C79.9327 30.4716 79.5223 30.4563 79.1319 30.3913C79.1693 30.1044 79.2591 29.8032 79.3668 29.4641C79.5787 28.8054 79.9003 28.1842 80.3339 27.6504C80.3925 27.5793 80.4545 27.4979 80.5083 27.4273C80.5332 27.3947 80.5563 27.3643 80.5764 27.3384C80.6496 27.2444 80.7125 27.1703 80.778 27.1088L80.778 27.1088L80.7805 27.1066C80.902 26.991 81.0048 26.886 81.0997 26.7891C81.2802 26.6048 81.4321 26.4498 81.63 26.3068L81.6379 26.301L81.6457 26.295C82.4032 25.701 83.2666 25.2343 84.1881 24.9202C84.606 24.7796 85.0286 24.6529 85.4606 24.5235C85.5331 24.5017 85.606 24.4799 85.6791 24.4579C86.1828 24.3065 86.6969 24.1484 87.2049 23.9626C88.9823 23.3355 90.5966 22.2949 91.8947 20.9664L91.8947 20.9664L91.899 20.962C91.9195 20.9404 91.9404 20.9186 91.9616 20.8964C92.2861 20.5572 92.6836 20.1418 92.9241 19.623L93.5591 18.253L92.2319 18.9732C92.1254 19.031 91.9832 19.1096 91.8501 19.2169L91.8501 19.2168L91.8412 19.2243C91.23 19.7414 90.4873 20.1104 89.6907 20.4745M83.0503 30.3869L89.6907 20.4745M89.6907 20.4745C88.837 20.8491 87.9888 21.1865 87.1125 21.4054L87.1125 21.4054L87.1096 21.4061C86.6388 21.5267 86.1645 21.6273 85.6783 21.7304C85.5518 21.7573 85.4245 21.7843 85.2963 21.8118C84.6817 21.9439 84.0527 22.0876 83.4322 22.2828L83.4322 22.2828L83.4294 22.2837C81.7743 22.8152 80.2242 23.7152 79.0049 24.9528C78.455 25.5067 77.9779 26.1283 77.5875 26.7978C77.6373 26.3942 77.7 25.9962 77.7844 25.6047C78.0399 24.5943 78.3721 23.6135 78.8473 22.7076C79.2099 22.0408 79.5938 21.4026 80.0484 20.8229C80.6032 20.1182 81.1799 19.4565 81.846 18.8999C82.4933 18.3692 83.1329 17.8664 83.8245 17.451L89.6907 20.4745ZM83.8247 17.4509C85.3278 16.5489 87.0248 15.9525 88.7756 15.6049L83.8247 17.4509Z" stroke="#A7D397"/>
</svg>
