<svg width="102" height="100" viewBox="0 0 102 100" fill="none" xmlns="http://www.w3.org/2000/svg">
<mask id="path-1-inside-1_3957_10707" fill="white">
<path d="M100.097 50C100.097 56.5661 98.8036 63.0679 96.2909 69.1342C93.7782 75.2005 90.0952 80.7124 85.4523 85.3553C80.8093 89.9983 75.2974 93.6812 69.2311 96.194C63.1648 98.7067 56.663 100 50.0969 100C43.5308 100 37.029 98.7067 30.9627 96.194C24.8965 93.6812 19.3845 89.9983 14.7416 85.3553C10.0987 80.7124 6.41568 75.2004 3.90295 69.1342C1.39021 63.0679 0.0969233 56.5661 0.0969238 50L50.0969 50H100.097Z"/>
</mask>
<path d="M100.097 50C100.097 56.5661 98.8036 63.0679 96.2909 69.1342C93.7782 75.2005 90.0952 80.7124 85.4523 85.3553C80.8093 89.9983 75.2974 93.6812 69.2311 96.194C63.1648 98.7067 56.663 100 50.0969 100C43.5308 100 37.029 98.7067 30.9627 96.194C24.8965 93.6812 19.3845 89.9983 14.7416 85.3553C10.0987 80.7124 6.41568 75.2004 3.90295 69.1342C1.39021 63.0679 0.0969233 56.5661 0.0969238 50L50.0969 50H100.097Z" stroke="#183D3D" stroke-width="2" stroke-dasharray="6 6" mask="url(#path-1-inside-1_3957_10707)"/>
<rect width="60" height="60" transform="translate(20.0969 20)" fill="white"/>
<g clip-path="url(#clip0_3957_10707)">
<path d="M24.0415 30.3922C25.2497 29.9117 26.5704 30.0078 27.8407 30.0137C28.5696 29.9984 29.227 30.6371 29.2317 31.366C29.2704 32.0422 28.7442 32.702 28.0692 32.7922C27.1809 32.893 26.2739 32.7184 25.395 32.9129C24.1047 33.2082 23.0653 34.3695 22.9364 35.6902C22.8801 36.3676 22.9223 37.0473 22.9106 37.727C41.0348 37.727 59.159 37.727 77.2832 37.727C77.2739 37.0895 77.3067 36.4508 77.268 35.8133C77.193 34.5758 76.3235 33.4344 75.1563 33.0207C74.4543 32.7465 73.6891 32.832 72.9532 32.8203C59.4754 32.8168 45.9977 32.8273 32.5211 32.8145C31.5696 32.8566 30.8313 31.7762 31.2122 30.9055C31.4231 30.3313 32.0313 29.9703 32.6336 30.009C46.4243 30.0078 60.2149 30.0055 74.0043 30.0102C75.5946 29.9996 77.1766 30.6395 78.2993 31.768C79.3938 32.8391 80.0325 34.3379 80.0969 35.8649V64.1352C80.0325 65.6645 79.3903 67.1645 78.2934 68.2367C77.2352 69.2926 75.7739 69.9289 74.2797 69.9816C73.5989 69.9957 72.918 70.0027 72.2372 69.984C71.5235 69.9793 70.8942 69.3477 70.886 68.634C70.8461 67.9273 71.4227 67.2477 72.1329 67.1973C72.9204 67.134 73.7149 67.2336 74.5024 67.1434C75.7024 66.9852 76.7583 66.0887 77.1227 64.9367C77.3231 64.3531 77.2821 63.7285 77.2844 63.1215C77.2821 57.7496 77.2868 52.3777 77.2821 47.007C59.159 47.0082 41.036 47.0106 22.9141 47.0059C22.9059 52.6109 22.9129 58.216 22.9106 63.8211C22.8895 64.6367 23.1708 65.4582 23.7157 66.0688C24.3262 66.7754 25.2508 67.1902 26.1848 67.1785C39.9766 67.1832 53.7684 67.175 67.5602 67.1832C68.2153 67.1574 68.8422 67.6391 68.9711 68.2836C69.1399 68.968 68.6993 69.7273 68.0231 69.9231C67.6036 70.0344 67.1629 69.9828 66.7329 69.9922C53.5727 69.991 40.4114 69.9922 27.25 69.9922C26.1426 70.0121 25 70.0086 23.9594 69.575C21.7422 68.7371 20.1625 66.5047 20.0969 64.1363V35.8719C20.1579 33.4695 21.7809 31.2078 24.0415 30.3922ZM22.9118 40.5383C22.9094 41.757 22.9106 42.9758 22.9106 44.1957C41.0348 44.1957 59.159 44.1957 77.2832 44.1957C77.2821 42.9758 77.2856 41.757 77.2821 40.5383C59.159 40.5395 41.0348 40.5395 22.9118 40.5383Z" fill="#183D3D"/>
<path d="M26.5962 50.5379C26.806 50.4687 27.031 50.4711 27.2501 50.4664C33.8923 50.4723 40.5345 50.4641 47.1767 50.4711C47.6865 50.4535 48.1915 50.7336 48.4388 51.1824C48.6286 51.4941 48.6263 51.8715 48.6263 52.2254C48.6181 55.4644 48.631 58.7047 48.6204 61.9437C48.6556 62.7254 47.9431 63.418 47.1638 63.3734C40.4443 63.3734 33.7247 63.3793 27.004 63.3711C26.2564 63.3828 25.5954 62.7019 25.6224 61.9555C25.6142 58.6344 25.6212 55.3121 25.6189 51.991C25.572 51.3559 25.9822 50.7254 26.5962 50.5379ZM28.4302 53.2812C28.4314 55.7082 28.4302 58.1351 28.4314 60.5621C34.224 60.5633 40.0177 60.5621 45.8115 60.5621C45.8126 58.1351 45.8115 55.7082 45.8115 53.2812C40.0177 53.2812 34.224 53.2812 28.4302 53.2812Z" fill="#183D3D"/>
<path d="M60.2185 50.5355C60.3931 50.4793 60.5783 50.4746 60.7611 50.4687C64.6669 50.4687 68.574 50.4699 72.481 50.4676C72.8689 50.477 73.2779 50.4254 73.647 50.5766C74.2048 50.7957 74.5505 51.3992 74.5142 51.991C74.5119 55.3109 74.5189 58.632 74.5107 61.9531C74.54 62.7242 73.8415 63.4086 73.0728 63.3734C68.9314 63.3758 64.79 63.3781 60.6498 63.3723C59.8927 63.3945 59.2142 62.7137 59.2423 61.9566C59.233 58.6332 59.2412 55.3086 59.2376 51.984C59.1931 51.3488 59.608 50.723 60.2185 50.5355ZM62.0501 53.2812C62.0501 55.7082 62.0501 58.1352 62.0501 60.5621C63.1904 60.5621 64.3294 60.5633 65.4697 60.5621C65.4697 58.1352 65.4697 55.7082 65.4697 53.2812C64.3294 53.2812 63.1904 53.2812 62.0501 53.2812ZM68.281 53.2824C68.2833 55.7082 68.2822 58.1352 68.2822 60.5621C69.4224 60.5633 70.5615 60.5621 71.7017 60.5621C71.7017 58.1352 71.7017 55.7082 71.7017 53.2812C70.5615 53.2812 69.4212 53.2801 68.281 53.2824Z" fill="#183D3D"/>
</g>
<path d="M71.428 12.5789L71.428 12.5789L71.4287 12.576C71.591 11.9317 71.7883 11.2939 72.009 10.6608C72.9967 11.0652 73.9533 11.4694 74.8496 11.9891L74.8499 11.9893C75.8076 12.5435 76.6906 13.2349 77.4878 14.022L77.4897 14.0238C78.4874 14.9987 79.2334 16.2375 79.7491 17.5807C80.0928 18.5187 80.2525 19.5349 80.2758 20.5647L80.2758 20.5647L80.2759 20.5691C80.3016 21.3832 80.2139 22.197 80.1219 23.0513C80.1128 23.1357 80.1037 23.2206 80.0946 23.3059C79.9953 24.239 79.9045 25.2182 79.9976 26.21L79.9975 26.21L79.9988 26.2214C80.0087 26.3063 80.0174 26.4036 80.0267 26.5082C80.0385 26.642 80.0515 26.7877 80.0695 26.9347C79.7888 26.843 79.5082 26.7541 79.2301 26.6659C79.1045 26.626 78.9793 26.5863 78.8549 26.5466C78.1967 26.3366 77.5525 26.1243 76.9245 25.8765C76.1483 25.5673 75.4134 25.1943 74.7672 24.7072L74.7672 24.7072L74.7629 24.704C74.0411 24.1718 73.3785 23.5931 72.8587 22.9046L72.8587 22.9046L72.8572 22.9026C72.361 22.2521 71.9955 21.4972 71.6211 20.6951C71.3103 20.0239 71.1092 19.2956 71.0207 18.5482L71.0207 18.5482L71.0196 18.5396C70.7513 16.5687 70.9233 14.5319 71.428 12.5789ZM73.5919 17.5078L73.5959 17.5194L73.6004 17.5308C74.0121 18.5628 74.477 19.5747 74.9355 20.5728C75.0896 20.9081 75.243 21.242 75.3933 21.5745C75.5667 21.9718 76.0343 22.417 76.6485 22.2906C77.0071 22.2262 77.2648 21.9766 77.3987 21.712C77.5327 21.4472 77.5803 21.0937 77.4259 20.7679C77.1975 20.25 76.9719 19.7224 76.745 19.1918C76.3608 18.2935 75.9728 17.3864 75.5614 16.5028C75.4405 16.2258 75.178 15.8683 74.7261 15.7857C74.1115 15.667 73.5044 16.1387 73.4412 16.7535C73.4211 16.9407 73.456 17.1039 73.4925 17.2256C73.5126 17.2929 73.5504 17.395 73.5737 17.458C73.5822 17.4811 73.5888 17.499 73.5919 17.5078Z" stroke="#A7D397"/>
<path d="M99.7294 15.4778L99.7282 15.4776C97.7933 15.168 95.7985 15.2231 93.8725 15.6049L99.7294 15.4778ZM99.7294 15.4778C100 15.5204 100.267 15.5756 100.547 15.6334C100.615 15.6474 100.683 15.6615 100.753 15.6756C100.949 15.7156 101.151 15.7552 101.358 15.7892C101.178 17.5052 100.895 19.1923 100.313 20.7848L100.313 20.7871M99.7294 15.4778L100.313 20.7871M100.313 20.7871C100.037 21.5532 99.642 22.2814 99.2155 23.0285C98.5683 24.1582 97.8129 25.2206 96.9004 26.1348L96.9002 26.1349M100.313 20.7871L96.9002 26.1349M96.9002 26.1349C95.7406 27.2976 94.3795 28.2736 92.8854 28.9912L92.8843 28.9917M96.9002 26.1349L92.8843 28.9917M92.8843 28.9917C91.4064 29.7059 89.7974 30.166 88.1528 30.3861L88.1528 30.3861M92.8843 28.9917L88.1528 30.3861M88.1528 30.3861L88.1472 30.3869M88.1528 30.3861L88.1472 30.3869M88.1472 30.3869C87.3295 30.5059 86.4913 30.5083 85.6249 30.4938C85.5747 30.4919 85.525 30.4901 85.4757 30.4882C85.0295 30.4716 84.6191 30.4563 84.2287 30.3913C84.2661 30.1044 84.3559 29.8032 84.4636 29.4641C84.6755 28.8054 84.9971 28.1842 85.4307 27.6504C85.4893 27.5793 85.5513 27.4979 85.6051 27.4273C85.63 27.3946 85.6531 27.3643 85.6732 27.3384C85.7464 27.2444 85.8093 27.1703 85.8748 27.1088L85.8748 27.1088L85.8773 27.1065C85.9988 26.991 86.1016 26.886 86.1965 26.7891C86.377 26.6048 86.5289 26.4497 86.7268 26.3067L86.7347 26.301L86.7425 26.2949C87.5 25.701 88.3634 25.2342 89.2849 24.9202C89.7029 24.7795 90.1254 24.6529 90.5574 24.5235C90.6299 24.5017 90.7028 24.4799 90.7759 24.4579C91.2796 24.3065 91.7937 24.1484 92.3017 23.9626C94.0792 23.3355 95.6934 22.2948 96.9915 20.9664L96.9915 20.9664L96.9958 20.9619C97.0163 20.9404 97.0372 20.9186 97.0584 20.8964C97.3829 20.5572 97.7804 20.1418 98.0209 19.6229L98.6559 18.253L97.3287 18.9732C97.2222 19.031 97.08 19.1096 96.9469 19.2169L96.9469 19.2168L96.938 19.2243C96.3268 19.7414 95.5841 20.1104 94.7875 20.4745M88.1472 30.3869L94.7875 20.4745M94.7875 20.4745C93.9338 20.8491 93.0856 21.1865 92.2093 21.4054L92.2093 21.4054L92.2064 21.4061C91.7356 21.5267 91.2613 21.6273 90.7751 21.7304C90.6486 21.7572 90.5213 21.7842 90.3931 21.8118C89.7785 21.9439 89.1495 22.0876 88.529 22.2828L88.529 22.2828L88.5262 22.2837C86.8711 22.8152 85.321 23.7152 84.1017 24.9528C83.5518 25.5067 83.0747 26.1282 82.6843 26.7978C82.7341 26.3942 82.7968 25.9962 82.8812 25.6047C83.1367 24.5943 83.4689 23.6135 83.9441 22.7076C84.3067 22.0408 84.6906 21.4025 85.1452 20.8229C85.7 20.1181 86.2767 19.4565 86.9428 18.8999C87.5901 18.3692 88.2297 17.8664 88.9213 17.451L94.7875 20.4745ZM88.9215 17.4509C90.4246 16.5488 92.1216 15.9524 93.8724 15.6049L88.9215 17.4509Z" stroke="#A7D397"/>
<defs>
<clipPath id="clip0_3957_10707">
<rect width="60" height="60" fill="white" transform="translate(20.0969 20)"/>
</clipPath>
</defs>
</svg>
