<svg width="100" height="100" viewBox="0 0 100 100" fill="none" xmlns="http://www.w3.org/2000/svg">
<mask id="path-1-inside-1_3957_10737" fill="white">
<path d="M100 50C100 56.5661 98.7067 63.0679 96.194 69.1342C93.6812 75.2005 89.9983 80.7124 85.3553 85.3553C80.7124 89.9983 75.2004 93.6812 69.1342 96.194C63.0679 98.7067 56.5661 100 50 100C43.4339 100 36.9321 98.7067 30.8658 96.194C24.7995 93.6812 19.2876 89.9983 14.6447 85.3553C10.0017 80.7124 6.31876 75.2004 3.80602 69.1342C1.29329 63.0679 -5.74026e-07 56.5661 0 50L50 50H100Z"/>
</mask>
<path d="M100 50C100 56.5661 98.7067 63.0679 96.194 69.1342C93.6812 75.2005 89.9983 80.7124 85.3553 85.3553C80.7124 89.9983 75.2004 93.6812 69.1342 96.194C63.0679 98.7067 56.5661 100 50 100C43.4339 100 36.9321 98.7067 30.8658 96.194C24.7995 93.6812 19.2876 89.9983 14.6447 85.3553C10.0017 80.7124 6.31876 75.2004 3.80602 69.1342C1.29329 63.0679 -5.74026e-07 56.5661 0 50L50 50H100Z" fill="white" stroke="#183D3D" stroke-width="2" stroke-dasharray="6 6" mask="url(#path-1-inside-1_3957_10737)"/>
<rect width="58" height="58" transform="translate(21.5 21)" fill="white"/>
<g clip-path="url(#clip0_3957_10737)">
<path d="M49.9136 23H50.7795C54.8949 23.0548 59.0018 24.0273 62.6711 25.9004C68.4508 28.8029 73.1136 33.8601 75.5225 39.8634C76.7997 42.9842 77.4452 46.3487 77.5 49.7163V50.174C77.4652 54.667 76.3124 59.1515 74.1208 63.0771C72.1664 66.6155 69.3989 69.6973 66.1009 72.0324C61.744 75.1501 56.4358 76.8734 51.0854 77H50.2216C45.2266 76.943 40.2495 75.4939 36.0413 72.796C30.1836 69.1025 25.8446 63.0729 24.253 56.3281C23.7921 54.4476 23.5675 52.5154 23.5 50.5822V49.7142C23.5432 47.3327 23.8607 44.9533 24.5178 42.6615C25.5978 38.7929 27.5806 35.1848 30.231 32.1695C32.467 29.6329 35.1786 27.5141 38.1876 25.9721C41.802 24.0979 45.8488 23.1097 49.9136 23ZM48.2293 27.5162C44.3659 27.9001 40.5965 29.2933 37.4472 31.5693C35.5424 32.9352 33.8233 34.5741 32.4374 36.4673C28.8926 41.07 27.3507 47.1133 28.0953 52.8614C28.5604 56.5391 29.9357 60.1123 32.12 63.1129C34.1049 65.8868 36.7152 68.2092 39.7053 69.8513C42.2207 71.2245 45.0009 72.1084 47.8475 72.4395C52.8351 73.0407 58.0125 71.9175 62.2904 69.2807C64.2373 68.052 66.0334 66.567 67.5353 64.8173C68.1607 64.1666 68.648 63.403 69.1964 62.6889C70.4009 60.9318 71.3438 58.9954 71.9998 56.9694C73.7717 51.5525 73.3878 45.4648 70.9282 40.3211C68.5784 35.3915 64.3976 31.3542 59.371 29.21C55.88 27.7113 52.0061 27.1365 48.2293 27.5162Z" fill="#183D3D"/>
<path d="M49.7079 31.1844C50.886 30.9481 52.1928 31.0979 53.1873 31.8077C54.5015 32.7379 55.0193 34.5647 54.5257 36.075C54.1988 37.1349 53.336 37.9934 52.2961 38.3626C51.4545 38.6632 50.5274 38.7149 49.652 38.544C48.6237 38.3299 47.6798 37.6855 47.1735 36.7574C46.3656 35.3251 46.5787 33.3528 47.7747 32.1969C48.2999 31.6759 48.9897 31.3436 49.7079 31.1844Z" fill="#183D3D"/>
<path d="M44.0959 41.7007C47.5679 41.6775 51.0389 41.6543 54.5099 41.6321C54.5489 48.36 54.5858 55.0878 54.6238 61.8146C55.4422 61.8062 56.2628 61.8199 57.0823 61.7914C57.1213 63.1994 57.1034 64.6095 57.1213 66.0175C52.7644 66.0407 48.4075 66.065 44.0505 66.0861C44.0421 64.6802 44.0347 63.2754 44.0273 61.8695C45.0261 61.8631 46.026 61.8642 47.0258 61.8579C46.9995 56.6055 46.971 51.3532 46.9436 46.1008C46.0059 46.1114 45.0673 46.0955 44.1307 46.1251C44.0896 44.6517 44.1117 43.1751 44.0959 41.7007Z" fill="#183D3D"/>
</g>
<path d="M66.331 12.5789L66.331 12.5789L66.3318 12.576C66.4941 11.9317 66.6914 11.2939 66.912 10.6608C67.8998 11.0652 68.8564 11.4694 69.7527 11.9891L69.753 11.9893C70.7107 12.5435 71.5937 13.2349 72.3909 14.022L72.3927 14.0238C73.3905 14.9987 74.1365 16.2375 74.6522 17.5807C74.9959 18.5187 75.1556 19.5349 75.1789 20.5647L75.1789 20.5647L75.179 20.5691C75.2046 21.3832 75.117 22.197 75.025 23.0513C75.0159 23.1357 75.0067 23.2206 74.9977 23.3059C74.8983 24.239 74.8076 25.2182 74.9007 26.21L74.9006 26.21L74.9019 26.2214C74.9118 26.3063 74.9205 26.4036 74.9297 26.5082C74.9416 26.642 74.9546 26.7877 74.9726 26.9347C74.6919 26.843 74.4113 26.7541 74.1332 26.6659C74.0075 26.626 73.8824 26.5863 73.758 26.5466C73.0998 26.3366 72.4556 26.1243 71.8276 25.8765C71.0514 25.5673 70.3164 25.1943 69.6703 24.7072L69.6703 24.7072L69.666 24.704C68.9442 24.1718 68.2816 23.5931 67.7618 22.9046L67.7618 22.9046L67.7603 22.9026C67.2641 22.2521 66.8986 21.4972 66.5242 20.6951C66.2133 20.0239 66.0123 19.2956 65.9237 18.5482L65.9238 18.5482L65.9226 18.5396C65.6543 16.5687 65.8264 14.5319 66.331 12.5789ZM68.495 17.5078L68.4989 17.5194L68.5035 17.5308C68.9151 18.5628 69.38 19.5747 69.8386 20.5728C69.9927 20.9081 70.146 21.242 70.2964 21.5745C70.4698 21.9718 70.9374 22.417 71.5516 22.2906C71.9102 22.2262 72.1679 21.9766 72.3018 21.712C72.4358 21.4472 72.4834 21.0937 72.329 20.7679C72.1006 20.25 71.875 19.7224 71.648 19.1918C71.2638 18.2935 70.8759 17.3864 70.4645 16.5028C70.3436 16.2258 70.0811 15.8683 69.6292 15.7857C69.0146 15.667 68.4075 16.1387 68.3443 16.7535C68.3242 16.9407 68.3591 17.1039 68.3956 17.2256C68.4157 17.2929 68.4535 17.395 68.4768 17.458C68.4853 17.4811 68.4919 17.499 68.495 17.5078Z" stroke="#A7D397"/>
<path d="M94.6326 15.4778L94.6314 15.4776C92.6965 15.168 90.7017 15.2231 88.7757 15.6049L94.6326 15.4778ZM94.6326 15.4778C94.9035 15.5204 95.1704 15.5756 95.4507 15.6334C95.5182 15.6474 95.5865 15.6615 95.6558 15.6756C95.852 15.7156 96.0541 15.7552 96.2608 15.7892C96.0812 17.5052 95.7985 19.1923 95.2167 20.7848L95.2159 20.7871M94.6326 15.4778L95.2159 20.7871M95.2159 20.7871C94.9401 21.5532 94.5452 22.2814 94.1187 23.0285C93.4715 24.1582 92.7161 25.2206 91.8036 26.1348L91.8034 26.1349M95.2159 20.7871L91.8034 26.1349M91.8034 26.1349C90.6438 27.2976 89.2827 28.2736 87.7886 28.9912L87.7875 28.9917M91.8034 26.1349L87.7875 28.9917M87.7875 28.9917C86.3096 29.7059 84.7006 30.166 83.056 30.3861L83.056 30.3861M87.7875 28.9917L83.056 30.3861M83.056 30.3861L83.0503 30.3869M83.056 30.3861L83.0503 30.3869M83.0503 30.3869C82.2327 30.5059 81.3945 30.5083 80.5281 30.4938C80.4779 30.4919 80.4282 30.4901 80.3788 30.4882C79.9327 30.4716 79.5223 30.4563 79.1319 30.3913C79.1693 30.1044 79.2591 29.8032 79.3668 29.4641C79.5787 28.8054 79.9003 28.1842 80.3339 27.6504C80.3925 27.5793 80.4545 27.4979 80.5083 27.4273C80.5332 27.3946 80.5563 27.3643 80.5764 27.3384C80.6496 27.2444 80.7125 27.1703 80.778 27.1088L80.778 27.1088L80.7805 27.1065C80.902 26.991 81.0048 26.886 81.0997 26.7891C81.2802 26.6048 81.4321 26.4497 81.63 26.3067L81.6379 26.301L81.6457 26.2949C82.4032 25.701 83.2666 25.2342 84.1881 24.9202C84.606 24.7795 85.0286 24.6529 85.4606 24.5235C85.5331 24.5017 85.606 24.4799 85.6791 24.4579C86.1828 24.3065 86.6969 24.1484 87.2049 23.9626C88.9823 23.3355 90.5966 22.2948 91.8947 20.9664L91.8947 20.9664L91.899 20.9619C91.9195 20.9404 91.9404 20.9186 91.9616 20.8964C92.2861 20.5572 92.6836 20.1418 92.9241 19.6229L93.5591 18.253L92.2319 18.9732C92.1254 19.031 91.9832 19.1096 91.8501 19.2169L91.8501 19.2168L91.8412 19.2243C91.23 19.7414 90.4873 20.1104 89.6907 20.4745M83.0503 30.3869L89.6907 20.4745M89.6907 20.4745C88.837 20.8491 87.9888 21.1865 87.1125 21.4054L87.1125 21.4054L87.1096 21.4061C86.6388 21.5267 86.1645 21.6273 85.6783 21.7304C85.5518 21.7572 85.4245 21.7842 85.2963 21.8118C84.6817 21.9439 84.0527 22.0876 83.4322 22.2828L83.4322 22.2828L83.4294 22.2837C81.7743 22.8152 80.2242 23.7152 79.0049 24.9528C78.455 25.5067 77.9779 26.1282 77.5875 26.7978C77.6373 26.3942 77.7 25.9962 77.7844 25.6047C78.0399 24.5943 78.3721 23.6135 78.8473 22.7076C79.2099 22.0408 79.5938 21.4025 80.0484 20.8229C80.6032 20.1181 81.1799 19.4565 81.846 18.8999C82.4933 18.3692 83.1329 17.8664 83.8245 17.451L89.6907 20.4745ZM83.8247 17.4509C85.3278 16.5488 87.0248 15.9524 88.7756 15.6049L83.8247 17.4509Z" stroke="#A7D397"/>
<defs>
<clipPath id="clip0_3957_10737">
<rect width="54" height="54" fill="white" transform="translate(23.5 23)"/>
</clipPath>
</defs>
</svg>
