<svg width="100" height="100" viewBox="0 0 100 100" fill="none" xmlns="http://www.w3.org/2000/svg">
<mask id="path-1-inside-1_3957_10721" fill="white">
<path d="M100 50C100 56.5661 98.7067 63.0679 96.194 69.1342C93.6812 75.2005 89.9983 80.7124 85.3553 85.3553C80.7124 89.9983 75.2004 93.6812 69.1342 96.194C63.0679 98.7067 56.5661 100 50 100C43.4339 100 36.9321 98.7067 30.8658 96.194C24.7995 93.6812 19.2876 89.9983 14.6447 85.3553C10.0017 80.7124 6.31876 75.2004 3.80602 69.1342C1.29329 63.0679 -5.74026e-07 56.5661 0 50L50 50H100Z"/>
</mask>
<path d="M100 50C100 56.5661 98.7067 63.0679 96.194 69.1342C93.6812 75.2005 89.9983 80.7124 85.3553 85.3553C80.7124 89.9983 75.2004 93.6812 69.1342 96.194C63.0679 98.7067 56.5661 100 50 100C43.4339 100 36.9321 98.7067 30.8658 96.194C24.7995 93.6812 19.2876 89.9983 14.6447 85.3553C10.0017 80.7124 6.31876 75.2004 3.80602 69.1342C1.29329 63.0679 -5.74026e-07 56.5661 0 50L50 50H100Z" fill="white" stroke="#183D3D" stroke-width="2" stroke-dasharray="6 6" mask="url(#path-1-inside-1_3957_10721)"/>
<g clip-path="url(#clip0_3957_10721)">
<rect width="54" height="54" transform="translate(23 23)" fill="white"/>
<path d="M49.3482 23H49.46C50.0432 23.0548 50.636 23.1382 51.157 23.425C59.0693 27.4329 66.9815 31.4407 74.8917 35.4516C76.1183 36.0317 76.9568 37.3153 77 38.6716V61.3854C76.9314 62.6942 76.1362 63.9293 74.9592 64.5114C67.0743 68.5161 59.1832 72.506 51.2973 76.5075C50.7362 76.7891 50.1255 76.9568 49.499 77H49.2375C48.6732 76.9525 48.1184 76.7996 47.6217 76.5264C40.2252 72.602 32.8307 68.6764 25.4342 64.753C24.9164 64.4861 24.3975 64.194 24.002 63.7584C23.3997 63.1287 23.0643 62.2787 23 61.4149V38.6073C23.0612 37.2689 23.8859 36.017 25.0893 35.4316C32.6187 31.4312 40.1503 27.436 47.6829 23.4419C48.1912 23.1477 48.7755 23.0696 49.3482 23ZM49.1246 26.2569C46.5786 27.6027 44.0357 28.9569 41.4918 30.3069C48.7629 34.1575 56.0381 38.0029 63.3102 41.8515C66.2063 40.4139 69.0993 38.9701 71.9945 37.5294C64.5927 33.7736 57.1866 30.0263 49.7838 26.2738C49.5802 26.1577 49.3313 26.1366 49.1246 26.2569ZM27.8832 37.5283C35.0667 41.2735 42.2459 45.025 49.4326 48.7629C52.8941 47.0353 56.3598 45.3161 59.8223 43.5907C52.5871 39.7569 45.3478 35.9284 38.1095 32.1009C34.7007 33.9107 31.2909 35.7174 27.8832 37.5283ZM26.1651 40.202C26.163 47.1608 26.1651 54.1196 26.1641 61.0784C26.1398 61.3621 26.278 61.6364 26.5395 61.7587C33.6355 65.5271 40.7325 69.2913 47.8305 73.0565C47.8305 65.8699 47.8337 58.6832 47.8295 51.4977C40.607 47.7345 33.3866 43.9661 26.1651 40.202ZM64.5294 44.7877C64.5357 47.0543 64.5294 49.3208 64.5325 51.5863C64.5431 51.9596 64.4798 52.3488 64.2541 52.6568C63.8934 53.2073 63.1636 53.4741 62.5318 53.2896C61.8705 53.1177 61.3695 52.4732 61.3748 51.7887C61.3643 49.9778 61.3737 48.167 61.3706 46.3561C57.9102 48.0752 54.4518 49.7975 50.9925 51.5198C50.9914 58.717 50.9925 65.9142 50.9925 73.1114C58.4544 69.3356 65.9121 65.5514 73.3729 61.7745C73.6535 61.6596 73.8623 61.397 73.8349 61.0837C73.8359 54.1048 73.8359 47.1249 73.8349 40.1461C70.733 41.6943 67.6249 43.2289 64.5294 44.7877Z" fill="#183D3D"/>
</g>
<path d="M66.331 12.5789L66.331 12.5789L66.3318 12.576C66.4941 11.9317 66.6914 11.2939 66.912 10.6608C67.8998 11.0652 68.8564 11.4694 69.7527 11.9891L69.753 11.9893C70.7107 12.5435 71.5937 13.2349 72.3909 14.022L72.3927 14.0238C73.3905 14.9987 74.1365 16.2375 74.6522 17.5807C74.9959 18.5187 75.1556 19.5349 75.1789 20.5647L75.1789 20.5647L75.179 20.5691C75.2046 21.3832 75.117 22.197 75.025 23.0513C75.0159 23.1357 75.0067 23.2206 74.9977 23.3059C74.8983 24.239 74.8076 25.2182 74.9007 26.21L74.9006 26.21L74.9019 26.2214C74.9118 26.3063 74.9205 26.4036 74.9297 26.5082C74.9416 26.642 74.9546 26.7877 74.9726 26.9347C74.6919 26.843 74.4113 26.7541 74.1332 26.6659C74.0075 26.626 73.8824 26.5863 73.758 26.5466C73.0998 26.3366 72.4556 26.1243 71.8276 25.8765C71.0514 25.5673 70.3164 25.1943 69.6703 24.7072L69.6703 24.7072L69.666 24.704C68.9442 24.1718 68.2816 23.5931 67.7618 22.9046L67.7618 22.9046L67.7603 22.9026C67.2641 22.2521 66.8986 21.4972 66.5242 20.6951C66.2133 20.0239 66.0123 19.2956 65.9237 18.5482L65.9238 18.5482L65.9226 18.5396C65.6543 16.5687 65.8264 14.5319 66.331 12.5789ZM68.495 17.5078L68.4989 17.5194L68.5035 17.5308C68.9151 18.5628 69.38 19.5747 69.8386 20.5728C69.9927 20.9081 70.146 21.242 70.2964 21.5745C70.4698 21.9718 70.9374 22.417 71.5516 22.2906C71.9102 22.2262 72.1679 21.9766 72.3018 21.712C72.4358 21.4472 72.4834 21.0937 72.329 20.7679C72.1006 20.25 71.875 19.7224 71.648 19.1918C71.2638 18.2935 70.8759 17.3864 70.4645 16.5028C70.3436 16.2258 70.0811 15.8683 69.6292 15.7857C69.0146 15.667 68.4075 16.1387 68.3443 16.7535C68.3242 16.9407 68.3591 17.1039 68.3956 17.2256C68.4157 17.2929 68.4535 17.395 68.4768 17.458C68.4853 17.4811 68.4919 17.499 68.495 17.5078Z" stroke="#A7D397"/>
<path d="M94.6325 15.4778L94.6313 15.4776C92.6964 15.168 90.7015 15.2231 88.7756 15.6049L94.6325 15.4778ZM94.6325 15.4778C94.9034 15.5204 95.1703 15.5756 95.4506 15.6334C95.5181 15.6474 95.5864 15.6615 95.6557 15.6756C95.8518 15.7156 96.054 15.7552 96.2607 15.7892C96.081 17.5052 95.7983 19.1923 95.2165 20.7848L95.2157 20.7871M94.6325 15.4778L95.2157 20.7871M95.2157 20.7871C94.94 21.5532 94.5451 22.2814 94.1186 23.0285C93.4714 24.1582 92.716 25.2206 91.8034 26.1348L91.8033 26.1349M95.2157 20.7871L91.8033 26.1349M91.8033 26.1349C90.6436 27.2976 89.2826 28.2736 87.7885 28.9912L87.7874 28.9917M91.8033 26.1349L87.7874 28.9917M87.7874 28.9917C86.3095 29.7059 84.7005 30.166 83.0559 30.3861L83.0559 30.3861M87.7874 28.9917L83.0559 30.3861M83.0559 30.3861L83.0502 30.3869M83.0559 30.3861L83.0502 30.3869M83.0502 30.3869C82.2325 30.5059 81.3944 30.5083 80.528 30.4938C80.4778 30.4919 80.428 30.4901 80.3787 30.4882C79.9326 30.4716 79.5222 30.4563 79.1318 30.3913C79.1692 30.1044 79.259 29.8032 79.3667 29.4641C79.5786 28.8054 79.9002 28.1842 80.3338 27.6504C80.3924 27.5793 80.4544 27.4979 80.5082 27.4273C80.533 27.3946 80.5561 27.3643 80.5763 27.3384C80.6495 27.2444 80.7124 27.1703 80.7779 27.1088L80.7779 27.1088L80.7803 27.1065C80.9019 26.991 81.0047 26.886 81.0996 26.7891C81.2801 26.6048 81.432 26.4497 81.6299 26.3067L81.6378 26.301L81.6455 26.2949C82.403 25.701 83.2665 25.2342 84.1879 24.9202C84.6059 24.7795 85.0285 24.6529 85.4604 24.5235C85.533 24.5017 85.6058 24.4799 85.6789 24.4579C86.1826 24.3065 86.6968 24.1484 87.2048 23.9626C88.9822 23.3355 90.5965 22.2948 91.8946 20.9664L91.8946 20.9664L91.8988 20.9619C91.9194 20.9404 91.9402 20.9186 91.9615 20.8964C92.286 20.5572 92.6835 20.1418 92.9239 19.6229L93.559 18.253L92.2318 18.9732C92.1253 19.031 91.9831 19.1096 91.85 19.2169L91.8499 19.2168L91.8411 19.2243C91.2298 19.7414 90.4872 20.1104 89.6906 20.4745M83.0502 30.3869L89.6906 20.4745M89.6906 20.4745C88.8369 20.8491 87.9887 21.1865 87.1124 21.4054L87.1124 21.4054L87.1095 21.4061C86.6387 21.5267 86.1644 21.6273 85.6782 21.7304C85.5517 21.7572 85.4244 21.7842 85.2962 21.8118C84.6815 21.9439 84.0525 22.0876 83.4321 22.2828L83.4321 22.2828L83.4293 22.2837C81.7742 22.8152 80.2241 23.7152 79.0048 24.9528C78.4549 25.5067 77.9777 26.1282 77.5874 26.7978C77.6372 26.3942 77.6999 25.9962 77.7842 25.6047C78.0398 24.5943 78.372 23.6135 78.8472 22.7076C79.2098 22.0408 79.5936 21.4025 80.0483 20.8229C80.6031 20.1181 81.1797 19.4565 81.8458 18.8999C82.4932 18.3692 83.1328 17.8664 83.8244 17.451L89.6906 20.4745ZM83.8246 17.4509C85.3277 16.5488 87.0247 15.9524 88.7755 15.6049L83.8246 17.4509Z" stroke="#A7D397"/>
<defs>
<clipPath id="clip0_3957_10721">
<rect width="54" height="54" fill="white" transform="translate(23 23)"/>
</clipPath>
</defs>
</svg>
