<svg width="100" height="100" viewBox="0 0 100 100" fill="none" xmlns="http://www.w3.org/2000/svg">
<mask id="path-1-inside-1_3957_10573" fill="white">
<path d="M100 50C100 56.5661 98.7067 63.0679 96.194 69.1342C93.6812 75.2005 89.9983 80.7124 85.3553 85.3553C80.7124 89.9983 75.2004 93.6812 69.1342 96.194C63.0679 98.7067 56.5661 100 50 100C43.4339 100 36.9321 98.7067 30.8658 96.194C24.7995 93.6812 19.2876 89.9983 14.6447 85.3553C10.0017 80.7124 6.31876 75.2004 3.80602 69.1342C1.29329 63.0679 -5.74026e-07 56.5661 0 50L50 50H100Z"/>
</mask>
<path d="M100 50C100 56.5661 98.7067 63.0679 96.194 69.1342C93.6812 75.2005 89.9983 80.7124 85.3553 85.3553C80.7124 89.9983 75.2004 93.6812 69.1342 96.194C63.0679 98.7067 56.5661 100 50 100C43.4339 100 36.9321 98.7067 30.8658 96.194C24.7995 93.6812 19.2876 89.9983 14.6447 85.3553C10.0017 80.7124 6.31876 75.2004 3.80602 69.1342C1.29329 63.0679 -5.74026e-07 56.5661 0 50L50 50H100Z" stroke="#183D3D" stroke-width="2" stroke-dasharray="6 6" mask="url(#path-1-inside-1_3957_10573)"/>
<g clip-path="url(#clip0_3957_10573)">
<rect width="50" height="50" transform="translate(25 25)" fill="white"/>
<path d="M49.8419 25H50.1544C51.1017 25.0703 51.9269 25.8975 51.9464 26.8555C51.964 28.124 51.9454 29.3936 51.9552 30.6621C51.962 31.0537 51.9093 31.457 51.7091 31.8008C51.3478 32.4756 50.5607 32.8906 49.7989 32.8008C49.0958 32.7363 48.4552 32.2529 48.1935 31.5986C48.0372 31.2441 48.0431 30.8486 48.045 30.4688C48.0538 29.2617 48.0362 28.0547 48.0538 26.8477C48.0773 25.8936 48.8985 25.0723 49.8419 25Z" fill="#183D3D"/>
<path d="M35.5899 30.4238C36.2676 30.2002 37.0606 30.3867 37.5626 30.8955C38.4932 31.8232 39.4229 32.751 40.3487 33.6826C40.8253 34.1621 41.0176 34.8984 40.836 35.5488C40.6661 36.2139 40.1163 36.7637 39.4512 36.9307C38.8008 37.1123 38.0645 36.917 37.587 36.4404C36.6573 35.5137 35.7286 34.585 34.8018 33.6553C34.3321 33.1885 34.1309 32.4736 34.2901 31.8311C34.4385 31.1777 34.9522 30.627 35.5899 30.4238Z" fill="#183D3D"/>
<path d="M63.2139 30.4228C63.9385 30.1826 64.7891 30.4189 65.2832 31.0019C65.9316 31.7148 65.916 32.9102 65.2461 33.6045C64.3262 34.5391 63.3926 35.4609 62.4658 36.3906C61.9853 36.8975 61.2246 37.1211 60.5498 36.9316C59.8848 36.7646 59.3369 36.2158 59.1641 35.5547C58.9805 34.9023 59.1728 34.1611 59.6523 33.6826C60.5615 32.7666 61.4775 31.8555 62.3896 30.9414C62.6201 30.709 62.8994 30.5215 63.2139 30.4228Z" fill="#183D3D"/>
<path d="M44.7109 36.9023C45.0928 36.5098 45.6455 36.3086 46.1904 36.3271C48.7627 36.3301 51.335 36.3252 53.9072 36.3291C54.5352 36.3242 55.1504 36.6465 55.5068 37.1641C55.9141 37.7334 55.9707 38.5273 55.6533 39.1504C55.3516 39.7666 54.7041 40.2002 54.0166 40.2266C53.3291 40.2471 52.6416 40.2275 51.9531 40.2344C51.9531 41.5664 51.9522 42.8975 51.9541 44.2295C55.3594 44.5312 58.6904 45.6611 61.5664 47.5127C63.9629 49.0527 66.0518 51.0703 67.6758 53.4102C70.0254 56.7754 71.3506 60.8359 71.4688 64.9375C71.4766 65.415 71.5342 65.918 71.3359 66.3691C71.0498 67.085 70.3076 67.585 69.5352 67.5762C66.2793 67.5811 63.0225 67.5762 59.7656 67.5781C59.7646 68.75 59.7656 69.9219 59.7656 71.0938C63.999 71.0938 68.2314 71.0938 72.4648 71.0928C72.9521 71.0908 73.4717 71.0596 73.917 71.2988C74.5273 71.5928 74.9355 72.2227 75 72.8916V73.2432C74.9023 74.1416 74.1562 74.8896 73.2607 75H26.7578C25.8613 74.9043 25.1133 74.1611 25 73.2686V72.8457C25.1025 71.8828 25.9727 71.0723 26.9502 71.0957C31.3779 71.0908 35.8057 71.0957 40.2344 71.0938C40.2344 69.9219 40.2344 68.75 40.2344 67.5781C37.1729 67.5781 34.1113 67.5771 31.0498 67.5791C30.6064 67.5762 30.1436 67.6123 29.7275 67.4307C29.0439 67.1562 28.5449 66.4668 28.5225 65.7275C28.4951 62.2656 29.3213 58.7988 30.9229 55.7285C32.6328 52.4404 35.2119 49.6113 38.3174 47.5908C41.2197 45.6943 44.5947 44.542 48.0459 44.2295C48.0469 42.8984 48.0469 41.5664 48.0469 40.2344C47.3594 40.2275 46.6729 40.2461 45.9863 40.2275C45.2227 40.2012 44.5146 39.6689 44.2598 38.9512C43.9971 38.2568 44.1797 37.4219 44.7109 36.9023ZM45.4287 48.6523C41.8496 49.6113 38.6045 51.7461 36.292 54.6377C34.2148 57.2119 32.8936 60.3838 32.5303 63.6709C44.1768 63.6719 55.8232 63.6728 67.4697 63.6709C67.0684 60.0391 65.4941 56.5527 63.0361 53.8496C60.9512 51.5342 58.2422 49.7871 55.2686 48.8555C52.0967 47.8535 48.6396 47.7871 45.4287 48.6523ZM44.1406 67.5781C44.1406 68.75 44.1406 69.9219 44.1406 71.0938C48.0469 71.0938 51.9531 71.0938 55.8594 71.0938C55.8594 69.9219 55.8594 68.75 55.8594 67.5781C51.9531 67.5781 48.0469 67.5781 44.1406 67.5781Z" fill="#183D3D"/>
</g>
<path d="M68.331 18.5789L68.331 18.5789L68.3318 18.5759C68.4941 17.9316 68.6914 17.2939 68.912 16.6608C69.8998 17.0651 70.8564 17.4694 71.7527 17.9891L71.753 17.9893C72.7107 18.5435 73.5937 19.2349 74.3909 20.0219L74.3927 20.0238C75.3905 20.9987 76.1365 22.2375 76.6522 23.5807C76.9959 24.5187 77.1556 25.5349 77.1789 26.5647L77.1789 26.5647L77.179 26.5691C77.2046 27.3832 77.117 28.197 77.025 29.0513C77.0159 29.1357 77.0067 29.2206 76.9977 29.3059C76.8983 30.239 76.8076 31.2182 76.9007 32.21L76.9006 32.21L76.9019 32.2213C76.9118 32.3063 76.9205 32.4036 76.9297 32.5082C76.9416 32.642 76.9546 32.7877 76.9726 32.9347C76.6919 32.843 76.4113 32.7541 76.1332 32.6659C76.0075 32.626 75.8824 32.5863 75.758 32.5466C75.0998 32.3366 74.4556 32.1243 73.8276 31.8765C73.0514 31.5673 72.3164 31.1943 71.6703 30.7072L71.6703 30.7071L71.666 30.704C70.9442 30.1718 70.2816 29.5931 69.7618 28.9046L69.7618 28.9046L69.7603 28.9026C69.2641 28.2521 68.8986 27.4972 68.5242 26.6951C68.2133 26.0238 68.0123 25.2956 67.9237 24.5482L67.9238 24.5482L67.9226 24.5396C67.6543 22.5687 67.8264 20.5319 68.331 18.5789ZM70.495 23.5078L70.4989 23.5194L70.5035 23.5308C70.9151 24.5628 71.38 25.5747 71.8386 26.5727C71.9927 26.9081 72.146 27.2419 72.2964 27.5744C72.4698 27.9717 72.9374 28.417 73.5516 28.2906C73.9102 28.2262 74.1679 27.9766 74.3018 27.712C74.4358 27.4472 74.4834 27.0937 74.329 26.7679C74.1006 26.25 73.875 25.7224 73.648 25.1918C73.2638 24.2934 72.8759 23.3864 72.4645 22.5028C72.3436 22.2258 72.0811 21.8683 71.6292 21.7857C71.0146 21.667 70.4075 22.1387 70.3443 22.7535C70.3242 22.9407 70.3591 23.1039 70.3956 23.2256C70.4157 23.2929 70.4535 23.395 70.4768 23.458C70.4853 23.4811 70.4919 23.499 70.495 23.5078Z" stroke="#A7D397"/>
<path d="M96.6325 21.4778L96.6313 21.4776C94.6964 21.1681 92.7015 21.2231 90.7756 21.6049L96.6325 21.4778ZM96.6325 21.4778C96.9034 21.5205 97.1703 21.5756 97.4506 21.6334C97.5181 21.6474 97.5864 21.6615 97.6557 21.6756C97.8518 21.7156 98.054 21.7553 98.2607 21.7892C98.081 23.5052 97.7983 25.1923 97.2165 26.7848L97.2157 26.7871M96.6325 21.4778L97.2157 26.7871M97.2157 26.7871C96.94 27.5532 96.5451 28.2814 96.1186 29.0285C95.4714 30.1582 94.716 31.2207 93.8034 32.1348L93.8033 32.135M97.2157 26.7871L93.8033 32.135M93.8033 32.135C92.6436 33.2976 91.2826 34.2736 89.7885 34.9912L89.7874 34.9917M93.8033 32.135L89.7874 34.9917M89.7874 34.9917C88.3095 35.7059 86.7005 36.166 85.0559 36.3861L85.0559 36.3861M89.7874 34.9917L85.0559 36.3861M85.0559 36.3861L85.0502 36.3869M85.0559 36.3861L85.0502 36.3869M85.0502 36.3869C84.2325 36.5059 83.3944 36.5083 82.528 36.4939C82.4778 36.4919 82.428 36.4901 82.3787 36.4882C81.9326 36.4716 81.5222 36.4563 81.1318 36.3913C81.1692 36.1044 81.259 35.8032 81.3667 35.4641C81.5786 34.8054 81.9002 34.1842 82.3338 33.6504C82.3924 33.5793 82.4544 33.4979 82.5082 33.4273C82.533 33.3947 82.5561 33.3643 82.5763 33.3384C82.6495 33.2444 82.7124 33.1703 82.7779 33.1088L82.7779 33.1088L82.7803 33.1066C82.9019 32.991 83.0047 32.886 83.0996 32.7891C83.2801 32.6048 83.432 32.4498 83.6299 32.3068L83.6378 32.301L83.6455 32.295C84.403 31.701 85.2665 31.2343 86.1879 30.9202C86.6059 30.7796 87.0285 30.6529 87.4604 30.5235C87.533 30.5017 87.6058 30.4799 87.6789 30.4579C88.1826 30.3065 88.6968 30.1484 89.2048 29.9626C90.9822 29.3355 92.5965 28.2949 93.8946 26.9664L93.8946 26.9664L93.8988 26.962C93.9194 26.9404 93.9402 26.9186 93.9615 26.8964C94.286 26.5572 94.6835 26.1418 94.9239 25.623L95.559 24.253L94.2318 24.9732C94.1253 25.031 93.9831 25.1096 93.85 25.2169L93.8499 25.2168L93.8411 25.2243C93.2298 25.7414 92.4872 26.1104 91.6906 26.4745M85.0502 36.3869L91.6906 26.4745M91.6906 26.4745C90.8369 26.8491 89.9887 27.1865 89.1124 27.4054L89.1124 27.4054L89.1095 27.4061C88.6387 27.5267 88.1644 27.6273 87.6782 27.7304C87.5517 27.7573 87.4244 27.7843 87.2962 27.8118C86.6815 27.9439 86.0525 28.0876 85.4321 28.2828L85.4321 28.2828L85.4293 28.2837C83.7742 28.8152 82.2241 29.7152 81.0048 30.9528C80.4549 31.5067 79.9777 32.1283 79.5874 32.7978C79.6372 32.3942 79.6999 31.9962 79.7842 31.6047C80.0398 30.5943 80.372 29.6135 80.8472 28.7076C81.2098 28.0408 81.5936 27.4026 82.0483 26.8229C82.6031 26.1182 83.1797 25.4565 83.8458 24.8999C84.4932 24.3692 85.1328 23.8664 85.8244 23.451L91.6906 26.4745ZM85.8246 23.4509C87.3277 22.5489 89.0247 21.9525 90.7755 21.6049L85.8246 23.4509Z" stroke="#A7D397"/>
<defs>
<clipPath id="clip0_3957_10573">
<rect width="50" height="50" fill="white" transform="translate(25 25)"/>
</clipPath>
</defs>
</svg>
