<svg width="101" height="100" viewBox="0 0 101 100" fill="none" xmlns="http://www.w3.org/2000/svg">
<mask id="path-1-inside-1_3957_10603" fill="white">
<path d="M100.5 50C100.5 56.5661 99.2067 63.0679 96.694 69.1342C94.1812 75.2005 90.4983 80.7124 85.8553 85.3553C81.2124 89.9983 75.7004 93.6812 69.6342 96.194C63.5679 98.7067 57.0661 100 50.5 100C43.9339 100 37.4321 98.7067 31.3658 96.194C25.2995 93.6812 19.7876 89.9983 15.1447 85.3553C10.5017 80.7124 6.81876 75.2004 4.30602 69.1342C1.79329 63.0679 0.499999 56.5661 0.5 50L50.5 50H100.5Z"/>
</mask>
<path d="M100.5 50C100.5 56.5661 99.2067 63.0679 96.694 69.1342C94.1812 75.2005 90.4983 80.7124 85.8553 85.3553C81.2124 89.9983 75.7004 93.6812 69.6342 96.194C63.5679 98.7067 57.0661 100 50.5 100C43.9339 100 37.4321 98.7067 31.3658 96.194C25.2995 93.6812 19.7876 89.9983 15.1447 85.3553C10.5017 80.7124 6.81876 75.2004 4.30602 69.1342C1.79329 63.0679 0.499999 56.5661 0.5 50L50.5 50H100.5Z" fill="white" stroke="#183D3D" stroke-width="2" stroke-dasharray="6 6" mask="url(#path-1-inside-1_3957_10603)"/>
<rect width="54" height="54" transform="translate(24 23)" fill="white"/>
<path d="M49.288 29.4346C49.5136 29.2256 49.8242 29.1523 50.1259 29.165C55.6572 29.1709 61.1894 29.1602 66.7216 29.1709C68.2607 29.1816 69.6416 30.4932 69.7353 32.0283C69.7695 33.0986 69.7412 34.1699 69.749 35.2412C69.0556 35.2402 68.3613 35.2412 67.6679 35.2412C67.6582 34.2334 67.6796 33.2246 67.6582 32.2178C67.6386 31.6494 67.0878 31.2002 66.5293 31.25C61.3535 31.25 56.1767 31.25 51 31.25C50.996 33.3369 51.0068 35.4248 50.9951 37.5117C51.0048 38.0732 50.4921 38.5635 49.9326 38.5391C47.5107 38.5459 45.0888 38.5381 42.6669 38.543C42.666 41.7129 42.6669 44.8818 42.6669 48.0518C41.9726 48.0547 41.2773 48.0547 40.583 48.0518C40.5839 44.5645 40.583 41.0781 40.5839 37.5908C40.5673 37.2402 40.7275 36.9004 41.0009 36.6816C43.7656 34.2686 46.5234 31.8477 49.288 29.4346ZM44.4013 36.457C45.9052 36.4609 47.4091 36.4551 48.9121 36.46C48.9209 35.1406 48.915 33.8213 48.915 32.502C47.413 33.8223 45.9043 35.1357 44.4013 36.457Z" fill="#183D3D"/>
<path d="M67.3448 36.4766C67.8223 36.4404 68.3008 36.4648 68.7793 36.458C69.4805 36.4668 70.212 36.3926 70.877 36.6709C72.0469 37.1064 72.875 38.3008 72.8721 39.5498C72.879 46.123 72.8731 52.6973 72.875 59.2705C72.8917 59.5654 72.793 59.8535 72.6075 60.082C71.5831 61.4395 70.5704 62.8057 69.543 64.1602C69.2725 64.5293 68.7501 64.6836 68.3262 64.5049C68.085 64.4141 67.9083 64.2178 67.7608 64.0156C66.7627 62.6738 65.751 61.3408 64.753 59.998C64.4776 59.6582 64.5489 59.1992 64.5411 58.7939C64.5411 52.5098 64.543 46.2246 64.5411 39.9404C64.5303 39.4424 64.5616 38.9336 64.7491 38.4678C65.1504 37.3867 66.1954 36.5811 67.3448 36.4766ZM66.6817 39.251C66.5694 39.6982 66.6475 40.168 66.625 40.625C68.0137 40.624 69.4034 40.626 70.792 40.624C70.7842 40.2373 70.8077 39.8496 70.7793 39.4639C70.7364 38.9521 70.2598 38.5322 69.7471 38.5449C69.0655 38.5371 68.3838 38.541 67.7032 38.5439C67.2549 38.5254 66.8184 38.8223 66.6817 39.251ZM66.626 42.707C66.6231 46.5723 66.626 50.4365 66.625 54.3008C66.6407 55.8828 66.5938 57.4707 66.6475 59.0488C67.3213 59.9756 68.0245 60.8818 68.7081 61.8018C69.3741 60.9189 70.0362 60.0332 70.7041 59.1514C70.7696 59.0752 70.7989 58.9863 70.792 58.8848C70.792 53.4932 70.792 48.1006 70.7911 42.709C69.4034 42.708 68.0147 42.71 66.626 42.707Z" fill="#183D3D"/>
<path d="M46.8359 46.876C46.8213 46.3174 47.3203 45.8193 47.8799 45.8359C49.2803 45.833 50.6816 45.8271 52.082 45.8389C52.6641 45.8408 53.1357 46.3994 53.083 46.9727C53.0801 52.1465 53.0898 57.3203 53.0781 62.4932C53.4268 62.502 53.7764 62.501 54.125 62.5C54.125 63.1943 54.125 63.8887 54.125 64.583C45.792 64.584 37.459 64.583 29.125 64.583C29.125 63.8887 29.125 63.1943 29.125 62.5C29.4727 62.501 29.8213 62.5 30.1689 62.4961C30.166 60.4141 30.1631 58.332 30.1699 56.25C30.1563 55.7061 30.6318 55.2119 31.1768 55.2129C32.5459 55.2012 33.916 55.2119 35.2852 55.208C35.873 55.1572 36.4326 55.6582 36.4141 56.2549C36.4209 58.3359 36.4131 60.418 36.417 62.5C37.1113 62.5 37.8057 62.5 38.5 62.5C38.502 58.6875 38.4961 54.875 38.5029 51.0635C38.4766 50.4902 38.9912 49.9766 39.5635 50.0029C40.9365 49.998 42.3086 49.998 43.6816 50.002C44.1621 49.9834 44.6211 50.3369 44.7207 50.8086C44.7676 51.0908 44.7471 51.3799 44.75 51.665C44.75 55.2764 44.75 58.8887 44.75 62.5C45.4443 62.5 46.1387 62.5 46.833 62.5C46.8359 57.292 46.8291 52.084 46.8359 46.876ZM48.918 47.918C48.916 52.7783 48.917 57.6387 48.917 62.5C49.6113 62.5 50.3057 62.5 51 62.5C51 57.6387 51 52.7783 51 47.918C50.3057 47.916 49.6113 47.916 48.918 47.918ZM40.584 52.084C40.583 55.5557 40.584 59.0273 40.583 62.499C41.2783 62.499 41.9736 62.5039 42.6689 62.4961C42.6631 59.0254 42.668 55.5547 42.667 52.084C41.9717 52.083 41.2783 52.083 40.584 52.084ZM32.25 57.293C32.25 59.0283 32.25 60.7637 32.25 62.5C32.9443 62.5 33.6387 62.5 34.333 62.5C34.334 60.7637 34.334 59.0283 34.332 57.292C33.6387 57.291 32.9443 57.291 32.25 57.293Z" fill="#183D3D"/>
<path d="M67.6758 65.4414C68.3672 65.458 69.0576 65.4453 69.749 65.4492C69.7481 66.2236 69.7549 66.998 69.7461 67.7725C69.7344 68.541 69.4219 69.2969 68.8936 69.8535C68.293 70.498 67.4102 70.8545 66.5322 70.834C58.9121 70.8311 51.292 70.8369 43.6719 70.8311C42.1533 70.8437 40.7608 69.5977 40.6084 68.0869C40.5547 67.2227 40.5947 66.3535 40.585 65.4873C41.2774 65.4863 41.9688 65.4922 42.6602 65.4844C42.6807 66.2461 42.6514 67.0088 42.6738 67.7705C42.6875 68.3271 43.2168 68.7842 43.7666 68.749C51.3555 68.7519 58.9443 68.749 66.5342 68.75C67.0928 68.7969 67.6406 68.3457 67.6582 67.7783C67.6846 67 67.6475 66.2197 67.6758 65.4414Z" fill="#183D3D"/>
<path d="M66.331 12.5789L66.331 12.5789L66.3318 12.5759C66.4941 11.9316 66.6914 11.2939 66.912 10.6608C67.8998 11.0651 68.8564 11.4694 69.7527 11.9891L69.753 11.9893C70.7107 12.5435 71.5937 13.2349 72.3909 14.0219L72.3927 14.0238C73.3905 14.9987 74.1365 16.2375 74.6522 17.5807C74.9959 18.5187 75.1556 19.5349 75.1789 20.5647L75.1789 20.5647L75.179 20.5691C75.2046 21.3832 75.117 22.197 75.025 23.0513C75.0159 23.1357 75.0067 23.2206 74.9977 23.3059C74.8983 24.239 74.8076 25.2182 74.9007 26.21L74.9006 26.21L74.9019 26.2213C74.9118 26.3063 74.9205 26.4036 74.9297 26.5082C74.9416 26.642 74.9546 26.7877 74.9726 26.9347C74.6919 26.843 74.4113 26.7541 74.1332 26.6659C74.0075 26.626 73.8824 26.5863 73.758 26.5466C73.0998 26.3366 72.4556 26.1243 71.8276 25.8765C71.0514 25.5673 70.3164 25.1943 69.6703 24.7072L69.6703 24.7071L69.666 24.704C68.9442 24.1718 68.2816 23.5931 67.7618 22.9046L67.7618 22.9046L67.7603 22.9026C67.2641 22.2521 66.8986 21.4972 66.5242 20.6951C66.2133 20.0238 66.0123 19.2956 65.9237 18.5482L65.9238 18.5482L65.9226 18.5396C65.6543 16.5687 65.8264 14.5319 66.331 12.5789ZM68.495 17.5078L68.4989 17.5194L68.5035 17.5308C68.9151 18.5628 69.38 19.5747 69.8386 20.5727C69.9927 20.9081 70.146 21.2419 70.2964 21.5744C70.4698 21.9717 70.9374 22.417 71.5516 22.2906C71.9102 22.2262 72.1679 21.9766 72.3018 21.712C72.4358 21.4472 72.4834 21.0937 72.329 20.7679C72.1006 20.25 71.875 19.7224 71.648 19.1918C71.2638 18.2934 70.8759 17.3864 70.4645 16.5028C70.3436 16.2258 70.0811 15.8683 69.6292 15.7857C69.0146 15.667 68.4075 16.1387 68.3443 16.7535C68.3242 16.9407 68.3591 17.1039 68.3956 17.2256C68.4157 17.2929 68.4535 17.395 68.4768 17.458C68.4853 17.4811 68.4919 17.499 68.495 17.5078Z" stroke="#A7D397"/>
<path d="M94.6326 15.4778L94.6314 15.4776C92.6965 15.1681 90.7017 15.2231 88.7757 15.6049L94.6326 15.4778ZM94.6326 15.4778C94.9035 15.5205 95.1704 15.5756 95.4507 15.6334C95.5182 15.6474 95.5865 15.6615 95.6558 15.6756C95.852 15.7156 96.0541 15.7553 96.2608 15.7892C96.0812 17.5052 95.7985 19.1923 95.2167 20.7848L95.2159 20.7871M94.6326 15.4778L95.2159 20.7871M95.2159 20.7871C94.9401 21.5532 94.5452 22.2814 94.1187 23.0285C93.4715 24.1582 92.7161 25.2207 91.8036 26.1348L91.8034 26.135M95.2159 20.7871L91.8034 26.135M91.8034 26.135C90.6438 27.2976 89.2827 28.2736 87.7886 28.9912L87.7875 28.9917M91.8034 26.135L87.7875 28.9917M87.7875 28.9917C86.3096 29.7059 84.7006 30.166 83.056 30.3861L83.056 30.3861M87.7875 28.9917L83.056 30.3861M83.056 30.3861L83.0503 30.3869M83.056 30.3861L83.0503 30.3869M83.0503 30.3869C82.2327 30.5059 81.3945 30.5083 80.5281 30.4939C80.4779 30.4919 80.4282 30.4901 80.3788 30.4882C79.9327 30.4716 79.5223 30.4563 79.1319 30.3913C79.1693 30.1044 79.2591 29.8032 79.3668 29.4641C79.5787 28.8054 79.9003 28.1842 80.3339 27.6504C80.3925 27.5793 80.4545 27.4979 80.5083 27.4273C80.5332 27.3947 80.5563 27.3643 80.5764 27.3384C80.6496 27.2444 80.7125 27.1703 80.778 27.1088L80.778 27.1088L80.7805 27.1066C80.902 26.991 81.0048 26.886 81.0997 26.7891C81.2802 26.6048 81.4321 26.4498 81.63 26.3068L81.6379 26.301L81.6457 26.295C82.4032 25.701 83.2666 25.2343 84.1881 24.9202C84.606 24.7796 85.0286 24.6529 85.4606 24.5235C85.5331 24.5017 85.606 24.4799 85.6791 24.4579C86.1828 24.3065 86.6969 24.1484 87.2049 23.9626C88.9823 23.3355 90.5966 22.2949 91.8947 20.9664L91.8947 20.9664L91.899 20.962C91.9195 20.9404 91.9404 20.9186 91.9616 20.8964C92.2861 20.5572 92.6836 20.1418 92.9241 19.623L93.5591 18.253L92.2319 18.9732C92.1254 19.031 91.9832 19.1096 91.8501 19.2169L91.8501 19.2168L91.8412 19.2243C91.23 19.7414 90.4873 20.1104 89.6907 20.4745M83.0503 30.3869L89.6907 20.4745M89.6907 20.4745C88.837 20.8491 87.9888 21.1865 87.1125 21.4054L87.1125 21.4054L87.1096 21.4061C86.6388 21.5267 86.1645 21.6273 85.6783 21.7304C85.5518 21.7573 85.4245 21.7843 85.2963 21.8118C84.6817 21.9439 84.0527 22.0876 83.4322 22.2828L83.4322 22.2828L83.4294 22.2837C81.7743 22.8152 80.2242 23.7152 79.0049 24.9528C78.455 25.5067 77.9779 26.1283 77.5875 26.7978C77.6373 26.3942 77.7 25.9962 77.7844 25.6047C78.0399 24.5943 78.3721 23.6135 78.8473 22.7076C79.2099 22.0408 79.5938 21.4026 80.0484 20.8229C80.6032 20.1182 81.1799 19.4565 81.846 18.8999C82.4933 18.3692 83.1329 17.8664 83.8245 17.451L89.6907 20.4745ZM83.8247 17.4509C85.3278 16.5489 87.0248 15.9525 88.7756 15.6049L83.8247 17.4509Z" stroke="#A7D397"/>
</svg>
