<svg width="100" height="100" viewBox="0 0 100 100" fill="none" xmlns="http://www.w3.org/2000/svg">
<mask id="path-1-inside-1_3957_10686" fill="white">
<path d="M100 50C100 56.5661 98.7067 63.0679 96.194 69.1342C93.6812 75.2005 89.9983 80.7124 85.3553 85.3553C80.7124 89.9983 75.2004 93.6812 69.1342 96.194C63.0679 98.7067 56.5661 100 50 100C43.4339 100 36.9321 98.7067 30.8658 96.194C24.7995 93.6812 19.2876 89.9983 14.6447 85.3553C10.0017 80.7124 6.31876 75.2004 3.80602 69.1342C1.29329 63.0679 -5.74026e-07 56.5661 0 50L50 50H100Z"/>
</mask>
<path d="M100 50C100 56.5661 98.7067 63.0679 96.194 69.1342C93.6812 75.2005 89.9983 80.7124 85.3553 85.3553C80.7124 89.9983 75.2004 93.6812 69.1342 96.194C63.0679 98.7067 56.5661 100 50 100C43.4339 100 36.9321 98.7067 30.8658 96.194C24.7995 93.6812 19.2876 89.9983 14.6447 85.3553C10.0017 80.7124 6.31876 75.2004 3.80602 69.1342C1.29329 63.0679 -5.74026e-07 56.5661 0 50L50 50H100Z" fill="white" stroke="#183D3D" stroke-width="2" stroke-dasharray="6 6" mask="url(#path-1-inside-1_3957_10686)"/>
<rect width="60" height="78" transform="translate(20 11)" fill="white"/>
<g clip-path="url(#clip0_3957_10686)">
<path d="M33.8586 20H50.2461C50.2437 22.932 50.2496 25.8629 50.2437 28.7949C50.1875 29.0867 50.4476 29.2707 50.6058 29.4746C52.4316 31.6215 54.2574 33.7695 56.0761 35.9234C56.075 39.7191 56.0691 43.5137 56.0797 47.3094C55.6015 47.6258 55.1058 47.9152 54.616 48.2117C54.6054 49.4023 54.6136 50.5941 54.6125 51.7848C57.3394 51.1977 60.2375 51.3969 62.8414 52.407C66.3136 53.7359 69.2047 56.4898 70.7234 59.8801C72.4636 63.7227 72.3711 68.3398 70.4691 72.1063C68.832 75.3852 65.8918 77.9984 62.4219 79.1902C60.9429 79.7176 59.3738 79.9648 57.8058 80H57.5504C55.7761 79.9637 54.009 79.6215 52.359 78.9664C51.3301 79.5676 50.164 79.9016 48.9793 80H35.1101C33.166 79.8676 31.2863 78.9758 29.9832 77.5215C28.734 76.1703 28.0297 74.3398 28.0308 72.5012C28.0308 69.3102 28.025 66.1191 28.0332 62.9281C28.5219 62.6352 29.0058 62.3363 29.491 62.0387C29.4969 57.4332 29.4922 52.8266 29.4933 48.2199C29.0117 47.9105 28.5172 47.6211 28.0308 47.3187C28.0285 43.5195 28.0308 39.7203 28.0297 35.9211C29.9691 33.6242 31.925 31.3402 33.8609 29.0387C33.8562 26.0258 33.8597 23.0129 33.8586 20ZM37.3742 23.5168C37.3754 24.9934 37.3742 26.4688 37.3742 27.9441C40.4926 27.9453 43.6109 27.9453 46.7293 27.9441C46.7316 26.4688 46.7304 24.9922 46.7293 23.5168C43.6109 23.5156 40.4926 23.5145 37.3742 23.5168ZM36.4215 31.4621C35.2543 32.8438 34.0777 34.2172 32.914 35.6C39.0066 35.6023 45.0992 35.6035 51.1918 35.6C50.0258 34.216 48.8527 32.8379 47.6797 31.4609C43.9273 31.4621 40.1738 31.4586 36.4215 31.4621ZM31.5465 39.118C31.5441 41.0809 31.5453 43.0438 31.5465 45.0066C38.5508 45.0078 45.5551 45.009 52.5582 45.0066C52.5582 43.0438 52.5594 41.0809 52.5582 39.118C45.5551 39.1168 38.5508 39.1168 31.5465 39.118ZM33.0113 48.5223C33.0066 52.9344 33.0101 57.3453 33.0101 61.7574C36.6699 61.7539 40.3297 61.768 43.9883 61.7504C45.0383 58.0437 47.6867 54.8457 51.0957 53.0645C51.0969 51.5516 51.0945 50.0387 51.0957 48.5258C45.0676 48.5187 39.0394 48.527 33.0113 48.5223ZM56.9656 54.9957C53.273 55.1996 49.8148 57.5023 48.1355 60.7871C46.9613 63.0359 46.6449 65.7078 47.2191 68.1758C47.7265 70.3906 48.9734 72.4227 50.7019 73.8957C52.3929 75.3617 54.5586 76.2664 56.7898 76.4445C59.3082 76.6625 61.8992 75.9652 63.9488 74.4816C65.6914 73.2336 67.0566 71.4617 67.7926 69.4473C68.6832 67.0379 68.6703 64.3086 67.7574 61.9086C66.9488 59.7605 65.4219 57.8996 63.4929 56.6609C61.5722 55.4199 59.2449 54.8375 56.9656 54.9957ZM31.5453 65.2766C31.5476 67.6848 31.5418 70.093 31.5476 72.5012C31.5476 73.6449 32.0703 74.7723 32.941 75.5129C33.6676 76.1434 34.625 76.4902 35.5859 76.4832C39.8293 76.4855 44.0726 76.4844 48.3148 76.4832C47.4769 75.7344 46.7058 74.907 46.0496 73.993C44.2238 71.4922 43.2746 68.368 43.4304 65.273C39.4683 65.2754 35.5062 65.2695 31.5453 65.2766Z" fill="#183D3D"/>
<path d="M55.9403 58.9777C57.1121 58.9754 58.284 58.9742 59.4547 58.9777C59.4559 60.6418 59.4536 62.3047 59.4559 63.9676C61.1188 63.9711 62.7828 63.9676 64.4457 63.9687C64.4481 65.1406 64.4481 66.3125 64.4469 67.4832C62.7828 67.4867 61.12 67.4832 59.4559 67.4855C59.4536 69.1484 59.4559 70.8125 59.4547 72.4777C58.2828 72.4801 57.1121 72.4777 55.9403 72.4777C55.9368 70.8137 55.9403 69.1496 55.9391 67.4855C54.275 67.482 52.611 67.4867 50.9469 67.4844C50.9457 66.3125 50.9446 65.1406 50.9469 63.9687C52.6063 63.9723 54.2645 63.9605 55.9239 63.9758C55.9602 62.3105 55.9262 60.643 55.9403 58.9777Z" fill="#183D3D"/>
</g>
<path d="M66.331 12.5789L66.331 12.5789L66.3318 12.576C66.4941 11.9317 66.6914 11.2939 66.912 10.6608C67.8998 11.0652 68.8564 11.4694 69.7527 11.9891L69.753 11.9893C70.7107 12.5435 71.5937 13.2349 72.3909 14.022L72.3927 14.0238C73.3905 14.9987 74.1365 16.2375 74.6522 17.5807C74.9959 18.5187 75.1556 19.5349 75.1789 20.5647L75.1789 20.5647L75.179 20.5691C75.2046 21.3832 75.117 22.197 75.025 23.0513C75.0159 23.1357 75.0067 23.2206 74.9977 23.3059C74.8983 24.239 74.8076 25.2182 74.9007 26.21L74.9006 26.21L74.9019 26.2214C74.9118 26.3063 74.9205 26.4036 74.9297 26.5082C74.9416 26.642 74.9546 26.7877 74.9726 26.9347C74.6919 26.843 74.4113 26.7541 74.1332 26.6659C74.0075 26.626 73.8824 26.5863 73.758 26.5466C73.0998 26.3366 72.4556 26.1243 71.8276 25.8765C71.0514 25.5673 70.3164 25.1943 69.6703 24.7072L69.6703 24.7072L69.666 24.704C68.9442 24.1718 68.2816 23.5931 67.7618 22.9046L67.7618 22.9046L67.7603 22.9026C67.2641 22.2521 66.8986 21.4972 66.5242 20.6951C66.2133 20.0239 66.0123 19.2956 65.9237 18.5482L65.9238 18.5482L65.9226 18.5396C65.6543 16.5687 65.8264 14.5319 66.331 12.5789ZM68.495 17.5078L68.4989 17.5194L68.5035 17.5308C68.9151 18.5628 69.38 19.5747 69.8386 20.5728C69.9927 20.9081 70.146 21.242 70.2964 21.5745C70.4698 21.9718 70.9374 22.417 71.5516 22.2906C71.9102 22.2262 72.1679 21.9766 72.3018 21.712C72.4358 21.4472 72.4834 21.0937 72.329 20.7679C72.1006 20.25 71.875 19.7224 71.648 19.1918C71.2638 18.2935 70.8759 17.3864 70.4645 16.5028C70.3436 16.2258 70.0811 15.8683 69.6292 15.7857C69.0146 15.667 68.4075 16.1387 68.3443 16.7535C68.3242 16.9407 68.3591 17.1039 68.3956 17.2256C68.4157 17.2929 68.4535 17.395 68.4768 17.458C68.4853 17.4811 68.4919 17.499 68.495 17.5078Z" stroke="#A7D397"/>
<path d="M94.6326 15.4778L94.6314 15.4776C92.6965 15.1681 90.7017 15.2231 88.7757 15.6049L94.6326 15.4778ZM94.6326 15.4778C94.9035 15.5205 95.1704 15.5756 95.4507 15.6334C95.5182 15.6474 95.5865 15.6615 95.6558 15.6756C95.852 15.7156 96.0541 15.7553 96.2608 15.7892C96.0812 17.5052 95.7985 19.1923 95.2167 20.7848L95.2159 20.7871M94.6326 15.4778L95.2159 20.7871M95.2159 20.7871C94.9401 21.5532 94.5452 22.2814 94.1187 23.0285C93.4715 24.1582 92.7161 25.2207 91.8036 26.1348L91.8034 26.135M95.2159 20.7871L91.8034 26.135M91.8034 26.135C90.6438 27.2976 89.2827 28.2736 87.7886 28.9912L87.7875 28.9917M91.8034 26.135L87.7875 28.9917M87.7875 28.9917C86.3096 29.7059 84.7006 30.166 83.056 30.3861L83.056 30.3861M87.7875 28.9917L83.056 30.3861M83.056 30.3861L83.0503 30.3869M83.056 30.3861L83.0503 30.3869M83.0503 30.3869C82.2327 30.5059 81.3945 30.5083 80.5281 30.4939C80.4779 30.4919 80.4282 30.4901 80.3788 30.4882C79.9327 30.4716 79.5223 30.4563 79.1319 30.3913C79.1693 30.1044 79.2591 29.8032 79.3668 29.4641C79.5787 28.8054 79.9003 28.1842 80.3339 27.6504C80.3925 27.5793 80.4545 27.4979 80.5083 27.4273C80.5332 27.3947 80.5563 27.3643 80.5764 27.3384C80.6496 27.2444 80.7125 27.1703 80.778 27.1088L80.778 27.1088L80.7805 27.1066C80.902 26.991 81.0048 26.886 81.0997 26.7891C81.2802 26.6048 81.4321 26.4498 81.63 26.3068L81.6379 26.301L81.6457 26.295C82.4032 25.701 83.2666 25.2343 84.1881 24.9202C84.606 24.7796 85.0286 24.6529 85.4606 24.5235C85.5331 24.5017 85.606 24.4799 85.6791 24.4579C86.1828 24.3065 86.6969 24.1484 87.2049 23.9626C88.9823 23.3355 90.5966 22.2949 91.8947 20.9664L91.8947 20.9664L91.899 20.962C91.9195 20.9404 91.9404 20.9186 91.9616 20.8964C92.2861 20.5572 92.6836 20.1418 92.9241 19.623L93.5591 18.253L92.2319 18.9732C92.1254 19.031 91.9832 19.1096 91.8501 19.2169L91.8501 19.2168L91.8412 19.2243C91.23 19.7414 90.4873 20.1104 89.6907 20.4745M83.0503 30.3869L89.6907 20.4745M89.6907 20.4745C88.837 20.8491 87.9888 21.1865 87.1125 21.4054L87.1125 21.4054L87.1096 21.4061C86.6388 21.5267 86.1645 21.6273 85.6783 21.7304C85.5518 21.7573 85.4245 21.7843 85.2963 21.8118C84.6817 21.9439 84.0527 22.0876 83.4322 22.2828L83.4322 22.2828L83.4294 22.2837C81.7743 22.8152 80.2242 23.7152 79.0049 24.9528C78.455 25.5067 77.9779 26.1283 77.5875 26.7978C77.6373 26.3942 77.7 25.9962 77.7844 25.6047C78.0399 24.5943 78.3721 23.6135 78.8473 22.7076C79.2099 22.0408 79.5938 21.4026 80.0484 20.8229C80.6032 20.1182 81.1799 19.4565 81.846 18.8999C82.4933 18.3692 83.1329 17.8664 83.8245 17.451L89.6907 20.4745ZM83.8247 17.4509C85.3278 16.5489 87.0248 15.9525 88.7756 15.6049L83.8247 17.4509Z" stroke="#A7D397"/>
<defs>
<clipPath id="clip0_3957_10686">
<rect width="60" height="60" fill="white" transform="translate(20 20)"/>
</clipPath>
</defs>
</svg>
