<svg width="104" height="100" viewBox="0 0 104 100" fill="none" xmlns="http://www.w3.org/2000/svg">
<mask id="path-1-inside-1_3957_10803" fill="white">
<path d="M99.9913 50C99.9913 56.5661 98.698 63.0679 96.1853 69.1342C93.6726 75.2005 89.9896 80.7124 85.3467 85.3553C80.7037 89.9983 75.1918 93.6812 69.1255 96.194C63.0592 98.7067 56.5574 100 49.9913 100C43.4252 100 36.9234 98.7067 30.8572 96.194C24.7909 93.6812 19.2789 89.9983 14.636 85.3553C9.99306 80.7124 6.31009 75.2004 3.79735 69.1342C1.28462 63.0679 -0.00866757 56.5661 -0.00866699 50L49.9913 50H99.9913Z"/>
</mask>
<path d="M99.9913 50C99.9913 56.5661 98.698 63.0679 96.1853 69.1342C93.6726 75.2005 89.9896 80.7124 85.3467 85.3553C80.7037 89.9983 75.1918 93.6812 69.1255 96.194C63.0592 98.7067 56.5574 100 49.9913 100C43.4252 100 36.9234 98.7067 30.8572 96.194C24.7909 93.6812 19.2789 89.9983 14.636 85.3553C9.99306 80.7124 6.31009 75.2004 3.79735 69.1342C1.28462 63.0679 -0.00866757 56.5661 -0.00866699 50L49.9913 50H99.9913Z" fill="white" stroke="#183D3D" stroke-width="2" stroke-dasharray="6 6" mask="url(#path-1-inside-1_3957_10803)"/>
<rect width="64" height="64" transform="translate(17.9913 18)" fill="white"/>
<g clip-path="url(#clip0_3957_10803)">
<path d="M49.2706 20H50.3968C53.7472 20.0891 57.0613 21.2422 59.7191 23.2883C60.7105 24.0441 61.6046 24.9207 62.405 25.8758C65.5409 25.2453 68.8808 25.6449 71.7554 27.0605C74.8011 28.5383 77.2972 31.1094 78.6882 34.1949C79.4991 35.9715 79.9269 37.9133 79.9913 39.8621V40.7738C79.8882 42.95 79.3374 45.1098 78.3132 47.0375C76.8495 49.8277 74.4601 52.1152 71.6195 53.477C71.6136 59.7816 71.63 66.0852 71.6171 72.3887C71.6101 74.3375 70.8202 76.2711 69.4527 77.6609C68.1261 79.0602 66.2511 79.8875 64.3327 80H35.6698C33.912 79.8992 32.1894 79.2043 30.8886 78.0125C29.3113 76.6004 28.3691 74.5109 28.3656 72.3922C28.3527 66.0875 28.3691 59.7816 28.3632 53.4758C25.1781 51.9523 22.5659 49.2594 21.1773 46.0109C20.4706 44.3902 20.1003 42.6406 19.9913 40.8805V39.8621C20.0534 37.8816 20.4964 35.9105 21.3308 34.1117C22.812 30.8727 25.5202 28.2207 28.7874 26.8027C31.5284 25.591 34.6421 25.2898 37.5765 25.8758C38.3101 25.0086 39.1128 24.1941 40.0058 23.491C42.6249 21.3828 45.9202 20.1805 49.2706 20ZM48.1058 24.3371C45.6038 24.732 43.2484 25.9648 41.4882 27.7836C39.3753 29.9363 38.1437 32.9211 38.1331 35.9387C38.1659 36.7227 37.7417 37.5078 37.0456 37.8781C36.237 38.3422 35.1343 38.1652 34.5097 37.475C34.1534 37.0953 33.9448 36.5797 33.9484 36.0594C33.9413 33.9102 34.3784 31.7621 35.214 29.7816C32.6874 29.6387 30.1234 30.4496 28.1464 32.0305C26.3898 33.4191 25.0948 35.382 24.5265 37.5488C23.8995 39.909 24.1304 42.4895 25.1816 44.6961C26.289 47.0527 28.3105 48.9664 30.7304 49.932C30.98 50.0328 31.2343 50.123 31.4722 50.2484C32.1366 50.6105 32.562 51.3535 32.548 52.1094C32.5527 56.2883 32.548 60.4684 32.5491 64.6473C44.1777 64.6484 55.805 64.6484 67.4335 64.6473C67.4335 60.4684 67.43 56.2895 67.4347 52.1094C67.4241 51.4684 67.723 50.8297 68.2304 50.4359C68.6851 50.0914 69.2558 49.9707 69.7585 49.7188C72.0859 48.6359 73.9855 46.6672 74.9781 44.2988C75.9882 41.9199 76.0738 39.1625 75.2007 36.7297C74.3816 34.407 72.7093 32.3996 70.5753 31.1715C68.8304 30.1508 66.7831 29.6762 64.7675 29.7816C65.6148 31.8008 66.0624 33.9934 66.0296 36.1848C65.9898 37.3461 64.8331 38.2988 63.6859 38.1219C62.6734 38.0164 61.8402 37.0824 61.8531 36.0641C61.8448 34.9098 61.6878 33.7543 61.3538 32.6469C60.5066 29.7793 58.5214 27.2703 55.9304 25.7797C53.5925 24.4133 50.7765 23.9047 48.1058 24.3371ZM32.5503 68.8367C32.555 70.059 32.5386 71.2824 32.5573 72.5059C32.6042 74.2625 34.1745 75.7977 35.9312 75.8082C45.2265 75.8188 54.5206 75.8082 63.8159 75.8129C64.8413 75.8457 65.8738 75.4156 66.5499 74.641C67.1288 73.9977 67.4429 73.1328 67.4323 72.268C67.4347 71.1242 67.4323 69.9805 67.4323 68.8367C55.805 68.8355 44.1777 68.8355 32.5503 68.8367Z" fill="#183D3D"/>
<path d="M49.334 41.0352C49.9761 40.8207 50.7168 40.9426 51.2535 41.3551C51.7867 41.7512 52.1008 42.4133 52.0832 43.0766C52.0832 45.8539 52.0867 48.6336 52.082 51.411C52.0844 52.127 51.6847 52.8219 51.0707 53.1864C50.4261 53.5836 49.5648 53.586 48.9191 53.191C48.3015 52.8278 47.8972 52.1293 47.9008 51.4121C47.8961 48.6336 47.8996 45.8563 47.8984 43.0789C47.8633 42.1789 48.475 41.3071 49.334 41.0352Z" fill="#183D3D"/>
<path d="M36.216 44.5578C37.1453 44.327 38.1847 44.8332 38.5773 45.7063C39.7246 48.152 40.8601 50.6035 42.0062 53.0492C42.2242 53.477 42.3718 53.9586 42.2992 54.4426C42.2031 55.3238 41.4871 56.0902 40.6129 56.2414C39.7047 56.4289 38.7168 55.925 38.3336 55.0813C37.1406 52.5266 35.9453 49.9731 34.7605 47.4148C34.2261 46.2746 34.9867 44.8016 36.216 44.5578Z" fill="#183D3D"/>
<path d="M62.8152 44.5613C63.6015 44.3656 64.4804 44.682 64.9632 45.3312C65.432 45.9383 65.5211 46.8066 65.1871 47.4969C64.0082 50.0258 62.8316 52.5558 61.648 55.0836C61.2203 56.0351 60.0226 56.5297 59.0476 56.1547C57.9507 55.7879 57.3449 54.4262 57.8324 53.3715C59.0031 50.839 60.1902 48.3148 61.3656 45.7859C61.6234 45.1789 62.1718 44.709 62.8152 44.5613Z" fill="#183D3D"/>
</g>
<path d="M73.5338 10.5788L73.5338 10.5789L73.5345 10.5759C73.6969 9.93162 73.8941 9.29386 74.1148 8.66076C75.1025 9.06512 76.0591 9.46935 76.9554 9.98903L76.9558 9.98923C77.9134 10.5435 78.7965 11.2348 79.5936 12.0219L79.5955 12.0237C80.5932 12.9986 81.3392 14.2375 81.855 15.5807C82.1987 16.5187 82.3583 17.5349 82.3816 18.5646L82.3816 18.5646L82.3818 18.5691C82.4074 19.3832 82.3198 20.197 82.2277 21.0512C82.2186 21.1357 82.2095 21.2205 82.2004 21.3058C82.1011 22.239 82.0104 23.2181 82.1034 24.21L82.1033 24.21L82.1046 24.2213C82.1146 24.3062 82.1232 24.4036 82.1325 24.5082C82.1444 24.642 82.1573 24.7877 82.1754 24.9347C81.8946 24.843 81.6141 24.754 81.3359 24.6658C81.2103 24.626 81.0852 24.5863 80.9607 24.5466C80.3025 24.3366 79.6584 24.1243 79.0304 23.8765C78.2542 23.5672 77.5192 23.1943 76.8731 22.7071L76.8731 22.7071L76.8687 22.7039C76.1469 22.1718 75.4843 21.5931 74.9646 20.9046L74.9646 20.9046L74.963 20.9026C74.4668 20.2521 74.1014 19.4972 73.727 18.6951C73.4161 18.0238 73.215 17.2956 73.1265 16.5482L73.1266 16.5482L73.1254 16.5396C72.8571 14.5686 73.0291 12.5319 73.5338 10.5788ZM75.6977 15.5078L75.7017 15.5194L75.7062 15.5307C76.1179 16.5627 76.5828 17.5747 77.0413 18.5727C77.1954 18.9081 77.3488 19.2419 77.4992 19.5744C77.6726 19.9717 78.1402 20.417 78.7544 20.2905C79.1129 20.2261 79.3707 19.9766 79.5045 19.712C79.6385 19.4472 79.6861 19.0937 79.5317 18.7678C79.3033 18.2499 79.0777 17.7224 78.8508 17.1918C78.4666 16.2934 78.0787 15.3864 77.6673 14.5028C77.5463 14.2258 77.2839 13.8683 76.8319 13.7857C76.2173 13.667 75.6103 14.1387 75.547 14.7535C75.527 14.9407 75.5619 15.1038 75.5983 15.2256C75.6185 15.2929 75.6562 15.395 75.6795 15.4579C75.6881 15.4811 75.6947 15.4989 75.6977 15.5078Z" stroke="#A7D397"/>
<path d="M101.835 13.4778L101.834 13.4776C99.8993 13.168 97.9044 13.2231 95.9785 13.6049L101.835 13.4778ZM101.835 13.4778C102.106 13.5204 102.373 13.5756 102.653 13.6334C102.721 13.6474 102.789 13.6615 102.859 13.6756C103.055 13.7156 103.257 13.7552 103.464 13.7892C103.284 15.5052 103.001 17.1923 102.419 18.7848L102.419 18.7871M101.835 13.4778L102.419 18.7871M102.419 18.7871C102.143 19.5532 101.748 20.2814 101.321 21.0285C100.674 22.1582 99.9189 23.2206 99.0063 24.1348L99.0062 24.1349M102.419 18.7871L99.0062 24.1349M99.0062 24.1349C97.8465 25.2976 96.4855 26.2736 94.9914 26.9912L94.9903 26.9917M99.0062 24.1349L94.9903 26.9917M94.9903 26.9917C93.5123 27.7059 91.9034 28.166 90.2588 28.3861L90.2588 28.3861M94.9903 26.9917L90.2588 28.3861M90.2588 28.3861L90.2531 28.3869M90.2588 28.3861L90.2531 28.3869M90.2531 28.3869C89.4354 28.5059 88.5972 28.5083 87.7309 28.4938C87.6807 28.4919 87.6309 28.4901 87.5816 28.4882C87.1355 28.4716 86.725 28.4563 86.3347 28.3913C86.3721 28.1044 86.4619 27.8032 86.5696 27.4641C86.7815 26.8054 87.1031 26.1842 87.5367 25.6504C87.5953 25.5793 87.6573 25.4979 87.7111 25.4273C87.7359 25.3946 87.759 25.3643 87.7792 25.3384C87.8524 25.2444 87.9153 25.1703 87.9808 25.1088L87.9808 25.1088L87.9832 25.1065C88.1048 24.991 88.2076 24.886 88.3025 24.7891C88.483 24.6048 88.6348 24.4497 88.8327 24.3067L88.8407 24.301L88.8484 24.2949C89.6059 23.701 90.4693 23.2342 91.3908 22.9202C91.8088 22.7795 92.2314 22.6529 92.6633 22.5235C92.7359 22.5017 92.8087 22.4799 92.8818 22.4579C93.3855 22.3065 93.8997 22.1484 94.4076 21.9626C96.1851 21.3355 97.7994 20.2948 99.0975 18.9664L99.0975 18.9664L99.1017 18.9619C99.1222 18.9404 99.1431 18.9186 99.1643 18.8964C99.4889 18.5572 99.8863 18.1418 100.127 17.6229L100.762 16.253L99.4347 16.9732C99.3282 17.031 99.1859 17.1096 99.0529 17.2169L99.0528 17.2168L99.044 17.2243C98.4327 17.7414 97.6901 18.1104 96.8935 18.4745M90.2531 28.3869L96.8935 18.4745M96.8935 18.4745C96.0398 18.8491 95.1916 19.1865 94.3153 19.4054L94.3153 19.4054L94.3124 19.4061C93.8415 19.5267 93.3672 19.6273 92.8811 19.7304C92.7546 19.7572 92.6273 19.7842 92.4991 19.8118C91.8844 19.9439 91.2554 20.0876 90.635 20.2828L90.635 20.2828L90.6322 20.2837C88.9771 20.8152 87.427 21.7152 86.2076 22.9528C85.6578 23.5067 85.1806 24.1282 84.7903 24.7978C84.84 24.3942 84.9028 23.9962 84.9871 23.6047C85.2426 22.5943 85.5749 21.6135 86.0501 20.7076C86.4127 20.0408 86.7965 19.4025 87.2511 18.8229C87.806 18.1181 88.3826 17.4565 89.0487 16.8999C89.696 16.3692 90.3356 15.8664 91.0273 15.451L96.8935 18.4745ZM91.0274 15.4509C92.5305 14.5488 94.2276 13.9524 95.9783 13.6049L91.0274 15.4509Z" stroke="#A7D397"/>
<defs>
<clipPath id="clip0_3957_10803">
<rect width="60" height="60" fill="white" transform="translate(19.9913 20)"/>
</clipPath>
</defs>
</svg>
