<svg width="100" height="100" viewBox="0 0 100 100" fill="none" xmlns="http://www.w3.org/2000/svg">
<mask id="path-1-inside-1_3957_10652" fill="white">
<path d="M100 50C100 56.5661 98.7067 63.0679 96.194 69.1342C93.6812 75.2005 89.9983 80.7124 85.3553 85.3553C80.7124 89.9983 75.2004 93.6812 69.1342 96.194C63.0679 98.7067 56.5661 100 50 100C43.4339 100 36.9321 98.7067 30.8658 96.194C24.7995 93.6812 19.2876 89.9983 14.6447 85.3553C10.0017 80.7124 6.31876 75.2004 3.80602 69.1342C1.29329 63.0679 -5.74026e-07 56.5661 0 50L50 50H100Z"/>
</mask>
<path d="M100 50C100 56.5661 98.7067 63.0679 96.194 69.1342C93.6812 75.2005 89.9983 80.7124 85.3553 85.3553C80.7124 89.9983 75.2004 93.6812 69.1342 96.194C63.0679 98.7067 56.5661 100 50 100C43.4339 100 36.9321 98.7067 30.8658 96.194C24.7995 93.6812 19.2876 89.9983 14.6447 85.3553C10.0017 80.7124 6.31876 75.2004 3.80602 69.1342C1.29329 63.0679 -5.74026e-07 56.5661 0 50L50 50H100Z" fill="white" stroke="#183D3D" stroke-width="2" stroke-dasharray="6 6" mask="url(#path-1-inside-1_3957_10652)"/>
<g clip-path="url(#clip0_3957_10652)">
<rect width="60" height="60" transform="translate(20 20)" fill="white"/>
<path d="M55.2218 20H56.6093C58.5664 20.143 60.5058 20.6539 62.2226 21.6195C65.2789 23.2941 67.6132 26.2414 68.5144 29.6117C69.3277 32.5883 69.0324 35.8531 67.6824 38.6281C66.275 41.5625 63.7296 43.9285 60.6968 45.1098C57.9523 46.1938 54.8363 46.3051 52.0226 45.4145C48.8632 44.4348 46.1187 42.2 44.5168 39.3066C42.9136 36.4602 42.4683 32.9973 43.2746 29.8344C44.0656 26.6516 46.1281 23.8168 48.8937 22.059C50.7781 20.8344 52.9859 20.1605 55.2218 20ZM54.7039 23.668C51.8023 24.023 49.1339 25.8254 47.7007 28.3684C46.5371 30.3887 46.1832 32.8508 46.7128 35.1195C47.1453 37.0098 48.1906 38.75 49.6414 40.0344C51.1285 41.3598 53.0433 42.2 55.0285 42.3805C57.2398 42.5961 59.5203 42.0008 61.3378 40.7211C63.0617 39.5211 64.3707 37.7316 64.973 35.7172C65.5941 33.6816 65.4898 31.4328 64.68 29.4641C63.8843 27.5023 62.4007 25.8324 60.555 24.7988C58.7937 23.8016 56.7078 23.4078 54.7039 23.668Z" fill="#183D3D"/>
<path d="M23.1617 25.7445C23.3926 24.9992 24.1414 24.459 24.923 24.4859C27.2293 24.4848 29.5355 24.4801 31.8418 24.4883C32.6105 24.473 33.3687 24.991 33.5773 25.741C34.1621 27.8996 34.6777 30.0769 35.2695 32.2344C36.7109 32.4301 38.1488 32.6539 39.5855 32.8766C40.5242 33.0031 41.232 33.9769 41.0715 34.9074C40.9566 35.8297 40.0285 36.5562 39.1039 36.432C38.1207 36.3055 37.141 36.1437 36.1578 36.0101C38.0434 44.1769 39.9312 52.3437 41.8238 60.5082C51.9336 60.507 62.0434 60.5082 72.1519 60.5082C72.5258 60.5609 72.8129 60.2047 72.7625 59.8484C72.8738 53.907 72.998 47.9668 73.1047 42.0254C73.1422 41.7254 72.9113 41.4676 72.6195 41.4371C71.7558 41.2894 71.082 40.4516 71.1441 39.575C71.1769 38.6445 72.0348 37.8465 72.9641 37.8816C74.6644 37.993 76.1785 39.3137 76.5734 40.9625C76.7316 41.5414 76.7 42.1449 76.6883 42.7379C76.5723 48.5223 76.4668 54.3055 76.3473 60.0887C76.3156 61.6355 75.3265 63.1062 73.9156 63.7332C73.3273 64.0074 72.6734 64.1117 72.0289 64.1023C61.6906 64.1 51.3523 64.1047 41.0141 64.1C39.1976 65.4898 37.3836 66.8832 35.573 68.2812C35.3328 68.4371 35.2719 68.7828 35.443 69.0125C35.5707 69.2223 35.8344 69.2281 36.0512 69.2281C49.0625 69.2246 62.0738 69.2258 75.0851 69.2281C76.0391 69.1883 76.9203 70.0238 76.9191 70.9812C76.9648 71.9269 76.1387 72.7988 75.193 72.8141C73.7223 72.8293 72.2516 72.8152 70.7808 72.8199C71.3445 74.3844 71.1289 76.2066 70.1949 77.5848C69.2363 79.0461 67.5336 79.966 65.7898 80H65.3961C63.7543 79.9004 62.1676 79.0531 61.2266 77.6961C60.2293 76.3051 59.9809 74.4277 60.5621 72.8211C57.2996 72.8187 54.0359 72.8199 50.7734 72.8211C51.3406 74.3926 51.118 76.223 50.1758 77.6047C49.2289 79.0332 47.573 79.9355 45.8644 80H45.4648C43.7305 79.9297 42.0488 79.0027 41.1101 77.5344C40.2019 76.1644 39.9957 74.3644 40.557 72.8211C38.9762 72.8164 37.3965 72.827 35.8168 72.8164C34.9215 72.8117 34.0285 72.5047 33.3394 71.9293C31.8406 70.7187 31.3226 68.4219 32.2508 66.7156C32.5976 66.0336 33.1871 65.5285 33.7965 65.0867C35.3246 63.909 36.8539 62.7324 38.382 61.5547C35.7594 50.3996 33.1004 39.2527 30.4871 28.0953C28.9051 28.0555 27.3195 28.0894 25.7363 28.0777C25.1504 28.0637 24.5129 28.1644 23.9879 27.8387C23.273 27.4414 22.8957 26.5262 23.1617 25.7445ZM45.0277 72.9254C44.2965 73.1914 43.7644 73.9531 43.8394 74.7394C43.898 75.7379 44.907 76.5371 45.8926 76.3848C46.8711 76.2875 47.6598 75.2902 47.4699 74.3129C47.3059 73.2277 46.0449 72.5082 45.0277 72.9254ZM65.048 72.9195C64.3098 73.182 63.7707 73.9496 63.848 74.7406C63.9055 75.7051 64.8523 76.4914 65.8098 76.3941C66.8012 76.3449 67.6449 75.3699 67.4855 74.375C67.3648 73.2652 66.084 72.5035 65.048 72.9195Z" fill="#183D3D"/>
<path d="M59.1571 28.4492C59.7969 27.7695 60.9794 27.7473 61.6497 28.3941C62.3645 29.0246 62.4114 30.2363 61.7528 30.923C59.7032 33.1098 57.6454 35.2883 55.5946 37.4727C54.8739 38.3527 53.2954 38.3621 52.6157 37.4258C51.7063 36.343 50.7946 35.2613 49.8829 34.1797C49.4094 33.6418 49.2981 32.8133 49.638 32.1793C50.0153 31.3883 51.0219 31.0027 51.8364 31.3109C52.2126 31.4305 52.5079 31.7059 52.7493 32.0082C53.2286 32.5801 53.7102 33.1508 54.193 33.7191C55.8489 31.9648 57.4989 30.2023 59.1571 28.4492Z" fill="#183D3D"/>
</g>
<path d="M66.331 12.5789L66.331 12.5789L66.3318 12.576C66.4941 11.9317 66.6914 11.2939 66.912 10.6608C67.8998 11.0652 68.8564 11.4694 69.7527 11.9891L69.753 11.9893C70.7107 12.5435 71.5937 13.2349 72.3909 14.022L72.3927 14.0238C73.3905 14.9987 74.1365 16.2375 74.6522 17.5807C74.9959 18.5187 75.1556 19.5349 75.1789 20.5647L75.1789 20.5647L75.179 20.5691C75.2046 21.3832 75.117 22.197 75.025 23.0513C75.0159 23.1357 75.0067 23.2206 74.9977 23.3059C74.8983 24.239 74.8076 25.2182 74.9007 26.21L74.9006 26.21L74.9019 26.2214C74.9118 26.3063 74.9205 26.4036 74.9297 26.5082C74.9416 26.642 74.9546 26.7877 74.9726 26.9347C74.6919 26.843 74.4113 26.7541 74.1332 26.6659C74.0075 26.626 73.8824 26.5863 73.758 26.5466C73.0998 26.3366 72.4556 26.1243 71.8276 25.8765C71.0514 25.5673 70.3164 25.1943 69.6703 24.7072L69.6703 24.7072L69.666 24.704C68.9442 24.1718 68.2816 23.5931 67.7618 22.9046L67.7618 22.9046L67.7603 22.9026C67.2641 22.2521 66.8986 21.4972 66.5242 20.6951C66.2133 20.0239 66.0123 19.2956 65.9237 18.5482L65.9238 18.5482L65.9226 18.5396C65.6543 16.5687 65.8264 14.5319 66.331 12.5789ZM68.495 17.5078L68.4989 17.5194L68.5035 17.5308C68.9151 18.5628 69.38 19.5747 69.8386 20.5728C69.9927 20.9081 70.146 21.242 70.2964 21.5745C70.4698 21.9718 70.9374 22.417 71.5516 22.2906C71.9102 22.2262 72.1679 21.9766 72.3018 21.712C72.4358 21.4472 72.4834 21.0937 72.329 20.7679C72.1006 20.25 71.875 19.7224 71.648 19.1918C71.2638 18.2935 70.8759 17.3864 70.4645 16.5028C70.3436 16.2258 70.0811 15.8683 69.6292 15.7857C69.0146 15.667 68.4075 16.1387 68.3443 16.7535C68.3242 16.9407 68.3591 17.1039 68.3956 17.2256C68.4157 17.2929 68.4535 17.395 68.4768 17.458C68.4853 17.4811 68.4919 17.499 68.495 17.5078Z" stroke="#A7D397"/>
<path d="M94.6325 15.4778L94.6313 15.4776C92.6964 15.1681 90.7015 15.2231 88.7756 15.6049L94.6325 15.4778ZM94.6325 15.4778C94.9034 15.5205 95.1703 15.5756 95.4506 15.6334C95.5181 15.6474 95.5864 15.6615 95.6557 15.6756C95.8518 15.7156 96.054 15.7553 96.2607 15.7892C96.081 17.5052 95.7983 19.1923 95.2165 20.7848L95.2157 20.7871M94.6325 15.4778L95.2157 20.7871M95.2157 20.7871C94.94 21.5532 94.5451 22.2814 94.1186 23.0285C93.4714 24.1582 92.716 25.2207 91.8034 26.1348L91.8033 26.135M95.2157 20.7871L91.8033 26.135M91.8033 26.135C90.6436 27.2976 89.2826 28.2736 87.7885 28.9912L87.7874 28.9917M91.8033 26.135L87.7874 28.9917M87.7874 28.9917C86.3095 29.7059 84.7005 30.166 83.0559 30.3861L83.0559 30.3861M87.7874 28.9917L83.0559 30.3861M83.0559 30.3861L83.0502 30.3869M83.0559 30.3861L83.0502 30.3869M83.0502 30.3869C82.2325 30.5059 81.3944 30.5083 80.528 30.4939C80.4778 30.4919 80.428 30.4901 80.3787 30.4882C79.9326 30.4716 79.5222 30.4563 79.1318 30.3913C79.1692 30.1044 79.259 29.8032 79.3667 29.4641C79.5786 28.8054 79.9002 28.1842 80.3338 27.6504C80.3924 27.5793 80.4544 27.4979 80.5082 27.4273C80.533 27.3947 80.5561 27.3643 80.5763 27.3384C80.6495 27.2444 80.7124 27.1703 80.7779 27.1088L80.7779 27.1088L80.7803 27.1066C80.9019 26.991 81.0047 26.886 81.0996 26.7891C81.2801 26.6048 81.432 26.4498 81.6299 26.3068L81.6378 26.301L81.6455 26.295C82.403 25.701 83.2665 25.2343 84.1879 24.9202C84.6059 24.7796 85.0285 24.6529 85.4604 24.5235C85.533 24.5017 85.6058 24.4799 85.6789 24.4579C86.1826 24.3065 86.6968 24.1484 87.2048 23.9626C88.9822 23.3355 90.5965 22.2949 91.8946 20.9664L91.8946 20.9664L91.8988 20.962C91.9194 20.9404 91.9402 20.9186 91.9615 20.8964C92.286 20.5572 92.6835 20.1418 92.9239 19.623L93.559 18.253L92.2318 18.9732C92.1253 19.031 91.9831 19.1096 91.85 19.2169L91.8499 19.2168L91.8411 19.2243C91.2298 19.7414 90.4872 20.1104 89.6906 20.4745M83.0502 30.3869L89.6906 20.4745M89.6906 20.4745C88.8369 20.8491 87.9887 21.1865 87.1124 21.4054L87.1124 21.4054L87.1095 21.4061C86.6387 21.5267 86.1644 21.6273 85.6782 21.7304C85.5517 21.7573 85.4244 21.7843 85.2962 21.8118C84.6815 21.9439 84.0525 22.0876 83.4321 22.2828L83.4321 22.2828L83.4293 22.2837C81.7742 22.8152 80.2241 23.7152 79.0048 24.9528C78.4549 25.5067 77.9777 26.1283 77.5874 26.7978C77.6372 26.3942 77.6999 25.9962 77.7842 25.6047C78.0398 24.5943 78.372 23.6135 78.8472 22.7076C79.2098 22.0408 79.5936 21.4026 80.0483 20.8229C80.6031 20.1182 81.1797 19.4565 81.8458 18.8999C82.4932 18.3692 83.1328 17.8664 83.8244 17.451L89.6906 20.4745ZM83.8246 17.4509C85.3277 16.5489 87.0247 15.9525 88.7755 15.6049L83.8246 17.4509Z" stroke="#A7D397"/>
<defs>
<clipPath id="clip0_3957_10652">
<rect width="60" height="60" fill="white" transform="translate(20 20)"/>
</clipPath>
</defs>
</svg>
