<svg width="100" height="100" viewBox="0 0 100 100" fill="none" xmlns="http://www.w3.org/2000/svg">
<mask id="path-1-inside-1_3957_10787" fill="white">
<path d="M100 50C100 56.5661 98.7067 63.0679 96.194 69.1342C93.6812 75.2005 89.9983 80.7124 85.3553 85.3553C80.7124 89.9983 75.2004 93.6812 69.1342 96.194C63.0679 98.7067 56.5661 100 50 100C43.4339 100 36.9321 98.7067 30.8658 96.194C24.7995 93.6812 19.2876 89.9983 14.6447 85.3553C10.0017 80.7124 6.31876 75.2004 3.80602 69.1342C1.29329 63.0679 -5.74026e-07 56.5661 0 50L50 50H100Z"/>
</mask>
<path d="M100 50C100 56.5661 98.7067 63.0679 96.194 69.1342C93.6812 75.2005 89.9983 80.7124 85.3553 85.3553C80.7124 89.9983 75.2004 93.6812 69.1342 96.194C63.0679 98.7067 56.5661 100 50 100C43.4339 100 36.9321 98.7067 30.8658 96.194C24.7995 93.6812 19.2876 89.9983 14.6447 85.3553C10.0017 80.7124 6.31876 75.2004 3.80602 69.1342C1.29329 63.0679 -5.74026e-07 56.5661 0 50L50 50H100Z" fill="white" stroke="#183D3D" stroke-width="2" stroke-dasharray="6 6" mask="url(#path-1-inside-1_3957_10787)"/>
<rect width="60" height="60" transform="translate(20 20)" fill="white"/>
<path d="M58.7749 26.915C59.0069 26.7874 59.2326 26.6355 59.491 26.5648C59.8454 26.4963 60.1724 26.7789 60.2283 27.1207C60.8516 29.5296 61.4654 31.9406 62.0919 34.3484C62.1362 34.5573 62.2069 34.7882 62.0993 34.9907C61.9558 35.3071 61.5466 35.4369 61.2397 35.2818C60.5394 34.9949 59.8507 34.6807 59.1535 34.3874C57.3289 36.6846 55.3008 38.8319 52.99 40.6449C49.8628 43.1308 46.2442 44.9944 42.4051 46.0987C39.0955 47.069 35.6425 47.4867 32.2 47.5173C36.3449 46.0333 40.4033 44.2572 44.1664 41.959C46.9424 40.2526 49.5749 38.2645 51.7612 35.8355C52.7252 34.7471 53.6038 33.5785 54.3125 32.3065C53.7008 32.0302 53.0691 31.7971 52.4689 31.4997C52.066 31.2898 52.0629 30.6401 52.4668 30.4292C54.5625 29.2458 56.6761 28.0931 58.7749 26.915Z" fill="#183D3D"/>
<path d="M24.3995 28.5086C24.8805 28.0994 25.6514 28.1121 26.1229 28.5297C26.4488 28.7997 26.6091 29.2269 26.5975 29.6445C26.5996 43.3439 26.5964 57.0432 26.5985 70.7425C42.6245 70.7425 58.6516 70.7404 74.6775 70.7436C75.4053 70.6972 76.094 71.311 76.0982 72.0461C76.1488 72.814 75.4422 73.4974 74.6786 73.4415C58.4343 73.4436 42.19 73.4404 25.9457 73.4436C25.4532 73.4331 24.9016 73.5153 24.4797 73.2C24.0683 72.9268 23.869 72.4258 23.8954 71.9428C23.8975 57.8437 23.8954 43.7436 23.8964 29.6445C23.8848 29.2142 24.0546 28.7755 24.3995 28.5086Z" fill="#183D3D"/>
<path d="M68.2797 33.7936C68.8419 33.067 70.0632 33.0764 70.6201 33.8052C72.1842 35.7902 73.7462 37.7772 75.2987 39.7705C75.6763 40.204 75.3462 40.9676 74.7735 40.9898C74.1143 41.0182 73.453 40.9908 72.7928 41.0003C72.7917 49.383 72.7949 57.7656 72.7917 66.1493C72.8328 66.5143 72.5386 66.8813 72.1599 66.8634C70.3617 66.8728 68.5635 66.8686 66.7652 66.8655C66.3697 66.8992 66.047 66.5248 66.0965 66.1398C66.0944 57.7603 66.0976 49.3798 66.0944 40.9993C65.411 40.9855 64.7254 41.0298 64.0441 40.9813C63.502 40.9043 63.2299 40.1724 63.5959 39.7621C65.1537 37.7709 66.7114 35.7775 68.2797 33.7936Z" fill="#183D3D"/>
<path d="M54.5658 46.0164C54.7198 45.9395 54.8991 45.9563 55.0678 45.9468C56.788 45.9553 58.5093 45.9458 60.2305 45.9511C60.6071 45.911 60.9446 46.2474 60.915 46.6229C60.9224 53.0945 60.9129 59.566 60.9192 66.0376C60.9224 66.277 60.9034 66.5523 60.6999 66.7126C60.5174 66.8877 60.2506 66.8645 60.0185 66.8718C58.2941 66.8592 56.5687 66.8782 54.8442 66.8634C54.4656 66.8771 54.1787 66.508 54.2209 66.1452C54.2188 59.6704 54.223 53.1957 54.2199 46.722C54.1998 46.4457 54.299 46.1409 54.5658 46.0164Z" fill="#183D3D"/>
<path d="M42.8713 50.9091C44.6886 50.8712 46.5079 50.9017 48.3262 50.8944C48.709 50.8511 49.0718 51.177 49.0402 51.5683C49.0465 56.4241 49.0423 61.2809 49.0423 66.1367C49.0845 66.4995 48.804 66.876 48.4232 66.8623C46.6271 66.875 44.8299 66.8655 43.0338 66.8665C42.634 66.9066 42.2976 66.5364 42.3461 66.1441C42.3472 61.2883 42.344 56.4336 42.3482 51.5778C42.3261 51.2646 42.5507 50.946 42.8713 50.9091Z" fill="#183D3D"/>
<path d="M30.9544 55.8641C32.6946 55.8113 34.4391 55.8619 36.1814 55.8398C36.4388 55.8493 36.7383 55.8039 36.9461 55.9948C37.1444 56.1478 37.1728 56.4114 37.1697 56.6445C37.1655 59.8096 37.1707 62.9758 37.1676 66.1409C37.2129 66.5206 36.9007 66.894 36.5094 66.8655C34.784 66.8739 33.0574 66.8623 31.332 66.8708C31.1042 66.8676 30.8405 66.8761 30.6696 66.6957C30.4766 66.5322 30.4703 66.2643 30.4692 66.0334C30.4756 62.8682 30.4671 59.7031 30.4735 56.538C30.4492 56.2353 30.6475 55.921 30.9544 55.8641Z" fill="#183D3D"/>
<path d="M66.331 12.5788L66.331 12.5789L66.3318 12.5759C66.4941 11.9316 66.6914 11.2939 66.912 10.6608C67.8998 11.0651 68.8564 11.4694 69.7527 11.989L69.753 11.9892C70.7107 12.5435 71.5937 13.2348 72.3909 14.0219L72.3927 14.0237C73.3905 14.9986 74.1365 16.2375 74.6522 17.5807C74.9959 18.5187 75.1556 19.5349 75.1789 20.5646L75.1789 20.5646L75.179 20.5691C75.2046 21.3832 75.117 22.197 75.025 23.0512C75.0159 23.1357 75.0067 23.2205 74.9977 23.3058C74.8983 24.239 74.8076 25.2181 74.9007 26.21L74.9006 26.21L74.9019 26.2213C74.9118 26.3062 74.9205 26.4036 74.9297 26.5082C74.9416 26.642 74.9546 26.7877 74.9726 26.9347C74.6919 26.843 74.4113 26.754 74.1332 26.6658C74.0075 26.626 73.8824 26.5863 73.758 26.5466C73.0998 26.3366 72.4556 26.1243 71.8276 25.8765C71.0514 25.5672 70.3164 25.1943 69.6703 24.7071L69.6703 24.7071L69.666 24.7039C68.9442 24.1718 68.2816 23.5931 67.7618 22.9046L67.7618 22.9046L67.7603 22.9026C67.2641 22.2521 66.8986 21.4972 66.5242 20.6951C66.2133 20.0238 66.0123 19.2956 65.9237 18.5482L65.9238 18.5482L65.9226 18.5396C65.6543 16.5686 65.8264 14.5319 66.331 12.5788ZM68.495 17.5078L68.4989 17.5194L68.5035 17.5307C68.9151 18.5627 69.38 19.5747 69.8386 20.5727C69.9927 20.9081 70.146 21.2419 70.2964 21.5744C70.4698 21.9717 70.9374 22.417 71.5516 22.2905C71.9102 22.2261 72.1679 21.9766 72.3018 21.712C72.4358 21.4472 72.4834 21.0937 72.329 20.7678C72.1006 20.2499 71.875 19.7224 71.648 19.1918C71.2638 18.2934 70.8759 17.3864 70.4645 16.5028C70.3436 16.2258 70.0811 15.8683 69.6292 15.7857C69.0146 15.667 68.4075 16.1387 68.3443 16.7535C68.3242 16.9407 68.3591 17.1038 68.3956 17.2256C68.4157 17.2929 68.4535 17.395 68.4768 17.4579C68.4853 17.4811 68.4919 17.4989 68.495 17.5078Z" stroke="#A7D397"/>
<path d="M94.6325 15.4778L94.6313 15.4776C92.6964 15.168 90.7015 15.2231 88.7756 15.6049L94.6325 15.4778ZM94.6325 15.4778C94.9034 15.5204 95.1703 15.5756 95.4506 15.6334C95.5181 15.6474 95.5864 15.6615 95.6557 15.6756C95.8518 15.7156 96.054 15.7552 96.2607 15.7892C96.081 17.5052 95.7983 19.1923 95.2165 20.7848L95.2157 20.7871M94.6325 15.4778L95.2157 20.7871M95.2157 20.7871C94.94 21.5532 94.5451 22.2814 94.1186 23.0285C93.4714 24.1582 92.716 25.2206 91.8034 26.1348L91.8033 26.1349M95.2157 20.7871L91.8033 26.1349M91.8033 26.1349C90.6436 27.2976 89.2826 28.2736 87.7885 28.9912L87.7874 28.9917M91.8033 26.1349L87.7874 28.9917M87.7874 28.9917C86.3095 29.7059 84.7005 30.166 83.0559 30.3861L83.0559 30.3861M87.7874 28.9917L83.0559 30.3861M83.0559 30.3861L83.0502 30.3869M83.0559 30.3861L83.0502 30.3869M83.0502 30.3869C82.2325 30.5059 81.3944 30.5083 80.528 30.4938C80.4778 30.4919 80.428 30.4901 80.3787 30.4882C79.9326 30.4716 79.5222 30.4563 79.1318 30.3913C79.1692 30.1044 79.259 29.8032 79.3667 29.4641C79.5786 28.8054 79.9002 28.1842 80.3338 27.6504C80.3924 27.5793 80.4544 27.4979 80.5082 27.4273C80.533 27.3946 80.5561 27.3643 80.5763 27.3384C80.6495 27.2444 80.7124 27.1703 80.7779 27.1088L80.7779 27.1088L80.7803 27.1065C80.9019 26.991 81.0047 26.886 81.0996 26.7891C81.2801 26.6048 81.432 26.4497 81.6299 26.3067L81.6378 26.301L81.6455 26.2949C82.403 25.701 83.2665 25.2342 84.1879 24.9202C84.6059 24.7795 85.0285 24.6529 85.4604 24.5235C85.533 24.5017 85.6058 24.4799 85.6789 24.4579C86.1826 24.3065 86.6968 24.1484 87.2048 23.9626C88.9822 23.3355 90.5965 22.2948 91.8946 20.9664L91.8946 20.9664L91.8988 20.9619C91.9194 20.9404 91.9402 20.9186 91.9615 20.8964C92.286 20.5572 92.6835 20.1418 92.9239 19.6229L93.559 18.253L92.2318 18.9732C92.1253 19.031 91.9831 19.1096 91.85 19.2169L91.8499 19.2168L91.8411 19.2243C91.2298 19.7414 90.4872 20.1104 89.6906 20.4745M83.0502 30.3869L89.6906 20.4745M89.6906 20.4745C88.8369 20.8491 87.9887 21.1865 87.1124 21.4054L87.1124 21.4054L87.1095 21.4061C86.6387 21.5267 86.1644 21.6273 85.6782 21.7304C85.5517 21.7572 85.4244 21.7842 85.2962 21.8118C84.6815 21.9439 84.0525 22.0876 83.4321 22.2828L83.4321 22.2828L83.4293 22.2837C81.7742 22.8152 80.2241 23.7152 79.0048 24.9528C78.4549 25.5067 77.9777 26.1282 77.5874 26.7978C77.6372 26.3942 77.6999 25.9962 77.7842 25.6047C78.0398 24.5943 78.372 23.6135 78.8472 22.7076C79.2098 22.0408 79.5936 21.4025 80.0483 20.8229C80.6031 20.1181 81.1797 19.4565 81.8458 18.8999C82.4932 18.3692 83.1328 17.8664 83.8244 17.451L89.6906 20.4745ZM83.8246 17.4509C85.3277 16.5488 87.0247 15.9524 88.7755 15.6049L83.8246 17.4509Z" stroke="#A7D397"/>
</svg>
