<svg width="101" height="100" viewBox="0 0 101 100" fill="none" xmlns="http://www.w3.org/2000/svg">
<mask id="path-1-inside-1_3946_59469" fill="white">
<path d="M100.5 50C100.5 56.5661 99.2067 63.0679 96.694 69.1342C94.1812 75.2005 90.4983 80.7124 85.8553 85.3553C81.2124 89.9983 75.7004 93.6812 69.6342 96.194C63.5679 98.7067 57.0661 100 50.5 100C43.9339 100 37.4321 98.7067 31.3658 96.194C25.2995 93.6812 19.7876 89.9983 15.1447 85.3553C10.5017 80.7124 6.81876 75.2004 4.30602 69.1342C1.79329 63.0679 0.499999 56.5661 0.5 50L50.5 50H100.5Z"/>
</mask>
<path d="M100.5 50C100.5 56.5661 99.2067 63.0679 96.694 69.1342C94.1812 75.2005 90.4983 80.7124 85.8553 85.3553C81.2124 89.9983 75.7004 93.6812 69.6342 96.194C63.5679 98.7067 57.0661 100 50.5 100C43.9339 100 37.4321 98.7067 31.3658 96.194C25.2995 93.6812 19.7876 89.9983 15.1447 85.3553C10.5017 80.7124 6.81876 75.2004 4.30602 69.1342C1.79329 63.0679 0.499999 56.5661 0.5 50L50.5 50H100.5Z" fill="white" stroke="#183D3D" stroke-width="2" stroke-dasharray="6 6" mask="url(#path-1-inside-1_3946_59469)"/>
<rect width="59.0079" height="59.0151" transform="translate(21.4961 20.4925)" fill="white"/>
<path d="M50.099 22.5104C50.6709 22.5033 51.2627 22.433 51.8123 22.6299C52.7052 22.9217 53.3837 23.7631 53.4845 24.6971C53.6123 25.6533 53.1189 26.6506 52.288 27.1369C51.8369 27.4217 51.2955 27.5037 50.7705 27.5025C46.5669 27.5295 42.3822 28.7775 38.849 31.0545C35.133 33.4334 32.1423 36.9291 30.381 40.9744C28.7849 44.599 28.1966 48.6502 28.6443 52.5818C29.0685 56.3963 30.5005 60.0912 32.7564 63.1967C35.1494 66.5096 38.4646 69.1533 42.2357 70.7342C47.9345 73.1611 54.6412 73.0885 60.2826 70.5244C64.356 68.694 67.8541 65.6143 70.1849 61.8057C72.3423 58.3135 73.4955 54.2178 73.5048 50.1139C73.4896 49.4025 73.758 48.6854 74.2806 48.1955C74.9955 47.49 76.1521 47.2967 77.058 47.7315C77.89 48.1053 78.4736 48.969 78.5029 49.8818C78.558 55.9615 76.4896 62.0318 72.7478 66.8236C70.1966 70.126 66.8826 72.8354 63.1408 74.6822C58.2623 77.0986 52.6502 78.0092 47.2595 77.2428C41.6076 76.4846 36.2322 73.8819 32.1037 69.9537C28.8001 66.8342 26.2806 62.8861 24.8662 58.5678C23.4529 54.2811 23.1224 49.6416 23.924 45.199C24.7759 40.3475 26.9861 35.749 30.2158 32.033C33.1584 28.624 36.947 25.9498 41.1494 24.3315C44.0029 23.2299 47.0427 22.6135 50.099 22.5104Z" fill="#183D3D"/>
<path d="M60.0787 24.417C61.3982 24.1615 62.8396 25.1014 63.074 26.4397C63.3365 27.6151 62.6029 28.8971 61.4638 29.2803C60.0752 29.8123 58.3513 28.8643 58.0771 27.3971C57.7596 26.0705 58.7334 24.6268 60.0787 24.417Z" fill="#183D3D"/>
<path d="M68.0205 29.8662C69.2627 29.5123 70.6267 30.3092 71.0603 31.4951C71.3674 32.3002 71.2139 33.2588 70.6701 33.9268C70.151 34.5877 69.2814 34.9475 68.4471 34.849C67.1955 34.726 66.1326 33.5658 66.1502 32.3025C66.1232 31.1881 66.9435 30.1369 68.0205 29.8662Z" fill="#183D3D"/>
<path d="M50.1822 32.6377C51.0635 32.3213 52.1123 32.5592 52.7685 33.2295C53.2701 33.7193 53.5268 34.4248 53.5057 35.1221C53.5033 39.567 53.508 44.0108 53.5033 48.4557C56.1025 49.7588 58.7064 51.0537 61.3068 52.3533C61.881 52.6486 62.5244 52.8842 62.9357 53.4104C63.6506 54.2447 63.6963 55.5537 63.0541 56.4432C62.3885 57.4322 60.9764 57.799 59.9135 57.2553C56.6838 55.6463 53.4588 54.0268 50.2291 52.4166C49.2025 52.024 48.4314 51.008 48.4994 49.8842C48.4994 45.1568 48.5006 40.4307 48.4994 35.7045C48.5018 35.1959 48.4619 34.6697 48.6377 34.1834C48.8803 33.4674 49.4662 32.8803 50.1822 32.6377Z" fill="#183D3D"/>
<path d="M73.3126 37.999C74.0602 37.7506 74.9204 37.8889 75.5532 38.3553C76.145 38.7783 76.513 39.4674 76.6138 40.1799C76.7251 41.0576 76.329 41.9764 75.6106 42.4943C74.9052 43.0229 73.9138 43.133 73.111 42.7674C71.9227 42.2541 71.2642 40.76 71.72 39.5412C71.9731 38.8158 72.5802 38.2299 73.3126 37.999Z" fill="#183D3D"/>
<path d="M66.331 12.5789L66.331 12.5789L66.3318 12.576C66.4941 11.9317 66.6914 11.2939 66.912 10.6608C67.8998 11.0652 68.8564 11.4694 69.7527 11.9891L69.753 11.9893C70.7107 12.5435 71.5937 13.2349 72.3909 14.022L72.3927 14.0238C73.3905 14.9987 74.1365 16.2375 74.6522 17.5807C74.9959 18.5187 75.1556 19.5349 75.1789 20.5647L75.1789 20.5647L75.179 20.5691C75.2046 21.3832 75.117 22.197 75.025 23.0513C75.0159 23.1357 75.0067 23.2206 74.9977 23.3059C74.8983 24.239 74.8076 25.2182 74.9007 26.21L74.9006 26.21L74.9019 26.2214C74.9118 26.3063 74.9205 26.4036 74.9297 26.5082C74.9416 26.642 74.9546 26.7877 74.9726 26.9347C74.6919 26.843 74.4113 26.7541 74.1332 26.6659C74.0075 26.626 73.8824 26.5863 73.758 26.5466C73.0998 26.3366 72.4556 26.1243 71.8276 25.8765C71.0514 25.5673 70.3164 25.1943 69.6703 24.7072L69.6703 24.7072L69.666 24.704C68.9442 24.1718 68.2816 23.5931 67.7618 22.9046L67.7618 22.9046L67.7603 22.9026C67.2641 22.2521 66.8986 21.4972 66.5242 20.6951C66.2133 20.0239 66.0123 19.2956 65.9237 18.5482L65.9238 18.5482L65.9226 18.5396C65.6543 16.5687 65.8264 14.5319 66.331 12.5789ZM68.495 17.5078L68.4989 17.5194L68.5035 17.5308C68.9151 18.5628 69.38 19.5747 69.8386 20.5728C69.9927 20.9081 70.146 21.242 70.2964 21.5745C70.4698 21.9718 70.9374 22.417 71.5516 22.2906C71.9102 22.2262 72.1679 21.9766 72.3018 21.712C72.4358 21.4472 72.4834 21.0937 72.329 20.7679C72.1006 20.25 71.875 19.7224 71.648 19.1918C71.2638 18.2935 70.8759 17.3864 70.4645 16.5028C70.3436 16.2258 70.0811 15.8683 69.6292 15.7857C69.0146 15.667 68.4075 16.1387 68.3443 16.7535C68.3242 16.9407 68.3591 17.1039 68.3956 17.2256C68.4157 17.2929 68.4535 17.395 68.4768 17.458C68.4853 17.4811 68.4919 17.499 68.495 17.5078Z" stroke="#A7D397"/>
<path d="M94.6326 15.4778L94.6314 15.4776C92.6965 15.168 90.7017 15.2231 88.7757 15.6049L94.6326 15.4778ZM94.6326 15.4778C94.9035 15.5204 95.1704 15.5756 95.4507 15.6334C95.5182 15.6474 95.5865 15.6615 95.6558 15.6756C95.852 15.7156 96.0541 15.7552 96.2608 15.7892C96.0812 17.5052 95.7985 19.1923 95.2167 20.7848L95.2159 20.7871M94.6326 15.4778L95.2159 20.7871M95.2159 20.7871C94.9401 21.5532 94.5452 22.2814 94.1187 23.0285C93.4715 24.1582 92.7161 25.2206 91.8036 26.1348L91.8034 26.1349M95.2159 20.7871L91.8034 26.1349M91.8034 26.1349C90.6438 27.2976 89.2827 28.2736 87.7886 28.9912L87.7875 28.9917M91.8034 26.1349L87.7875 28.9917M87.7875 28.9917C86.3096 29.7059 84.7006 30.166 83.056 30.3861L83.056 30.3861M87.7875 28.9917L83.056 30.3861M83.056 30.3861L83.0503 30.3869M83.056 30.3861L83.0503 30.3869M83.0503 30.3869C82.2327 30.5059 81.3945 30.5083 80.5281 30.4938C80.4779 30.4919 80.4282 30.4901 80.3788 30.4882C79.9327 30.4716 79.5223 30.4563 79.1319 30.3913C79.1693 30.1044 79.2591 29.8032 79.3668 29.4641C79.5787 28.8054 79.9003 28.1842 80.3339 27.6504C80.3925 27.5793 80.4545 27.4979 80.5083 27.4273C80.5332 27.3946 80.5563 27.3643 80.5764 27.3384C80.6496 27.2444 80.7125 27.1703 80.778 27.1088L80.778 27.1088L80.7805 27.1065C80.902 26.991 81.0048 26.886 81.0997 26.7891C81.2802 26.6048 81.4321 26.4497 81.63 26.3067L81.6379 26.301L81.6457 26.2949C82.4032 25.701 83.2666 25.2342 84.1881 24.9202C84.606 24.7795 85.0286 24.6529 85.4606 24.5235C85.5331 24.5017 85.606 24.4799 85.6791 24.4579C86.1828 24.3065 86.6969 24.1484 87.2049 23.9626C88.9823 23.3355 90.5966 22.2948 91.8947 20.9664L91.8947 20.9664L91.899 20.9619C91.9195 20.9404 91.9404 20.9186 91.9616 20.8964C92.2861 20.5572 92.6836 20.1418 92.9241 19.6229L93.5591 18.253L92.2319 18.9732C92.1254 19.031 91.9832 19.1096 91.8501 19.2169L91.8501 19.2168L91.8412 19.2243C91.23 19.7414 90.4873 20.1104 89.6907 20.4745M83.0503 30.3869L89.6907 20.4745M89.6907 20.4745C88.837 20.8491 87.9888 21.1865 87.1125 21.4054L87.1125 21.4054L87.1096 21.4061C86.6388 21.5267 86.1645 21.6273 85.6783 21.7304C85.5518 21.7572 85.4245 21.7842 85.2963 21.8118C84.6817 21.9439 84.0527 22.0876 83.4322 22.2828L83.4322 22.2828L83.4294 22.2837C81.7743 22.8152 80.2242 23.7152 79.0049 24.9528C78.455 25.5067 77.9779 26.1282 77.5875 26.7978C77.6373 26.3942 77.7 25.9962 77.7844 25.6047C78.0399 24.5943 78.3721 23.6135 78.8473 22.7076C79.2099 22.0408 79.5938 21.4025 80.0484 20.8229C80.6032 20.1181 81.1799 19.4565 81.846 18.8999C82.4933 18.3692 83.1329 17.8664 83.8245 17.451L89.6907 20.4745ZM83.8247 17.4509C85.3278 16.5488 87.0248 15.9524 88.7756 15.6049L83.8247 17.4509Z" stroke="#A7D397"/>
</svg>
