<svg width="50" height="50" viewBox="0 0 50 50" fill="none" xmlns="http://www.w3.org/2000/svg">
<path d="M45.9622 0.160585C47.3033 0.0303744 48.6525 -0.00987197 50.0001 0.00196534C49.9136 1.95117 49.8443 3.90985 49.4903 5.83539C49.164 7.61809 48.5864 9.35423 47.8188 11.0043C46.8473 13.1216 45.3292 14.9698 43.546 16.5024C42.2596 17.5756 40.7594 18.3908 39.1834 18.9953C36.4417 20.0749 33.4129 20.299 30.7348 21.5506C30.2315 21.8 29.7029 22.0059 29.2273 22.3042C29.0259 22.4218 28.8603 22.627 28.6049 22.6183C28.5943 20.441 28.4132 18.2661 28.4834 16.0889C28.5315 14.7323 28.7004 13.3726 29.1066 12.0705C29.5226 10.6847 30.0545 9.31792 30.8564 8.09552C31.6085 6.93626 32.5906 5.94114 33.5752 4.96653C34.466 4.08978 35.5061 3.35902 36.6359 2.79715C39.513 1.30328 42.7188 0.455728 45.9622 0.160585ZM41.1086 6.89522C40.8149 6.96546 40.602 7.188 40.3768 7.36792C38.6442 8.8973 37.0233 10.5387 35.3649 12.1415C35.0248 12.4588 34.8461 12.9938 35.1047 13.4089C35.3764 13.8958 36.1521 13.9913 36.5429 13.5912C38.313 11.9119 40.137 10.2838 41.8713 8.56981C42.1258 8.33306 42.3183 7.99609 42.2587 7.64413C42.1837 7.14065 41.6208 6.76817 41.1086 6.89522Z" fill="white"/>
<path d="M17.4104 2.74811C20.0086 1.96369 22.7421 1.60147 25.4626 1.6796C27.0631 1.71432 28.6537 1.93292 30.2208 2.24069C30.804 2.37484 31.4183 2.47191 31.9314 2.7923C31.2918 3.55384 30.6637 4.32563 30.0152 5.08085C29.2558 5.08795 28.5224 4.81806 27.7711 4.72652C25.7301 4.46373 23.6516 4.50398 21.6139 4.77466C19.7035 5.05954 17.8322 5.58828 16.0596 6.33245C13.9036 7.23445 11.9434 8.53734 10.2083 10.0604C9.15028 11.0177 8.16813 12.057 7.33037 13.202C6.4143 14.4292 5.54554 15.7013 4.9109 17.0902C3.42381 20.3249 2.87563 23.9314 3.13504 27.4526C3.2835 29.4404 3.70524 31.4149 4.44837 33.2765C4.90029 34.4176 5.51209 35.4893 6.11411 36.5602C6.8344 37.8197 7.77087 38.9466 8.74731 40.0269C9.79879 41.1665 10.9514 42.2303 12.2607 43.0904C13.2102 43.7218 14.1459 44.4012 15.2234 44.8155C15.2031 45.8825 15.19 46.9502 15.168 48.0171C14.5056 47.8427 13.8995 47.5223 13.2991 47.2074C11.5747 46.2794 9.93257 45.1959 8.46588 43.9143C7.37932 43.0731 6.49914 42.0227 5.60917 40.996C1.53864 36.2256 -0.433814 29.8808 0.0801007 23.7285C0.44963 19.0552 2.32419 14.5215 5.3155 10.8409C8.38186 7.04663 12.6531 4.17411 17.4104 2.74811Z" fill="white"/>
<path d="M35.9229 25.0369C39.0357 24.4198 42.2644 24.3299 45.4017 24.8318C46.5038 25.0054 47.5822 25.3076 48.6949 25.4205C48.4143 28.3972 47.9689 31.3881 46.9353 34.2172C46.4769 35.4909 45.8259 36.6864 45.1538 37.8639C44.1121 39.6821 42.8852 41.4119 41.3899 42.9097C39.5064 44.7981 37.2949 46.3843 34.8649 47.5515C32.4609 48.7131 29.8513 49.4581 27.192 49.814C25.8363 50.0113 24.4609 50.0129 23.0938 49.99C22.0953 49.9513 21.0797 49.9355 20.1114 49.6704C20.0682 48.8749 20.3031 48.0992 20.5421 47.3471C20.9019 46.2281 21.4517 45.1619 22.2022 44.2386C22.4575 43.9293 22.6753 43.5892 22.9706 43.3122C23.4388 42.8671 23.8581 42.3699 24.3867 41.988C25.6478 40.9992 27.0835 40.2234 28.6147 39.7018C30.1809 39.1746 31.7895 38.7698 33.3419 38.2016C36.0216 37.257 38.4574 35.6874 40.4151 33.6837C40.9674 33.1045 41.5449 32.5181 41.8818 31.7913C41.7146 31.8821 41.5482 31.976 41.4005 32.0951C40.3482 32.9853 39.0904 33.6032 37.835 34.1769C36.4792 34.772 35.0965 35.3244 33.6527 35.685C31.7487 36.1727 29.791 36.4607 27.9148 37.051C25.4203 37.852 23.0979 39.2046 21.2804 41.0497C20.1327 42.2058 19.1986 43.5592 18.5363 45.0278C18.17 45.7806 17.9979 46.5998 17.6969 47.3755C17.568 47.2619 17.5729 47.0851 17.5492 46.932C17.4668 46.1744 17.5198 45.4105 17.5745 44.6529C17.6716 43.5434 17.8029 42.4331 18.0387 41.3424C18.4506 39.7105 18.9931 38.0998 19.7811 36.5988C20.3611 35.5319 20.9892 34.4839 21.7437 33.5219C22.6296 32.3966 23.5759 31.3068 24.6853 30.3803C25.7074 29.5422 26.7507 28.7199 27.8911 28.0349C30.3449 26.5624 33.1004 25.5972 35.9229 25.0369Z" fill="white"/>
<path d="M22.1522 6.93317C22.5772 6.89371 23.0658 6.92607 23.3978 7.21885C23.7461 7.55029 23.7951 8.05614 23.8155 8.5028C23.8065 10.5309 23.8163 12.5598 23.8032 14.588C23.7869 15.98 23.9574 17.3745 23.813 18.765C23.7681 19.1145 23.7241 19.4839 23.5291 19.7901C23.4378 19.9558 23.1914 19.9771 23.0429 19.8745C22.6579 19.6093 22.4116 19.2053 22.1685 18.8233C20.6651 16.392 19.1258 13.9819 17.633 11.5442C17.2373 10.9168 16.7683 10.3218 16.5048 9.62577C16.4347 9.36377 16.402 9.04021 16.597 8.81925C16.9478 8.38285 17.5074 8.19345 18.0098 7.9717C19.3379 7.46191 20.7352 7.11468 22.1522 6.93317Z" fill="#FF891D"/>
<path d="M26.2448 7.04375C27.0076 6.77149 27.8771 6.91038 28.5925 7.25129C28.3641 7.86525 27.984 8.40977 27.6887 8.99295C26.8583 10.6486 26.3966 12.4573 26.1233 14.2716C25.8525 16.0717 26.1233 17.8946 25.934 19.6986C25.8998 19.6884 25.8329 19.6663 25.7986 19.6552C25.5931 19.1746 25.5653 18.6506 25.5474 18.1377C25.5327 17.4779 25.5621 16.8198 25.5874 16.1616C25.5963 13.4248 25.4919 10.6873 25.6192 7.95206C25.6151 7.56143 25.8582 7.17711 26.2448 7.04375Z" fill="#FF891D"/>
<path d="M13.6237 10.2317C13.8904 10.122 14.2184 10.1023 14.4745 10.2515C14.7372 10.3943 14.8587 10.6752 15.0178 10.908C17.0123 14.0252 19.0084 17.1423 21.0077 20.2579C21.2802 20.6399 21.3071 21.2136 20.9604 21.5616C20.6774 21.8418 20.2214 21.8197 19.882 21.6555C18.7172 21.1426 17.6657 20.426 16.5383 19.846C15.2405 19.1476 13.9214 18.4855 12.6171 17.7981C11.6871 17.3168 10.7458 16.8488 9.86232 16.2877C9.49769 16.0391 9.10206 15.7637 8.94788 15.3391C8.82878 15.0179 8.98296 14.6794 9.15263 14.404C9.51645 13.8287 10.0067 13.3418 10.4635 12.8351C11.1748 12.0468 12.002 11.3673 12.8316 10.7005C13.0714 10.5079 13.352 10.3754 13.6237 10.2317Z" fill="#FF891D"/>
<path d="M7.65839 17.4802C8.00753 17.3334 8.38848 17.4746 8.69764 17.6459C10.1782 18.4548 11.6726 19.2415 13.1548 20.0473C14.5424 20.7788 15.903 21.5577 17.3175 22.2419C17.9212 22.5434 18.5403 22.8267 19.0934 23.2126C19.3748 23.3988 19.6032 23.7074 19.5682 24.0514C19.5469 24.4665 19.1831 24.8074 18.7687 24.8706C18.13 24.9621 17.4839 24.8808 16.8428 24.8887C13.7707 24.8942 10.6986 24.884 7.62658 24.899C7.1404 24.8879 6.64932 24.9692 6.16722 24.8793C5.73733 24.7885 5.4249 24.401 5.38167 23.9859C5.29928 23.2094 5.45427 22.436 5.62394 21.6808C5.88335 20.6178 6.22677 19.569 6.70235 18.5763C6.92015 18.147 7.15427 17.6482 7.65839 17.4802Z" fill="#FF891D"/>
<path d="M7.08128 26.6171C10.8794 26.6021 14.6791 26.6044 18.4771 26.6131C18.7953 26.6171 19.155 26.6613 19.3793 26.9043C19.5629 27.1742 19.5596 27.5577 19.3418 27.8103C19.0563 28.1512 18.6256 28.324 18.261 28.5694C16.8767 29.4691 15.5021 30.3821 14.117 31.2794C12.9252 32.0748 11.709 32.8348 10.5376 33.6579C9.9747 34.0359 9.42571 34.4344 8.84409 34.784C8.60263 34.9482 8.26818 34.9529 8.02264 34.7951C7.56746 34.5228 7.29582 34.0533 7.04865 33.6105C6.47682 32.5136 6.10729 31.3307 5.79486 30.1438C5.59501 29.3373 5.40494 28.5189 5.39597 27.6864C5.38536 27.3715 5.49386 27.0369 5.78099 26.8609C6.17173 26.6415 6.6416 26.636 7.08128 26.6171Z" fill="#FF891D"/>
<path d="M20.3823 29.3049C20.7861 29.2007 21.3 29.4595 21.318 29.8912C21.3547 30.1887 21.1785 30.4476 20.9892 30.663C20.5528 31.1625 20.0715 31.6266 19.6824 32.164C18.622 33.6192 17.6839 35.1643 16.9913 36.8176C16.4203 38.1418 16.0524 39.5355 15.7391 40.9354C15.6315 41.2811 15.5866 41.6993 15.2636 41.9298C14.9658 42.1034 14.6208 41.9132 14.3442 41.7861C13.4184 41.3 12.6198 40.6237 11.8375 39.949C11.1408 39.2806 10.3985 38.6453 9.83647 37.8601C9.59094 37.5381 9.418 37.1214 9.56238 36.7237C9.8226 36.2123 10.3227 35.8785 10.7941 35.5637C13.6558 33.6721 16.5255 31.7931 19.3904 29.9062C19.7248 29.7129 20.0152 29.439 20.3823 29.3049Z" fill="#FF891D"/>
</svg>
