<svg width="86" height="86" viewBox="0 0 86 86" fill="none" xmlns="http://www.w3.org/2000/svg">
<rect width="86" height="86" rx="43" fill="#FF0000"/>
<path d="M55.3081 36.1478C55.9831 38.9293 50.3969 42.7034 42.8316 44.5775C36.8148 46.067 31.3589 45.9068 29.0371 44.3792C30.5757 46.8502 37.3132 47.3918 44.8692 45.5202C53.0328 43.4985 59.0608 39.426 58.3327 36.424C57.8527 34.4448 54.5566 33.4255 50.0273 33.5395C52.9474 33.7914 54.9544 34.6878 55.3081 36.1478Z" fill="#970000"/>
<path fill-rule="evenodd" clip-rule="evenodd" d="M18.1228 49.4335C18.1095 49.4335 18.0969 49.4335 18.0836 49.4335C16.4342 49.4335 15.0729 48.423 15.0729 46.6649V46.4769L16.0702 44.4598C16.5489 43.4925 17.2016 42.5959 18.3802 42.5959C19.9062 42.5959 20.6355 43.8255 20.8982 45.1562C21.8028 44.7093 22.5929 43.9974 23.1648 43.1527C22.9028 43.2228 22.6341 43.2613 22.3842 43.2613C20.9701 43.2613 19.9168 42.1645 19.9168 40.742V40.5816L20.7715 38.5302C21.1668 37.5965 21.9441 36.6987 23.0268 36.6987C23.3301 36.6987 23.6295 36.7539 23.9135 36.8645C25.4495 37.4624 26.0129 39.3459 26.0129 40.8674C26.0129 42.7603 25.3988 44.5644 24.2674 46.0703C23.3502 47.2918 22.1028 48.295 20.6969 48.8821C19.6375 53.0179 15.9548 57.6802 11.4103 57.6802C9.77226 57.6802 8.20224 56.7512 8.20224 54.9357C8.20224 54.2239 8.57889 53.3509 9.30086 53.1264L9.67686 53.0098L9.99491 53.2431C10.3923 53.5357 10.8215 53.6664 11.3116 53.6664C14.2529 53.6664 16.8769 52.1044 18.1228 49.4335ZM21.3802 33.1527C21.2056 33.0644 20.9875 32.9646 20.7962 32.9256L19.5522 32.6742L22.8855 28.3199L23.4302 28.5295C24.5821 28.9731 25.8889 29.6608 25.8889 31.0966C25.8889 32.0714 25.2028 32.9397 24.5688 33.6098L23.3389 35.0086L22.7635 34.2158C22.4814 33.8268 21.8028 33.3812 21.3802 33.1527ZM7.44764 44.2792C7.90899 44.59 8.46965 44.6702 9.01296 44.6702C11.2243 44.6702 13.7382 43.2288 13.7382 40.742C13.7382 40.2594 13.4423 39.8629 12.9428 39.8629C12.4975 39.8629 12.1482 39.9991 11.7449 40.1737L10.9596 40.5142L9.99556 37.5905L10.3235 37.244C11.0343 36.4931 12.1942 35.8492 13.2396 35.8492C13.7883 35.8492 14.3209 35.98 14.7816 36.2888C15.8195 36.9838 16.1015 38.2868 16.1015 39.468C16.1015 40.8257 15.7762 42.1995 15.2475 43.4433C14.1636 45.9935 11.8536 48.6839 8.88963 48.6839C7.15295 48.6839 5.80493 47.6903 5.80493 45.8398C5.80493 45.2216 6.10758 44.4666 6.70166 44.2098L7.09292 44.0399L7.44764 44.2792Z" fill="white"/>
<path fill-rule="evenodd" clip-rule="evenodd" d="M18.0835 48.6388C18.4868 48.6388 18.8982 48.5902 19.3095 48.4972C18.2369 52.25 14.9589 54.4611 11.3116 54.4611C10.669 54.4611 10.0755 54.2859 9.53224 53.8862C9.21093 53.9866 8.98828 54.511 8.98828 54.9357C8.98828 56.2105 10.1009 56.8853 11.4103 56.8853C15.5509 56.8853 19.1502 52.3855 20.0288 48.2889C22.7321 47.3364 25.2261 44.5171 25.2261 40.8673C25.2261 38.9684 24.3369 37.4934 23.0268 37.4934C22.2355 37.4934 21.7168 38.3185 21.4941 38.8431L20.7035 40.742C20.7035 41.8166 21.4941 42.4664 22.3842 42.4664C23.1255 42.4664 23.8174 42.0667 23.9901 41.7168L24.4849 42.3417C23.8041 44.0425 22.2628 45.6935 20.2302 46.2591C20.1915 44.9465 19.7655 43.3913 18.3802 43.3913C17.5889 43.3913 17.1441 44.0662 16.7735 44.8157L15.8596 46.6649C15.8596 48.1641 17.1196 48.6388 18.0835 48.6388Z" fill="#FF0000"/>
<path fill-rule="evenodd" clip-rule="evenodd" d="M23.3974 33.7452L23.9901 33.0704C24.5588 32.4711 25.1028 31.7714 25.1028 31.0965C25.1028 30.1724 24.1882 29.6722 23.1501 29.2725L20.9508 32.1462C21.1975 32.1961 21.4941 32.3208 21.7414 32.4462C22.4828 32.8459 23.1255 33.3704 23.3974 33.7452Z" fill="#FF0000"/>
<path fill-rule="evenodd" clip-rule="evenodd" d="M8.88959 47.8891C12.3495 47.8891 15.3156 43.3409 15.3156 39.4679C15.3156 37.5938 14.5495 36.6439 13.2396 36.6439C12.3988 36.6439 11.4355 37.219 10.8916 37.7934L11.4355 39.443C11.9542 39.2179 12.3742 39.0682 12.9428 39.0682C13.7829 39.0682 14.5248 39.718 14.5248 40.742C14.5248 43.6159 11.7562 45.4649 9.01292 45.4649C8.17297 45.4649 7.53021 45.2904 7.01092 44.9405C6.83826 45.0153 6.59094 45.3651 6.59094 45.8398C6.59094 47.2143 7.55488 47.8891 8.88959 47.8891Z" fill="#FF0000"/>
<path fill-rule="evenodd" clip-rule="evenodd" d="M76.2404 38.1749L76.8349 37.5004C77.3776 36.9012 78.0195 36.2013 78.0195 35.5268C78.0195 34.7519 77.3286 34.3772 76.3148 34.0275L74.0909 36.8503C74.3373 36.9257 74.6592 37.0261 74.9065 37.1757C75.6226 37.5505 75.9192 37.7996 76.2404 38.1749ZM74.214 43.0234L74.8073 42.3732C75.3501 41.7734 75.9687 41.0481 75.9687 40.3988C75.9687 39.6499 75.3013 39.2491 74.3127 38.8745L72.0884 41.7238C72.3358 41.7978 72.6318 41.9233 72.8793 42.0238C73.6204 42.4229 73.9179 42.6735 74.214 43.0234ZM38.3029 52.4942C49.5485 52.4942 61.6092 46.4466 69.3702 36.2508C69.7407 36.1517 70.1607 36.0766 70.9517 36.0766C73.6946 36.0766 74.5358 33.7023 74.5358 32.2529C74.5358 31.1036 73.9179 30.5791 72.5585 30.5791C71.4958 30.5791 70.6054 30.5283 70.0132 30.3785C68.9743 30.1288 68.3816 29.404 68.3816 28.929C67.7388 29.1538 67.071 30.2539 67.1946 31.3288C66.4533 32.7029 65.786 33.8278 65.786 34.8267C65.786 35.6766 66.2321 36.5007 67.5163 36.5007C60.5465 43.5724 50.2405 48.695 38.9208 48.695C34.8682 48.695 32.199 48.246 29.9497 46.8958C28.8611 46.8958 28.12 48.395 27.5276 49.8192C26.835 51.469 25.5506 54.8675 22.8811 54.8675C22.4363 54.8675 22.1399 54.8184 21.8678 54.7181C21.6941 54.9432 21.571 55.2668 21.571 55.6417C21.571 56.367 22.1149 56.8169 22.8559 56.8169C25.3521 56.8169 26.9835 53.0186 28.3431 50.0694C30.3205 51.7947 34.1508 52.4942 38.3029 52.4942ZM36.5769 31.7675C36.0477 31.592 35.3129 31.7985 34.5427 32.1564L33.2919 32.8288C32.8983 33.0645 32.5187 33.3069 32.1773 33.5245C32.344 33.6279 32.5003 33.7602 32.6396 33.9178L35.1793 32.778L35.3589 33.1532L32.9352 34.3364C33.0089 34.4686 33.0728 34.6106 33.1242 34.7615L35.5917 33.6646L35.7571 34.0461L33.2429 35.2626C33.2709 35.4694 33.2727 35.6727 33.2505 35.8673C34.5603 35.457 36.3741 34.8907 37.1385 34.0619C37.9359 34.1119 38.6182 34.7486 38.6182 35.732C38.6182 38.6056 35.85 40.4554 33.1066 40.4554C32.2667 40.4554 31.624 40.2799 31.1042 39.9305C30.2568 40.804 30.4969 42.8792 32.9831 42.8792C36.4427 42.8792 39.4097 38.3314 39.4097 34.4576C39.4097 32.5836 38.6433 31.6337 37.3331 31.6337C37.0871 31.6337 36.8306 31.6832 36.5769 31.7675ZM69.3451 54.9432C70.9758 54.9432 72.4353 53.4934 73.448 51.7185C73.7692 52.0186 74.1399 52.1693 74.5848 52.1693C75.3264 52.1693 76.0676 51.7448 76.6362 50.87C78.0195 51.2941 79.5038 49.6452 79.8492 46.7969C79.627 46.7216 79.3789 46.8465 79.2558 47.3464C79.0823 47.995 78.7864 48.8712 77.9212 48.8712C77.5507 48.8712 77.3527 48.695 77.2782 48.5206C77.0819 48.5206 77.0819 48.5701 76.9329 48.8458C76.5621 49.5194 75.8948 49.8946 75.1537 49.8946C74.7089 49.8946 74.4125 49.7948 74.1651 49.4203C73.7201 49.4203 73.448 49.9203 73.0774 50.2944C72.3849 51.0191 71.7178 51.4438 70.4818 51.4438C68.9002 51.4438 67.6892 50.6199 67.6892 48.9206C67.6892 47.7963 67.9859 46.3709 69.1478 44.3223C69.6166 43.4976 69.8147 43.148 69.4194 42.7976C67.393 45.5723 66.3793 48.2956 66.3793 50.5944C66.3793 52.869 67.3438 54.9432 69.3451 54.9432ZM78.4409 42.0479L79.0333 41.3737C79.5528 40.7746 80.1948 40.1003 80.1948 39.4241C80.1948 38.6747 79.5278 38.2754 78.5141 37.9008L76.2897 40.7495C76.5372 40.824 76.8586 40.9233 77.1061 41.0481C77.8233 41.4231 78.1197 41.6983 78.4409 42.0479ZM44.1174 35.4898C44.8367 33.964 46.0269 32.8486 47.0416 33.1292C48.0491 33.406 48.4196 35.268 47.5491 37.1284C46.9031 38.5201 45.7989 39.3828 44.9458 39.4344C44.6228 39.4589 44.3107 39.6392 44.1187 39.9323C44.1097 39.9464 44.1003 39.96 44.0915 39.9753C42.3629 42.7542 40.0435 45.1884 37.2383 47.0737C36.7635 47.3934 36.1555 47.2776 35.9296 46.844C35.7049 46.4082 35.9159 45.856 36.3798 45.6111C39.156 44.1499 41.6066 42.1031 43.5663 39.5996C43.5769 39.5862 43.5863 39.5738 43.5959 39.5602C43.8 39.2853 43.8402 38.9287 43.7216 38.6315C43.4161 37.8341 43.5779 36.6534 44.1174 35.4898ZM70.5072 34.3269C70.6305 33.8026 70.6305 32.7781 70.3585 32.2282C70.7785 32.5031 71.3472 32.5276 71.9653 32.4775C72.7313 32.4277 73.7201 32.1283 73.7201 33.6525C73.1764 33.9767 72.2863 34.1765 71.3966 34.1765C71.1001 34.1765 70.8034 34.2023 70.5072 34.3269ZM68.7034 34.4024C67.7141 34.4024 66.9481 34.077 66.9481 33.5521C66.9481 33.0267 67.3438 32.3528 67.862 31.9781C68.7774 32.103 69.5426 32.6278 69.9391 33.1024C69.6427 33.7023 69.221 34.1268 68.7034 34.4024Z" fill="white"/>
</svg>
