<svg width="1296" height="256" viewBox="0 0 1296 256" fill="none" xmlns="http://www.w3.org/2000/svg">
<path d="M1082.68 53.5164C1083.83 53.5996 1084.91 53.745 1085.87 54.4829C1087.38 55.6363 1087.98 57.9537 1087.08 59.658C1086.6 60.5725 1086.12 61.4869 1085.64 62.4014C1085.55 62.3806 1085.46 62.3702 1085.38 62.3494C1085.59 62.682 1085.8 63.0249 1086.04 63.3471C1086.62 64.0953 1086.56 65.0513 1085.98 65.8307C1085.06 67.0569 1083.66 67.2752 1082.52 67.67C1082.17 68.8443 1081.89 69.9563 1081.53 71.037C1081.01 72.5438 1079.73 73.3024 1078.17 73.105C1077.21 72.9803 1076.24 72.8452 1074.99 72.6789C1073.79 74.7469 1072.52 76.9707 1071.21 79.1738C1070.72 80.0051 1070.09 80.7533 1069.67 81.6158C1069.16 82.655 1068.79 83.7773 1068.37 84.8581C1068.11 85.5335 1067.94 86.261 1067.58 86.8845C1067.36 87.3002 1066.92 87.8301 1066.51 87.8925C1064.09 88.2666 1061.9 87.6743 1060.11 85.9596C1059.8 85.6582 1059.63 84.9724 1059.72 84.5255C1060.31 81.4392 1060.89 78.3528 1060.84 75.1937C1060.8 73.1154 1060.45 71.0786 1059.6 69.1561C1059.52 68.969 1059.08 68.782 1058.89 68.8443C1056.51 69.5406 1053.67 67.3271 1052.91 65.1656C1052.5 64.0017 1052.27 62.9002 1052.72 61.7363C1052.92 61.2271 1052.62 61.0089 1052.27 60.853C1050.99 60.2919 1050.58 59.1384 1050.2 57.9433C1049.5 55.7403 1050.74 54.2543 1052.24 53.3086C1052.99 52.8306 1053.9 52.5604 1054.89 52.1239C1053.56 48.4452 1055.45 45.9408 1058.6 44.5587C1061.07 43.4676 1063.71 44.0079 1065.61 45.8889C1066.51 45.4732 1067.32 44.8497 1068.17 44.7977C1069.03 44.7354 1069.92 45.2342 1070.3 46.2526C1071.59 45.6291 1072.84 45.4836 1074.19 45.9408C1075.03 46.2318 1075.61 46.7098 1076 47.458C1076.78 48.9233 1076.8 49.0064 1078.32 48.4764C1079.27 48.1439 1080.01 48.5284 1080.79 48.8297C1081.17 48.9752 1081.47 49.2974 1081.82 49.526C1083.07 50.3365 1082.87 51.542 1082.7 52.737C1082.68 52.9241 1082.61 53.1112 1082.58 53.2982C1082.59 53.3398 1082.63 53.3917 1082.68 53.5164ZM1076.4 51.4173C1076.11 51.0951 1075.76 50.8561 1075.66 50.534C1075.53 50.1703 1075.61 49.7442 1075.63 49.3389C1075.68 48.0192 1075.03 47.0735 1073.81 46.6994C1072.32 46.2422 1071.66 46.502 1070.85 47.8321C1070.73 48.0192 1070.67 48.2582 1070.52 48.3829C1070.33 48.5284 1070.03 48.6843 1069.86 48.6219C1069.68 48.5595 1069.56 48.2478 1069.49 48.0296C1069.44 47.8945 1069.57 47.7178 1069.59 47.5515C1069.69 46.8449 1069.36 46.3669 1068.8 45.9928C1068.27 45.6395 1067.68 45.6394 1067.31 46.1071C1067.04 46.4604 1067.09 47.032 1066.94 47.4892C1066.86 47.7802 1066.69 48.04 1066.57 48.3205C1066.26 48.1647 1065.87 48.0815 1065.67 47.8321C1064.92 46.9072 1064.2 45.9928 1062.98 45.6083C1061.55 45.1614 1060.24 45.2134 1058.81 45.8681C1056.15 47.0943 1054.73 49.9313 1056.71 52.3941C1057.02 52.7682 1056.86 53.0696 1056.44 53.2151C1056.22 53.2982 1055.97 53.3502 1055.73 53.3502C1054.54 53.3605 1053.55 53.8801 1052.61 54.5348C1051.78 55.1168 1051.21 55.9377 1051.26 56.9249C1051.35 58.7539 1052.7 59.8762 1054.56 59.9074C1054.78 59.9074 1055.11 60.0737 1055.19 60.2503C1055.26 60.427 1055.12 60.7283 1055.01 60.9466C1054.92 61.1336 1054.76 61.3103 1054.58 61.4246C1054.02 61.7987 1053.85 62.3079 1053.84 62.9522C1053.82 64.7811 1055.41 66.9634 1057.18 67.5038C1058.35 67.8571 1060.65 66.8907 1061.35 65.6125C1061.65 65.0617 1061.92 65.0306 1062.38 65.228C1062.85 65.4358 1063.15 65.7268 1062.92 66.3087C1062.81 66.5789 1062.65 67.0465 1062.76 67.1505C1063.23 67.5973 1063.76 68.0753 1064.35 68.2832C1064.92 68.4806 1065 67.8259 1065.2 67.4206C1065.34 67.1505 1065.75 66.7764 1065.92 66.8283C1066.22 66.9218 1066.5 67.2648 1066.68 67.5661C1067 68.1481 1067.25 68.7716 1067.5 69.3847C1068.02 70.6421 1069.11 71.1721 1070.32 71.2448C1071.51 71.3072 1072.12 70.3407 1072.53 69.3327C1072.77 68.7508 1073.34 68.5741 1073.83 68.9794C1074.06 69.1769 1074.24 69.4471 1074.38 69.7276C1074.69 70.32 1074.99 70.8811 1075.75 71.0162C1076.56 71.1617 1077.36 71.4527 1078.18 71.5046C1078.69 71.5462 1079.34 71.4111 1079.74 71.1201C1080.71 70.4239 1081.04 68.7508 1080.5 67.4622C1080.35 67.0881 1080.3 66.6724 1080.23 66.3399C1081.43 66.1632 1082.46 66.0281 1083.47 65.8515C1084.29 65.706 1084.89 65.2592 1085 64.3759C1085.11 63.6173 1084.43 63.5133 1083.97 63.212C1083.19 62.7028 1083.07 61.965 1083.7 61.6324C1084.95 60.9673 1085.69 60.0321 1086.03 58.6188C1086.41 57.0185 1085.8 55.626 1084.18 55.2207C1083.38 55.0233 1082.54 54.9817 1081.71 54.9401C1081.09 54.9089 1080.8 54.618 1080.96 54.036C1081.13 53.4229 1081.31 52.8202 1081.49 52.207C1081.75 51.303 1081.29 50.2846 1080.37 49.9728C1078.57 49.4013 1077.6 49.3701 1076.4 51.4173ZM1061.5 67.8987C1060.68 68.0545 1060.55 68.3871 1060.83 69.1353C1061.28 70.3407 1061.73 71.5981 1061.87 72.8659C1062.07 74.6741 1062.09 76.5135 1061.98 78.332C1061.87 80.3688 1061.57 82.4056 1061.27 84.432C1061.13 85.3881 1061.24 85.6582 1062.18 86.022C1063.14 86.3961 1064.06 86.7494 1065.14 86.739C1065.94 86.739 1066.36 86.5312 1066.59 85.7933C1066.94 84.671 1067.31 83.5591 1067.72 82.4576C1068.84 79.4543 1070.77 76.9083 1072.36 74.1649C1072.84 73.344 1073.44 72.5958 1074 71.7748C1073.73 71.5254 1073.54 71.3384 1073.42 71.2345C1072.67 72.0658 1071.85 72.7932 1071.25 73.6661C1070.03 75.4951 1068.94 77.4072 1067.77 79.2673C1067.5 79.6934 1067.19 80.2441 1066.6 80.0259C1066.05 79.8181 1065.79 79.34 1066.05 78.6853C1066.12 78.4983 1066.07 78.2593 1066.08 78.0515C1066.17 76.7109 1066.14 75.36 1066.84 74.1234C1067.84 72.336 1067.79 72.1177 1066.58 70.8811C1066.57 70.8603 1066.52 70.8707 1066.4 70.8499C1066.32 71.3176 1066.23 71.7852 1066.15 72.2528C1065.87 73.8532 1065.63 75.4639 1065.29 77.0538C1065.24 77.324 1064.79 77.7085 1064.54 77.6877C1064.27 77.667 1063.86 77.2825 1063.81 77.0019C1063.52 75.6302 1063.21 74.2584 1063.14 72.8659C1063.02 71.0578 1062.45 69.447 1061.5 67.8987ZM1067.66 76.2121C1067.72 76.2329 1067.79 76.2537 1067.85 76.2744C1068.02 76.0147 1068.18 75.7445 1068.35 75.4847C1068.85 74.7261 1069.36 73.9779 1069.84 73.2089C1070.03 72.9179 1070.06 72.6373 1069.55 72.6477C1069.34 72.6477 1069.13 72.5646 1068.93 72.523C1068.38 73.7493 1067.87 74.9339 1067.66 76.2121ZM1065.26 69.5925C1064.62 69.6653 1064.16 69.7069 1063.62 69.7692C1063.91 70.8603 1064.19 71.8891 1064.47 72.9179C1064.54 72.9179 1064.61 72.9179 1064.7 72.9179C1064.86 71.858 1065.05 70.798 1065.26 69.5925Z" fill="#065F63"/>
<path d="M1063.08 61.6634C1062.86 61.4348 1062.42 61.0815 1062.1 60.6347C1061.98 60.4684 1062.14 60.1047 1062.18 59.8345C1062.47 59.9072 1062.87 59.8864 1063.04 60.0735C1063.77 60.7905 1064.34 60.7593 1064.99 59.9384C1065.15 59.7306 1065.45 59.6474 1065.7 59.502C1065.78 59.8968 1066.01 60.3645 1065.88 60.6658C1065.48 61.5387 1064.26 61.996 1063.08 61.6634Z" fill="#065F63"/>
<path d="M1075.77 69.6031C1077.08 69.4264 1077.65 68.751 1077.63 67.5871C1077.63 67.3689 1077.84 67.1402 1077.94 66.9116C1078.18 67.0571 1078.51 67.1402 1078.65 67.3481C1079.01 67.8676 1078.79 69.2186 1078.32 69.6239C1077.67 70.185 1076.5 70.1954 1075.77 69.6031Z" fill="#065F63"/>
<path d="M1082.74 56.873C1083.52 57.1121 1083.59 57.7667 1083.63 58.3279C1083.66 58.7643 1083.49 59.2839 1082.86 59.3671C1082.83 58.5253 1082.79 57.7667 1082.74 56.873Z" fill="#065F63"/>
<path d="M1058.48 65.8621C1058.28 65.4464 1058.11 65.1658 1058.04 64.8645C1058.02 64.7709 1058.36 64.6151 1058.52 64.48C1058.7 64.7917 1058.9 65.0931 1059.03 65.4152C1059.05 65.4672 1058.76 65.6438 1058.48 65.8621Z" fill="#065F63"/>
<path d="M1071.4 67.3894C1071.12 67.2127 1070.85 67.036 1070.57 66.849C1070.68 66.6931 1070.81 66.5372 1070.92 66.3813C1071.18 66.5996 1071.44 66.8074 1071.7 67.0256C1071.6 67.1503 1071.49 67.2647 1071.4 67.3894Z" fill="#065F63"/>
<path d="M1081.53 64.0328C1082.22 63.8145 1082.24 63.8249 1082.64 64.8433C1082.1 64.6147 1081.76 64.4692 1081.42 64.3237C1081.45 64.2302 1081.49 64.1263 1081.53 64.0328Z" fill="#065F63"/>
<path d="M1064.85 84.4839C1065.1 83.6214 1065.33 82.8316 1065.57 82.021C1066.4 82.4263 1066.71 83.2784 1066.4 84.0058C1066.13 84.6397 1065.58 84.7956 1064.85 84.4839Z" fill="#065F63"/>
<path d="M1062.49 83.8811C1062.98 83.6837 1063.27 83.4655 1063.51 83.4966C1064.23 83.611 1064.05 84.276 1064.06 84.7333C1064.06 84.8372 1063.36 85.1385 1063.17 85.0242C1062.89 84.8684 1062.78 84.4111 1062.49 83.8811Z" fill="#065F63"/>
<path d="M229.103 207.419C227.03 208.885 224.792 209.911 222.437 210.771C220.687 211.407 218.888 211.563 217.07 211.592C213.473 211.651 209.945 211.104 206.543 210.028C204.52 209.393 202.604 208.338 201.04 206.774C200.073 205.806 198.949 204.985 198.03 203.978C197.219 203.089 196.515 202.072 195.909 201.036C195.117 199.658 194.365 198.241 193.768 196.774C192.244 193.011 193.104 189.522 195.332 186.316C195.85 185.573 196.789 185.104 197.541 184.517C198.049 184.126 198.519 183.638 199.095 183.384C201.128 182.494 203.191 181.957 205.498 182.113C209.222 182.367 212.936 182.044 216.513 180.911C217.794 180.51 218.937 179.708 220.159 179.132C221.557 178.487 222.7 177.304 224.294 177.108C225.066 177.011 225.877 176.942 226.639 177.069C228.692 177.421 230.637 178.105 232.201 179.523C232.827 180.09 233.276 180.852 233.775 181.546C234.088 181.976 234.273 182.504 234.625 182.895C235.3 183.647 235.573 184.556 235.857 185.485C236.492 187.567 236.316 189.708 236.228 191.809C236.121 194.174 235.73 196.54 234.83 198.739C234.019 200.714 233.218 202.717 231.712 204.33C230.784 205.317 229.963 206.383 229.103 207.419ZM196.906 186.57C195.498 187.362 194.814 188.808 194.452 190.45C194.257 191.311 193.934 192.19 193.954 193.05C193.964 193.881 194.384 194.702 194.54 195.543C194.814 197.009 195.645 198.201 196.388 199.433C197.033 200.498 197.639 201.613 198.421 202.571C199.828 204.291 201.519 205.708 203.386 206.969C205.546 208.425 207.902 209.247 210.424 209.638C212.183 209.901 213.962 210.009 215.722 210.263C217.647 210.537 219.543 210.244 221.361 209.745C224.421 208.904 227.245 207.526 229.464 205.151C230.412 204.135 231.39 203.108 232.113 201.935C232.836 200.762 233.149 199.345 233.863 198.162C234.713 196.755 234.742 195.171 235.006 193.686C235.319 191.917 235.133 190.059 235.153 188.251C235.182 185.729 234.176 183.54 232.553 181.741C231.321 180.373 229.855 179.122 227.969 178.614C226.698 178.272 225.379 178.105 224.137 178.584C222.827 179.093 221.586 179.777 220.315 180.412C219.025 181.057 217.803 181.859 216.464 182.348C215.262 182.778 213.952 182.905 212.672 183.11C210.346 183.481 208.01 183.618 205.654 183.413C204.549 183.315 203.386 183.325 202.311 183.56C200.298 184.009 198.548 185.055 196.906 186.57Z" fill="#065F63"/>
<path d="M225.154 201.701C222.838 203.802 218.762 204.34 215.683 202.463C214.412 201.691 213.552 200.567 212.643 199.414C211.822 198.358 211.363 197.165 210.757 196.022C209.916 194.438 210.043 192.708 210.747 191.174C211.363 189.844 212.243 188.544 213.288 187.528C215.136 185.729 217.462 185.28 219.994 185.798C222.115 186.238 224.128 186.971 225.545 188.632C226.494 189.747 227.559 190.871 227.715 192.503C227.784 193.187 228.194 193.842 228.282 194.526C228.448 195.865 228.136 197.146 227.647 198.407C227.276 199.365 226.943 200.303 226.064 200.929C225.761 201.173 225.467 201.447 225.154 201.701ZM213.572 188.672C213.328 188.994 212.829 189.6 212.399 190.255C211.451 191.731 210.923 193.285 211.656 195.035C212.555 197.185 213.601 199.257 215.468 200.753C216.553 201.623 217.775 202.18 219.173 202.297C220.971 202.453 222.584 201.955 224.04 200.938C225.194 200.127 226.386 199.355 226.767 197.83C227.041 196.745 227.53 195.699 227.158 194.556C226.973 193.989 226.464 193.373 226.562 192.884C226.728 192.093 226.308 191.594 226.034 191.037C225.702 190.363 225.321 189.61 224.744 189.18C223.737 188.437 222.633 187.782 221.46 187.352C218.791 186.365 216.182 186.502 213.572 188.672Z" fill="#065F63"/>
<path d="M196.349 193.442C195.098 192.317 195.362 190.04 196.759 189.434C197.248 189.219 197.434 189.639 197.424 189.991C197.414 190.294 197.228 190.617 197.043 190.871C196.603 191.477 196.183 192.073 196.407 192.894C196.446 193.041 196.378 193.227 196.349 193.442Z" fill="#065F63"/>
<path d="M200.787 201.75C200.611 201.799 200.367 201.945 200.259 201.877C199.379 201.339 198.725 200.596 198.519 199.551C198.49 199.375 198.627 199.023 198.744 199.003C198.93 198.964 199.243 199.072 199.34 199.228C199.839 200.02 200.279 200.841 200.787 201.75Z" fill="#065F63"/>
<path d="M198.206 195.025C198.118 195.631 198.069 196.09 197.972 196.54C197.962 196.569 197.59 196.52 197.385 196.501C197.434 196.051 197.454 195.592 197.542 195.152C197.551 195.084 197.864 195.084 198.206 195.025Z" fill="#065F63"/>
<path d="M224.303 198.064C224.176 197.048 224.948 195.328 225.691 194.849C226.239 195.318 226.131 195.904 225.877 196.432C225.554 197.107 225.271 197.888 224.303 198.064Z" fill="#065F63"/>
<path d="M218.957 200.078C219.505 199.785 219.837 199.55 220.218 199.423C220.463 199.345 220.756 199.433 221.03 199.443C221 199.804 221.059 200.42 220.922 200.469C220.394 200.665 219.788 200.704 219.221 200.723C219.133 200.723 219.045 200.293 218.957 200.078Z" fill="#065F63"/>
<path d="M222.514 199.941C222.582 199.521 222.641 199.199 222.69 198.876C222.905 198.925 223.286 198.935 223.316 199.042C223.403 199.316 223.374 199.648 223.286 199.922C223.267 200 222.846 199.941 222.514 199.941Z" fill="#065F63"/>
<path d="M930.718 111.487C930.624 111.33 930.53 111.002 930.327 110.846C929.107 109.923 929.17 108.673 929.67 107.531C930.108 106.515 931.265 106.375 932.265 106.281C933.923 106.124 935.517 106.343 936.893 107.438C937.112 107.61 937.456 107.594 937.753 107.672C937.784 107.391 937.846 107.125 937.846 106.844C937.846 105.061 937.674 103.264 937.878 101.497C937.971 100.653 938.581 99.5742 939.285 99.1677C940.129 98.6831 941.067 99.3397 941.911 99.9807C943.615 101.278 943.146 103.185 943.521 104.858C943.553 105.015 943.537 105.186 943.568 105.609C944.334 104.936 945.022 104.405 945.616 103.78C947.133 102.185 949.134 101.638 951.166 101.341C952.964 101.075 954.214 102.638 953.683 104.42C953.323 105.624 953.73 105.843 954.824 105.796C956.231 105.734 957.669 105.624 959.076 105.812C961.875 106.171 964.47 106.969 966.862 108.673C969.316 110.424 970.723 112.737 971.692 115.426C972.474 117.615 972.833 119.897 972.88 122.227C972.927 125.166 971.739 127.745 970.567 130.325C970.129 131.278 969.644 132.216 969.035 133.06C968.222 134.186 967.346 135.28 966.346 136.25C963.563 138.923 960.327 141.002 956.684 142.284C954.152 143.175 951.479 143.816 948.821 144.269C946.538 144.66 944.147 144.504 941.848 144.848C939.066 145.27 936.408 144.723 933.719 144.316C929.42 143.691 925.84 141.612 922.667 138.751C919.493 135.89 917.211 132.451 917.007 128.136C916.914 126.072 917.727 123.931 918.336 121.883C919.571 117.802 922.604 115.27 926.184 113.331C927.591 112.597 929.154 112.128 930.718 111.487ZM947.727 112.237C949.118 113.816 950.228 115.426 950.025 117.63C949.9 118.975 949.04 119.913 947.664 119.929C945.679 119.944 944.24 118.772 942.849 117.584C942.208 117.036 941.895 117.115 941.598 117.834C941.348 118.428 941.114 119.037 940.832 119.616C939.16 122.883 936.236 123.571 933.516 121.164C933.141 120.835 932.891 120.194 932.891 119.694C932.875 117.521 934.126 115.848 935.408 113.832C933.782 113.722 932.093 113.175 930.733 113.613C925.95 115.176 921.932 117.802 920.103 122.852C919.306 125.041 918.477 127.26 919.087 129.621C919.978 133.092 921.901 135.89 924.793 138.032C926.825 139.533 928.764 141.237 931.374 141.674C934.298 142.175 937.221 142.909 940.16 142.972C943.099 143.034 946.069 142.44 949.024 142.049C953.698 141.44 957.966 139.751 961.875 137.078C965.564 134.561 968.44 131.45 969.801 127.12C970.144 126.01 970.582 124.869 970.629 123.727C970.707 121.789 970.739 119.803 970.348 117.927C969.957 116.067 969.332 114.113 968.284 112.55C966.549 109.97 963.719 108.626 960.749 108.063C958.42 107.625 955.965 107.797 953.573 107.782C953.042 107.782 952.37 107.954 951.979 108.282C950.525 109.533 949.18 110.877 947.727 112.237ZM943.427 109.486C942.036 108.907 941.864 108.579 941.786 107.203C941.677 105.296 941.52 103.373 941.254 101.481C941.192 101.091 940.535 100.731 940.082 100.512C939.973 100.465 939.457 100.966 939.332 101.294C938.409 103.545 938.644 105.765 939.785 107.875C940.27 108.782 939.707 109.501 939.269 110.033C939.05 110.314 938.097 110.033 937.471 109.939C937.299 109.908 937.174 109.658 937.002 109.564C935.627 108.735 934.36 107.641 932.547 108C931.468 108.219 930.937 109.064 931.578 109.798C932.891 111.315 934.517 112.331 936.502 112.753C936.908 112.831 937.456 113.097 937.596 113.425C937.753 113.769 937.628 114.379 937.409 114.723C936.643 115.926 935.658 116.99 935.017 118.24C934.689 118.881 934.61 120.101 934.986 120.538C935.72 121.367 937.127 120.882 938.034 120.101C939.519 118.819 939.816 117.021 940.504 115.364C940.676 114.926 941.004 114.551 941.254 114.144C941.661 114.441 942.13 114.66 942.443 115.02C943.678 116.442 944.913 117.802 946.961 118.053C947.899 118.162 948.508 117.599 948.352 116.646C948.039 114.754 946.882 113.66 945.178 112.956C944.631 112.722 944.256 112.081 943.803 111.627C944.272 111.315 944.709 110.83 945.225 110.705C948.446 109.908 950.275 107.531 951.901 104.936C952.166 104.514 952.291 103.545 952.088 103.389C951.682 103.076 950.884 102.951 950.4 103.139C948.039 104.045 945.851 105.218 944.6 107.61C944.24 108.266 943.818 108.876 943.427 109.486Z" fill="#065F63"/>
<path d="M965.359 120.694C964.937 119.725 964.39 118.787 964.124 117.787C963.608 115.833 962.67 114.128 961.42 112.55C961.17 112.221 961.248 111.627 961.17 111.158C961.607 111.252 962.108 111.252 962.483 111.455C964.812 112.706 965.109 115.098 965.641 117.318C965.891 118.365 965.844 119.491 965.938 120.569C965.75 120.601 965.547 120.648 965.359 120.694Z" fill="#065F63"/>
<path d="M959.982 134.498C960.185 134.498 960.373 134.498 960.576 134.498C960.029 133.466 962.436 129.37 964.031 128.667C964.828 129.511 964.985 130.402 964.187 131.356C963.343 132.356 962.53 133.388 961.608 134.311C961.248 134.67 960.607 134.764 960.107 134.983C960.06 134.811 960.013 134.655 959.982 134.498Z" fill="#065F63"/>
<path d="M932.515 139.22C930.733 140.596 927.559 139.626 926.95 137.485C926.856 137.172 927.106 136.531 927.356 136.422C927.7 136.265 928.513 136.359 928.591 136.562C929.263 138.282 930.795 138.548 932.281 138.954C932.39 138.97 932.452 139.126 932.515 139.22Z" fill="#065F63"/>
<path d="M966.457 125.65C965.878 125.213 964.956 124.9 965.628 123.931C965.769 123.728 966.675 123.696 966.863 123.915C967.41 124.54 967.254 125.197 966.457 125.65Z" fill="#065F63"/>
<path d="M941.459 113.675C939.802 113.691 939.051 113.003 939.067 111.955C939.083 111.142 940.568 109.47 941.256 109.501C941.975 109.532 943.507 111.049 943.21 111.721C942.819 112.596 941.896 113.222 941.459 113.675Z" fill="#065F63"/>
<path d="M84.6415 124.508C80.7697 124.856 78.2191 123.021 76.586 119.957C75.5584 118.012 76.1272 115.847 76.4575 113.7C76.9897 110.268 77.1915 106.764 77.4484 103.295C77.7236 99.8457 77.7053 96.3593 78.1824 92.9463C78.5861 90.0103 79.5219 87.1294 80.2192 84.2302C80.8798 81.4594 81.4486 78.6702 82.2193 75.9361C82.4946 75.0003 83.357 74.2663 83.8708 73.3855C84.3846 72.5047 84.7516 71.5138 85.3021 70.6331C87.2655 67.5136 90.44 65.7337 93.6145 64.4309C95.7614 63.5501 98.4221 63.1281 100.918 64.1373C101.56 64.3942 102.331 64.3024 103.009 64.4859C103.725 64.6878 104.459 64.9263 105.101 65.2933C106.056 65.8621 106.679 66.6329 108.001 65.4585C109.799 63.8437 112.221 63.7336 114.515 64.3942C118.075 65.4218 120.038 63.4584 120.864 60.4123C121.433 58.3205 121.414 56.357 119.946 54.4854C119.176 53.5312 119.304 52.3017 120.075 51.1641C121.322 49.3291 122.956 47.8795 125.176 48.0079C126.259 48.063 127.69 49.0539 128.222 50.0447C129.231 51.8797 129.69 54.0266 130.406 56.0451C131.433 58.9443 130.534 61.7885 130.222 64.6511C130.075 66.009 129.873 67.3852 129.708 68.688C131.176 69.5321 132.516 70.5046 134.02 71.1285C135.819 71.8809 136.498 73.3305 136.993 74.9636C137.305 75.9728 137.819 76.6334 138.828 76.9821C139.709 77.294 140.553 77.7344 141.379 78.1564C144.186 79.5327 145.397 82.0282 146.388 84.8357C147.874 89.0745 147.361 93.3316 146.406 97.4786C145.471 101.626 144.37 105.773 141.966 109.406C141.415 110.25 141.03 111.241 140.645 112.177C139.47 115.113 137.36 117.443 135.433 119.847C133.305 122.508 131.268 125.297 128.864 127.682C125.928 130.6 122.497 132.912 118.497 134.251C116.955 134.765 115.451 135.389 113.873 135.701C110.239 136.398 108.368 135.352 106.624 132.031C106.496 131.793 106.276 131.591 106.129 131.407C102.202 134.215 97.7615 135.719 93.2108 134.141C88.8802 132.673 85.0452 129.994 84.6415 124.508ZM95.7797 89.0378C93.4126 93.8454 92.0914 98.9099 91.3942 104.176C91.1189 106.231 90.6051 108.287 89.9996 110.287C89.027 113.535 87.6692 116.691 86.8801 119.975C86.0727 123.388 86.2196 126.856 89.4124 129.168C91.1556 130.435 93.1557 131.848 95.1925 132.104C98.5505 132.526 101.909 131.536 104.624 129.334C107.12 127.297 109.579 125.15 111.762 122.801C113.726 120.691 115.359 118.269 117.01 115.902C118.515 113.755 119.983 111.553 121.267 109.277C122.478 107.131 123.616 104.892 124.497 102.598C125.396 100.194 125.947 97.6621 126.662 95.2033C127.892 91.0379 128.295 86.7991 127.708 82.5236C127.231 79.1473 126.295 75.8811 123.011 73.9911C122.552 73.7158 122.038 73.514 121.616 73.1653C119.396 71.312 116.772 71.4588 114.184 71.7341C111.065 72.0644 108.588 73.936 106.166 75.6792C104.147 77.1288 102.129 78.762 100.661 80.7254C98.7524 83.276 97.3762 86.2486 95.7797 89.0378ZM143.397 100.341C143.452 100.36 143.489 100.36 143.544 100.378C143.654 99.699 143.691 99.0017 143.893 98.3411C145.049 94.7078 145.434 91.0379 144.865 87.2579C144.351 83.8081 142.553 81.1291 139.507 79.6611C136.736 78.3216 133.708 78.3583 130.736 79.496C129.69 79.8997 129.525 80.597 129.543 81.5144C129.58 84.3953 129.818 87.2946 129.616 90.1571C129.451 92.4508 128.883 94.7445 128.277 96.9648C127.396 100.139 126.607 103.369 125.249 106.36C123.671 109.865 121.671 113.223 119.616 116.471C116.827 120.911 113.506 124.948 109.487 128.343C108.625 129.058 108.092 129.811 108.624 131.059C109.102 132.16 109.634 132.912 110.863 133.242C113.083 133.811 115.212 133.224 117.065 132.306C120.35 130.673 123.946 129.517 126.405 126.434C127.8 124.673 129.69 123.278 131.121 121.535C133.195 119.003 135.232 116.415 137.011 113.663C138.645 111.131 140.002 108.415 141.342 105.699C142.149 103.974 142.7 102.121 143.397 100.341ZM104.532 67.0365C103.046 66.7613 101.909 66.6328 100.808 66.3576C95.7247 65.0915 91.7244 67.0732 88.3664 70.6331C86.2012 72.9268 84.4396 75.5691 83.724 78.7803C83.1551 81.3309 82.4946 83.8632 81.8156 86.3954C80.733 90.3956 79.9256 94.3959 79.8339 98.598C79.7238 103.993 79.1733 109.369 78.7696 114.764C78.6778 115.938 78.2374 117.113 78.3475 118.25C78.5677 120.507 80.5679 121.278 82.2744 121.975C83.9258 122.654 84.2561 122.141 84.7149 120.342C85.5773 116.948 86.5315 113.571 87.5224 110.213C88.2747 107.699 89.5775 105.259 89.8711 102.69C90.5868 96.451 93.1924 90.8911 95.6696 85.2945C96.7889 82.7806 98.8074 80.6336 100.587 78.45C102.569 75.9912 104.753 73.6975 107.799 72.4497C108.056 72.3396 108.294 71.4588 108.129 71.2386C106.9 69.7339 105.615 68.2843 104.532 67.0365ZM128.644 77.8078C130.185 77.4041 131.708 77.0554 133.213 76.5967C133.745 76.4316 134.608 76.0646 134.608 75.7893C134.608 75.1471 134.351 74.2112 133.874 73.8993C132.552 73.0369 131.103 72.2662 129.598 71.7524C127.965 71.1836 126.993 69.844 127.286 68.1192C127.8 65.1832 128.534 62.2473 128.681 59.293C128.772 57.3296 128.02 55.3294 127.616 53.2192C126.607 53.7514 125.836 54.1918 125.066 54.5771C124.295 54.9625 123.488 55.3111 122.717 55.6597C123.708 59.0911 123.616 60.1371 122.02 63.5501C120.809 66.1374 117.506 67.7522 114.79 66.9998C112.955 66.5044 111.193 66.2291 109.542 67.532C109.102 67.8806 108.074 67.9173 108.735 68.8164C109.303 69.6055 109.303 71.1469 110.973 70.6881C112.038 70.3945 113.139 70.211 114.203 69.8807C117.029 68.9999 119.653 70.0092 122.167 70.945C125.323 72.101 127.194 74.7617 128.644 77.8078Z" fill="#065F63"/>
<path d="M113.873 116.012C114.497 113.516 114.919 111.535 115.525 109.59C115.69 109.076 116.424 108.764 116.882 108.342C117.066 108.874 117.47 109.424 117.396 109.92C117.158 111.553 117.084 113.278 115.726 114.507C115.213 114.984 114.644 115.388 113.873 116.012Z" fill="#065F63"/>
<path d="M106.127 126.012C105.705 125.976 105.136 126.086 104.898 125.847C104.568 125.535 104.347 124.966 104.384 124.526C104.402 124.306 105.063 124.122 105.43 123.92C105.65 124.361 105.852 124.801 106.072 125.223C106.091 125.498 106.109 125.755 106.127 126.012Z" fill="#065F63"/>
<path d="M97.9274 129.059C97.9457 128.123 97.8539 127.591 98.0007 127.15C98.0741 126.93 98.5696 126.838 98.8632 126.691C99.0467 127.187 99.3403 127.664 99.3219 128.141C99.3219 128.38 98.698 128.581 97.9274 129.059Z" fill="#065F63"/>
<path d="M107.175 120.342C107.836 120.269 108.331 120.067 108.46 120.214C108.808 120.599 108.992 121.113 109.23 121.572C108.9 121.682 108.423 121.994 108.295 121.902C107.909 121.553 107.671 121.058 107.175 120.342Z" fill="#065F63"/>
<path d="M141.781 91.625C141.084 89.1845 140.423 87.056 139.854 84.8907C139.781 84.5971 140.075 83.9732 140.313 83.8998C140.68 83.7897 141.267 83.8815 141.543 84.1384C142.79 85.3127 143.396 89.0744 142.607 90.5975C142.423 90.9645 142.093 91.258 141.781 91.625Z" fill="#065F63"/>
<path d="M138.113 101.332C138.553 101.093 139.049 100.818 139.563 100.543C139.783 101.02 140.205 101.534 140.15 101.974C140.058 102.745 139.728 103.516 139.379 104.213C139.287 104.415 138.664 104.543 138.425 104.433C138.131 104.286 137.801 103.846 137.801 103.534C137.764 102.873 137.966 102.213 138.113 101.332Z" fill="#065F63"/>
<path d="M140.534 97.6987C140.313 96.928 139.983 96.3042 140.13 96.1574C140.442 95.8454 141.121 95.5151 141.433 95.6619C141.818 95.8454 141.983 96.506 142.24 96.9464C141.763 97.1482 141.286 97.3684 140.534 97.6987Z" fill="#065F63"/>
<path d="M96.7699 79.9545C97.0268 77.4956 97.981 75.4405 99.4123 73.6239C99.871 73.0367 100.33 72.3394 100.954 71.9724C101.339 71.7522 102.036 72.1008 102.587 72.2109C102.477 72.7064 102.495 73.2935 102.22 73.6605C100.862 75.4221 99.449 77.1103 98.0177 78.8168C97.6507 79.2572 97.1919 79.5875 96.7699 79.9545Z" fill="#065F63"/>
<path d="M1197.52 166.1C1195.01 168.477 1192.04 169.256 1189.29 170.537C1186.64 171.76 1184 173.021 1181.37 174.257C1179.9 174.944 1178.44 175.695 1176.94 176.315C1174.83 177.171 1173.08 178.471 1171.58 180.199C1169.97 182.075 1168.17 183.81 1166.59 185.701C1165.37 187.175 1164.41 188.87 1163.22 190.37C1161.09 193.001 1158.95 195.606 1156.68 198.086C1154.36 200.603 1152.09 203.251 1149.39 205.282C1146.59 207.397 1143.66 209.555 1140.13 210.456C1138.1 210.968 1136.17 211.885 1134.13 212.267C1131.09 212.849 1128.33 211.683 1125.72 210.577C1123.15 209.486 1120.89 207.731 1118.32 206.641C1116.83 206 1116.11 204.966 1115.18 203.804C1113.24 201.386 1110.84 199.339 1108.85 196.969C1107.74 195.655 1107 194.015 1106.21 192.45C1105.45 190.937 1104.78 189.378 1104.19 187.786C1103.66 186.287 1103.07 184.746 1102.91 183.165C1102.68 180.924 1102.77 178.624 1102.8 176.347C1102.81 175.742 1102.73 175.158 1102.65 174.574C1102.51 173.485 1102.71 172.299 1102.96 171.18C1104.06 166.493 1105.9 161.991 1108.38 157.849C1110.06 155.037 1112.33 152.492 1114.61 150.09C1116.9 147.687 1119.43 145.479 1122.04 143.43C1123.78 142.077 1125.86 141.194 1127.76 140.07C1128.81 139.462 1129.87 138.867 1130.81 138.111C1134.37 135.358 1138.26 133.359 1142.54 132.052C1145.04 131.284 1147.45 130.215 1149.9 129.342C1150.71 129.054 1151.57 129.001 1152.39 128.792C1154.6 128.265 1156.78 127.53 1158.99 127.235C1161.91 126.852 1164.85 126.728 1167.78 126.63C1171.11 126.503 1174.3 127.256 1177.36 128.234C1181.43 129.542 1185.28 131.364 1188.45 134.241C1190.62 136.209 1192.86 138.156 1194.14 140.923C1194.31 141.267 1194.78 141.449 1195.04 141.761C1196.61 143.707 1198.33 145.559 1199.65 147.671C1200.26 148.659 1200.01 150.19 1200.21 151.463C1200.56 153.763 1201.35 155.921 1201.24 158.4C1201.08 161.687 1200.14 164.362 1197.52 166.1ZM1192.7 160.255C1196.57 157.508 1196.82 152.964 1195.67 149.343C1195.04 147.349 1193.88 145.53 1192.9 143.67C1192.06 142.127 1191.36 140.45 1190.18 139.197C1188.54 137.414 1186.5 136.007 1184.71 134.369C1180.98 130.944 1176.09 129.937 1171.34 129.001C1167.54 128.251 1163.49 128.992 1159.56 129.625C1156.86 130.058 1154.14 130.62 1151.5 131.354C1148.4 132.215 1145.3 133.192 1142.3 134.433C1139.09 135.764 1135.93 137.329 1132.88 139.031C1130.21 140.523 1127.71 142.32 1125.18 144.039C1123.19 145.403 1121.14 146.699 1119.34 148.293C1117.34 150.056 1115.41 151.965 1113.81 154.086C1111.82 156.699 1109.97 159.474 1108.5 162.388C1107.22 164.928 1106.74 167.822 1105.57 170.432C1104.47 172.917 1104.67 175.439 1104.79 177.842C1104.94 180.773 1105.76 183.68 1106.52 186.506C1107.57 190.327 1109.21 193.951 1111.85 196.887C1113.76 199.021 1116.06 200.881 1118.42 202.539C1119.91 203.579 1121.78 204.268 1123.6 204.646C1125.62 205.073 1127.8 205.24 1129.89 205.027C1132.77 204.72 1135.36 203.339 1137.98 201.909C1142.3 199.574 1146.01 196.637 1149.45 193.194C1152.94 189.678 1156 185.84 1158.53 181.61C1160.85 177.742 1162.9 173.664 1166.94 171.171C1169.06 169.866 1171.17 168.38 1173.46 167.574C1176.88 166.371 1180.47 165.745 1183.97 164.817C1187.15 164.025 1190.03 162.559 1192.7 160.255ZM1126.42 207.759C1128.4 209.163 1130.6 209.897 1133.13 209.634C1136.87 209.248 1140.37 208.075 1143.66 206.169C1145.32 205.198 1147.16 204.365 1148.55 203.069C1151.26 200.563 1153.76 197.825 1156.27 195.139C1158.4 192.869 1160.68 190.685 1162.24 187.931C1164.27 184.303 1167.01 181.244 1170.01 178.356C1172.72 175.759 1175.93 174.041 1179.36 172.595C1183.99 170.664 1188.6 168.642 1193.12 166.435C1195.19 165.424 1197.28 164.117 1198.23 161.855C1199.09 159.78 1198.97 157.61 1198.43 155.261C1198.15 155.682 1197.97 155.904 1197.86 156.141C1197.36 157.193 1197.1 158.479 1196.31 159.283C1194.71 160.914 1193.19 162.576 1191.18 163.887C1188.22 165.787 1185.13 167.01 1181.84 167.782C1178.32 168.606 1174.77 169.273 1171.45 170.92C1167.17 173.039 1163.97 176.186 1161.72 180.368C1160.55 182.54 1159.37 184.749 1157.86 186.721C1155.52 189.79 1153.13 192.857 1150.41 195.581C1146.74 199.293 1142.37 202.205 1137.83 204.707C1134.31 206.638 1130.46 207.649 1126.42 207.759Z" fill="#065F63"/>
<path d="M1187.25 141.727C1189.29 143.89 1190.9 146.157 1191.52 149.033C1192.27 152.572 1191.9 155.983 1189.27 158.836C1187.6 160.64 1185.27 161.48 1182.93 162.05C1179.46 162.901 1175.97 163.57 1172.58 164.656C1169.64 165.589 1166.7 166.715 1164.03 168.255C1159.8 170.731 1156.19 174.016 1154.32 178.7C1152.67 182.87 1150.69 186.866 1148.02 190.514C1145.31 194.198 1141.92 197.02 1137.8 199.117C1134.99 200.546 1132.19 201.462 1129.2 201.171C1124.59 200.721 1120.41 199.191 1117.01 196.048C1115.55 194.691 1113.81 193.573 1112.66 192.002C1109.58 187.825 1107.47 183.293 1107.86 177.661C1108.13 173.783 1109.21 170.132 1110.29 166.468C1111.02 164.043 1111.91 161.32 1113.61 159.556C1115.85 157.22 1117.15 154.198 1119.73 152.152C1121.23 150.955 1122.33 149.284 1123.75 147.992C1124.86 146.978 1126.15 146.141 1127.43 145.316C1128.91 144.362 1130.62 143.678 1131.94 142.56C1134.5 140.397 1137.53 139.379 1140.52 138.282C1142.94 137.395 1145.35 136.393 1147.83 135.87C1151.77 135.034 1155.74 134.329 1159.74 133.959C1162.86 133.679 1166.04 133.712 1169.13 134.111C1172.6 134.546 1176.21 134.385 1179.53 135.838C1182.64 137.254 1185.41 138.984 1187.25 141.727ZM1186.12 143.885C1184.89 142.617 1183.74 141.277 1182.41 140.133C1181.5 139.347 1180.41 138.653 1179.27 138.252C1174.58 136.602 1169.6 136.182 1164.6 136.133C1161.12 136.096 1157.57 136.325 1154.11 136.984C1149.94 137.78 1145.83 139.107 1141.73 140.332C1138.86 141.192 1136.07 142.352 1133.59 144.173C1131.98 145.351 1130.34 146.463 1128.68 147.587C1125.26 149.931 1122 152.503 1119.26 155.633C1117.65 157.479 1115.92 159.318 1114.74 161.421C1112.48 165.491 1111.19 169.888 1110.43 174.445C1109.35 180.82 1110.93 186.336 1114.77 191.188C1117.92 195.164 1122.02 197.73 1127.06 198.861C1129.46 199.4 1132 199.395 1134.17 198.352C1137.51 196.748 1140.86 195.12 1143.56 192.232C1146.27 189.358 1148.1 186.098 1149.91 182.76C1151.27 180.243 1152.42 177.625 1153.68 175.077C1155.39 171.617 1158.41 169.404 1161.39 167.227C1164.03 165.299 1166.87 163.705 1170.11 162.97C1172.85 162.346 1175.51 161.5 1178.23 160.798C1180.2 160.284 1182.25 160.031 1184.13 159.293C1188.51 157.557 1189.41 156.12 1189.4 151.505C1189.42 148.434 1188.1 146.005 1186.12 143.885Z" fill="#065F63"/>
<path d="M1125.62 159.194C1127.83 157.695 1129.97 156.087 1132.93 156.636C1134.12 156.861 1135.54 156.078 1136.79 156.177C1139.49 156.361 1141.8 157.428 1143.33 159.716C1144.17 160.942 1145.33 162.032 1145.88 163.383C1146.36 164.537 1146.39 166 1146.21 167.295C1145.96 169.091 1145.68 171.028 1144.77 172.565C1142.26 176.815 1138.51 179.595 1133.59 180.458C1131.69 180.786 1129.79 180.7 1128.06 179.719C1126.9 179.069 1125.62 178.645 1124.46 177.995C1122.54 176.899 1121.79 174.851 1121.49 172.894C1121.14 170.675 1120.66 168.383 1121.45 166.011C1122.32 163.411 1123.32 160.96 1125.62 159.194ZM1142.18 161.602C1139.36 158.307 1136.98 157.947 1133.57 158.561C1131.89 158.864 1130.31 160.129 1128.51 159.351C1128.39 159.292 1128.12 159.38 1128.02 159.49C1127 160.375 1125.83 161.16 1125.04 162.225C1123.08 164.814 1122.48 167.792 1122.78 170.874C1122.99 173.02 1123.27 175.158 1125.42 176.409C1128.49 178.192 1131.62 178.893 1135.25 177.748C1137.22 177.127 1138.59 175.798 1140.13 174.634C1143.7 171.933 1145.71 165.365 1142.18 161.602Z" fill="#065F63"/>
<path d="M1135.27 192.427C1133.48 194.929 1130.72 196.194 1128.2 195.359C1125.85 194.572 1123.67 193.341 1121.49 192.176C1120.61 191.709 1120.4 190.088 1121.08 189.7C1121.93 189.206 1122.63 189.506 1123.33 190.195C1125.22 192.096 1127.65 193.212 1130.26 193.806C1131.13 194 1132.24 193.339 1133.23 193.06C1133.83 192.9 1134.41 192.688 1135.27 192.427Z" fill="#065F63"/>
<path d="M1184.19 153.424C1184.2 148.988 1181.95 146.318 1178.71 144.361C1180.04 142.948 1180.27 143.014 1182.33 144.142C1185 145.62 1186.3 150.499 1184.95 152.592C1184.81 152.78 1184.62 152.939 1184.19 153.424Z" fill="#065F63"/>
<path d="M1173.16 160.167C1172.05 160.642 1171.12 161.178 1170.12 161.402C1169.71 161.494 1169.19 160.911 1168.73 160.653C1169.02 160.271 1169.24 159.719 1169.6 159.547C1170.42 159.158 1171.3 158.901 1172.16 158.72C1172.65 158.633 1173.18 158.806 1173.69 158.861C1173.53 159.25 1173.37 159.665 1173.16 160.167Z" fill="#065F63"/>
<path d="M1179.97 155.22C1180.67 155.041 1181.32 154.885 1181.96 154.716C1181.94 155.154 1182.09 155.862 1181.89 155.992C1181.2 156.431 1180.43 156.554 1179.97 155.22Z" fill="#065F63"/>
<path d="M1138.77 164.477C1141 167.131 1140.68 170.903 1137.89 173.147C1134.95 175.498 1130.02 175.972 1127.96 173.34C1125.58 170.302 1126.3 166.307 1129.47 163.271C1131.46 161.356 1136.75 161.201 1138.77 164.477ZM1136.28 165.211C1135.57 164.302 1134.72 163.786 1133.43 163.879C1130.52 164.109 1128.75 167.214 1129.08 170.223C1129.2 171.421 1129.6 172.556 1130.94 172.816C1132.78 173.17 1134.62 172.657 1136.12 171.619C1138 170.332 1138.55 167.789 1136.28 165.211Z" fill="#065F63"/>
<path d="M292.185 68.2692C291.738 67.9945 291.494 67.8447 291.251 67.6948C289.286 66.5529 289.799 66.2952 288.059 67.7129C286.333 69.139 284.105 69.6178 281.87 69.0463C280.227 68.6252 278.526 67.7271 277.267 66.0532C276.014 64.3998 274.836 62.7758 274.28 60.8956C273.902 59.6 273.647 58.2165 273.759 56.96C273.961 54.6463 274.258 52.3258 275.756 50.4977C277.062 48.8787 278.232 47.1113 280.078 45.9881C281.863 44.9089 283.634 43.7562 285.54 42.8496C288.162 41.6147 291.032 40.9409 294.161 41.1296C296.426 41.2619 298.704 41.3699 300.967 41.7301C302.592 41.9922 304.227 42.5557 305.828 43.1146C308.59 44.0759 311.372 45.0334 314.078 46.1894C316.126 47.0556 318.077 48.1892 320.063 49.2296C324.291 51.4686 327.334 54.795 329.902 58.7296C331.69 61.465 333.227 64.2255 333.918 67.2189C334.688 70.5554 334.92 73.9049 334.717 77.216C334.544 80.1856 333.991 83.0522 332.99 85.742C332.016 88.3832 330.22 90.1584 327.179 90.9073C324.356 91.5939 321.557 91.9837 318.603 91.2315C315.649 90.4793 312.857 89.0575 310.615 86.829C309.427 85.6405 309.268 83.3179 310.419 82.3237C310.885 81.9229 311.311 81.4645 311.601 80.9229C311.739 80.6805 311.607 80.1413 311.405 79.8536C310.51 78.5999 309.285 77.7 307.84 77.1879C306.897 76.8536 306.451 77.2833 306.464 78.2239C306.504 80.9154 306.599 83.6076 306.503 86.281C306.422 88.7022 306.383 91.181 305.813 93.4653C305.336 95.3967 303.807 96.7643 302.266 98.0585C299.54 100.375 296.154 100.96 292.516 100.573C289.328 100.233 286.316 99.0366 283.378 97.0674C278.965 94.0931 277.398 90.1027 276.935 85.7119C276.644 82.9478 277.481 80.4188 279.544 78.4314C281.622 76.4197 284.291 75.328 286.832 74.0432C288.253 73.3132 289.282 72.2442 290.21 71.0639C290.884 70.2017 291.476 69.2896 292.185 68.2692ZM285.637 96.3121C289.885 98.645 294.161 99.932 298.429 97.9906C301.236 96.7216 303.591 94.8317 303.882 91.6236C304.246 87.7732 304.134 83.8268 304.069 79.8933C304.01 76.1431 305.123 73.064 308.201 71.0292C308.68 70.7019 309.388 70.6788 309.981 70.5036C310.998 70.1957 311.836 70.9072 312.608 71.4143C313.548 72.0417 314.508 72.8281 315.134 73.7199C315.74 74.583 315.963 75.6689 316.322 76.6752C317.041 78.753 316.566 80.2285 314.904 81.3826C314.151 81.9017 313.46 82.4746 312.747 83.0512C311.693 83.9083 311.593 84.4361 312.468 85.6611C313.848 87.6053 315.992 88.3669 318.047 89.1885C321.188 90.448 324.138 89.9544 326.942 89.0436C328.327 88.6022 329.747 87.97 330.248 86.5111C330.903 84.6228 331.503 82.7012 331.934 80.7244C332.307 79.04 332.58 77.3093 332.627 75.5554C332.668 73.8461 332.247 72.0491 332.24 70.327C332.224 68.0429 331.636 65.8325 330.584 63.6974C329.579 61.6727 328.507 59.6065 327.133 57.7804C325.726 55.9173 324.018 54.1966 322.199 52.6699C320.793 51.4785 319.106 50.5887 317.46 49.7238C315.379 48.6251 313.272 47.5098 311.087 46.7231C307.844 45.5477 304.53 44.6889 301.272 43.6028C297.214 42.2536 293.172 42.2887 289.511 43.2287C285.836 44.1604 282.433 45.8977 279.779 48.5692C278.222 50.1482 276.983 51.939 276.225 54.0417C275.223 56.8617 275.622 59.7575 277.137 62.6195C278.512 65.215 280.508 67.4891 283.77 67.1544C284.819 67.0464 285.865 66.4295 286.632 65.7559C286.954 65.4793 286.554 64.4154 286.424 63.7134C286.307 63.0198 286.094 62.333 285.936 61.6469C285.49 59.5728 287.736 56.9121 289.879 56.9043C290.832 56.9008 291.716 57.0186 292.383 57.8377C293.212 58.8544 294.231 59.8574 294.733 61C295.715 63.2238 296.14 65.5297 295.041 67.6197C294.385 68.8688 293.735 70.1383 292.93 71.2959C291.795 72.9049 290.47 74.3649 288.599 75.276C286.747 76.1834 284.822 76.9961 283.112 78.1049C280.869 79.5402 279.255 81.5093 279.103 84.4099C278.886 88.5798 280.574 93.7402 285.637 96.3121ZM293.005 66.1226C293.033 66.0741 293.17 65.8968 293.273 65.715C294.111 63.9554 292.915 60.2753 291.108 59.0175C290.073 58.2992 289.411 58.4654 288.751 59.3358C287.5 60.9555 288.418 62.747 288.819 64.5152C288.852 64.65 289.11 64.8081 289.279 64.8633C290.474 65.2702 291.688 65.6733 293.005 66.1226ZM313.549 79.7156C313.797 79.377 314.01 79.1641 314.12 78.905C314.834 77.2333 314.255 75.6174 313.234 73.9752C312.273 72.4194 310.073 71.8524 308.934 72.9851C308.352 73.5594 307.924 74.2783 307.353 75.0238C310.076 75.7322 312.038 77.1672 313.549 79.7156Z" fill="#065F63"/>
<path d="M298.28 94.2445C298.813 92.2529 299.442 90.5887 299.673 88.8314C299.852 87.4956 299.646 86.0418 299.398 84.6627C299.237 83.7907 299.584 83.3479 300.234 83.3944C300.647 83.4293 301.432 84.1299 301.47 84.5235C301.634 86.0185 301.761 87.5424 301.547 88.9738C301.288 90.781 300.693 92.5167 299.347 93.7906C299.128 94.0093 298.722 94.0623 298.28 94.2445Z" fill="#065F63"/>
<path d="M326.728 81.4819C327.255 80.5576 327.851 79.8106 328.139 78.9418C328.463 77.977 328.682 76.9311 328.641 75.8774C328.585 74.0892 328.479 74.0751 330.342 74.0881C331.957 76.8837 330.056 81.0114 326.728 81.4819Z" fill="#065F63"/>
<path d="M281.372 58.1708C280.152 59.5724 280.784 63.5903 282.526 65.1712C281.84 65.5705 281.309 65.3753 280.823 64.6821C279.506 62.8045 278.674 60.8805 279.244 58.7508C279.504 57.7775 280.387 57.5157 281.372 58.1708Z" fill="#065F63"/>
<path d="M292.031 95.6758C292.515 94.9265 292.807 94.5146 293.057 94.0771C293.414 93.4519 293.876 92.8409 294.022 92.1541C294.19 91.3962 294.629 91.0242 295.282 91.2725C295.604 91.403 295.879 92.2467 295.876 92.7171C295.878 94.1703 294.719 94.8096 293.7 95.5013C293.389 95.7154 292.805 95.6108 292.031 95.6758Z" fill="#065F63"/>
<path d="M321.98 82.8938C321.88 83.3927 321.869 83.9626 321.612 84.3487C321.502 84.5112 320.79 84.37 320.435 84.1846C320.223 84.0709 319.968 83.4194 320.051 83.3385C320.471 82.9876 321.001 82.7366 321.476 82.4521C321.653 82.594 321.823 82.748 321.98 82.8938Z" fill="#065F63"/>
<path d="M325.541 72.4749C326.317 72.4169 326.885 72.2151 327.086 72.4031C327.421 72.7055 327.504 73.2582 327.696 73.7158C327.224 73.7819 326.723 73.9604 326.265 73.8415C326.05 73.7742 325.906 73.1683 325.541 72.4749Z" fill="#065F63"/>
<path d="M329.314 70.6223C328.776 70.4542 328.197 70.3579 327.721 70.082C327.546 69.9751 327.458 69.1776 327.6 69.1192C327.952 68.9469 328.553 68.8142 328.841 69.0071C329.197 69.2412 329.354 69.8225 329.593 70.2601C329.505 70.3836 329.403 70.4988 329.314 70.6223Z" fill="#065F63"/>
<path d="M289.691 94.2221C289.616 94.9398 289.723 95.4039 289.522 95.5622C289.3 95.7573 288.824 95.7135 288.458 95.7704C288.377 95.4553 288.125 94.985 288.244 94.8752C288.522 94.6147 288.978 94.5302 289.691 94.2221Z" fill="#065F63"/>
<path d="M281.538 55.4774C281.303 55.154 281.081 54.8388 280.846 54.5153C280.861 54.394 280.889 54.2808 280.903 54.1594C281.384 54.2431 281.865 54.3269 282.346 54.4106C282.228 54.8102 282.123 55.2181 282.005 55.6177C281.862 55.5792 281.707 55.5325 281.538 55.4774Z" fill="#065F63"/>
</svg>
