<svg width="1296" height="152" viewBox="0 0 1296 152" fill="none" xmlns="http://www.w3.org/2000/svg">
<path d="M100 73C100 86.2608 94.7322 98.9785 85.3553 108.355C75.9785 117.732 63.2608 123 50 123C36.7392 123 24.0215 117.732 14.6447 108.355C5.26785 98.9785 2.00233e-06 86.2608 0 73L50 73H100Z" fill="#0F2828"/>
<path d="M103 53.5C103 39.3109 108.637 25.703 118.67 15.6698C128.703 5.63659 142.311 1.07125e-06 156.5 0C170.689 -1.07125e-06 184.297 5.63659 194.33 15.6698C204.363 25.703 210 39.3109 210 53.5L156.5 53.5L103 53.5Z" fill="#0F2828"/>
<path d="M315.742 3.1876C302.827 3.08399 292.274 13.4693 292.171 26.3838V26.3838C292.076 38.1242 301.518 47.7181 313.258 47.8123L314.321 47.8208C326.648 47.9197 336.722 38.0065 336.821 25.679L337 3.35815L315.742 3.1876Z" fill="#0F2828"/>
<path d="M234 96.3845C234 83.4696 244.47 73 257.385 73V73C269.125 73 278.643 82.5178 278.643 94.2587V95.3216C278.643 107.649 268.649 117.643 256.322 117.643H234V96.3845Z" fill="#0F2828"/>
<path d="M1257.64 102.385C1257.64 89.4696 1247.17 79 1234.26 79V79C1222.52 79 1213 88.5178 1213 100.259V101.322C1213 113.649 1222.99 123.643 1235.32 123.643H1257.64V102.385Z" fill="#0F2828"/>
<path d="M724.258 6.1876C737.172 6.08399 747.726 16.4693 747.829 29.3838V29.3838C747.924 41.1242 738.482 50.7181 726.742 50.8123L725.679 50.8208C713.352 50.9197 703.278 41.0065 703.179 28.679L703 6.35815L724.258 6.1876Z" fill="#0F2828"/>
</svg>
