<svg width="100" height="100" viewBox="0 0 100 100" fill="none" xmlns="http://www.w3.org/2000/svg">
<mask id="path-1-inside-1_3957_10638" fill="white">
<path d="M100 50C100 56.5661 98.7067 63.0679 96.194 69.1342C93.6812 75.2005 89.9983 80.7124 85.3553 85.3553C80.7124 89.9983 75.2004 93.6812 69.1342 96.194C63.0679 98.7067 56.5661 100 50 100C43.4339 100 36.9321 98.7067 30.8658 96.194C24.7995 93.6812 19.2876 89.9983 14.6447 85.3553C10.0017 80.7124 6.31876 75.2004 3.80602 69.1342C1.29329 63.0679 -5.74026e-07 56.5661 0 50L50 50H100Z"/>
</mask>
<path d="M100 50C100 56.5661 98.7067 63.0679 96.194 69.1342C93.6812 75.2005 89.9983 80.7124 85.3553 85.3553C80.7124 89.9983 75.2004 93.6812 69.1342 96.194C63.0679 98.7067 56.5661 100 50 100C43.4339 100 36.9321 98.7067 30.8658 96.194C24.7995 93.6812 19.2876 89.9983 14.6447 85.3553C10.0017 80.7124 6.31876 75.2004 3.80602 69.1342C1.29329 63.0679 -5.74026e-07 56.5661 0 50L50 50H100Z" stroke="#183D3D" stroke-width="2" stroke-dasharray="6 6" mask="url(#path-1-inside-1_3957_10638)"/>
<rect width="60" height="60" transform="translate(20 20)" fill="white"/>
<g clip-path="url(#clip0_3957_10638)">
<path d="M49.9144 20H50.0808C50.5086 20.0398 50.8625 20.3129 51.0898 20.6656C53.7699 24.316 56.464 27.9547 59.1441 31.6051C59.6949 32.2672 59.1945 33.4168 58.3367 33.4637C57.0242 33.4988 55.7105 33.4836 54.398 33.4918C54.3957 35.8789 54.3968 38.266 54.398 40.6531C56.6328 39.8879 59.034 40.0367 61.3601 40.032C61.3742 38.7418 61.359 37.4504 61.3859 36.1602C61.3941 35.6012 61.8699 35.1102 62.4218 35.0586C62.764 35.0094 63.0933 35.157 63.3593 35.3609C67.0238 38.0598 70.6871 40.7621 74.3515 43.4621C75.0101 43.8922 74.9996 44.9727 74.341 45.398C70.6273 48.1297 66.9254 50.8766 63.2035 53.5977C62.5379 54.0992 61.4621 53.6152 61.3976 52.7844C61.3554 51.4648 61.3906 50.1418 61.3742 48.8211C60.316 48.8258 59.2578 48.8082 58.2007 48.8281C56.6175 48.8621 55.1398 49.9637 54.6265 51.4555C54.3629 52.1492 54.3933 52.9016 54.3968 53.6305C54.3968 61.993 54.3968 70.3555 54.3968 78.718C54.4472 79.3238 54.0031 79.8723 53.4172 80H46.6578C46.3273 79.9367 46.0027 79.7773 45.8152 79.4879C45.555 79.1293 45.6136 78.6629 45.6054 78.2469C45.6101 74.3363 45.6078 70.4258 45.6066 66.5141C45.6195 65.4266 45.1672 64.3438 44.3726 63.5996C43.6554 62.9094 42.6699 62.5156 41.675 62.5109C40.6601 62.5016 39.6465 62.5109 38.6316 62.5086C38.6175 63.8129 38.6433 65.1195 38.6129 66.4238C38.5882 67.1703 37.707 67.693 37.0297 67.4129C36.7754 67.298 36.5609 67.1176 36.3382 66.9547C32.7675 64.3098 29.1793 61.6895 25.6132 59.0398C25.0004 58.6063 25.0132 57.5984 25.6297 57.1754C29.2261 54.5105 32.839 51.868 36.4367 49.2043C36.7121 49.0063 36.9922 48.7566 37.3496 48.7437C37.9824 48.6875 38.6293 49.2137 38.6211 49.8664C38.6433 51.1508 38.6316 52.4352 38.6457 53.7184C39.7343 53.7219 40.8242 53.7113 41.9129 53.7242C43.1668 53.7441 44.4113 53.9703 45.609 54.3406C45.6078 47.3867 45.6078 40.4328 45.609 33.4789C44.2918 33.4613 42.9734 33.5012 41.6574 33.4602C40.8031 33.4062 40.3097 32.259 40.8617 31.6016C43.5816 27.909 46.3015 24.2176 49.0238 20.5273C49.2265 20.2285 49.5582 20.048 49.9144 20ZM44.1195 31.1328C45.0277 31.141 45.9382 31.1187 46.8476 31.141C47.4511 31.1539 47.9644 31.7105 47.9492 32.3117C47.9562 40.0027 47.9492 47.6949 47.9527 55.3871C49.5629 56.3164 50.9715 57.5902 52.0519 59.1043C52.0554 50.4816 52.0519 41.8602 52.0531 33.2387C52.0566 32.8918 52.0379 32.5437 52.0672 32.198C52.1093 31.6508 52.5992 31.1867 53.1465 31.1656C54.0617 31.1422 54.9781 31.1539 55.8933 31.1445C53.9328 28.4773 51.9687 25.8125 50.0023 23.1488C48.0406 25.8102 46.0789 28.4703 44.1195 31.1328ZM63.7121 38.5355C63.7004 39.4309 63.7121 40.325 63.6933 41.2191C63.7015 41.8332 63.1566 42.3781 62.5437 42.3699C61.1 42.384 59.6574 42.3676 58.2136 42.377C56.9058 42.391 55.6039 42.6605 54.3957 43.1598C54.398 44.7313 54.3957 46.3027 54.3968 47.873C55.5054 46.9906 56.9035 46.4785 58.3238 46.4797C59.7265 46.4762 61.1304 46.4715 62.5332 46.4809C63.1613 46.4586 63.725 47.0211 63.7074 47.6492C63.7238 48.5363 63.7144 49.4234 63.7238 50.3105C66.3851 48.3512 69.0453 46.3895 71.7066 44.4289C69.0453 42.4602 66.3804 40.4961 63.7121 38.5355ZM28.3004 58.1129C30.9582 60.0781 33.6207 62.0375 36.282 63.9992C36.2961 63.0793 36.2726 62.1594 36.3031 61.2406C36.3312 60.6523 36.8738 60.1566 37.4609 60.1695C38.9457 60.1637 40.4304 60.152 41.914 60.1766C44.3304 60.2445 46.5992 61.857 47.4863 64.1012C47.8531 64.9789 47.9738 65.9375 47.9527 66.8832C47.9515 70.4738 47.9515 74.0656 47.9527 77.6562C49.3203 77.6516 50.689 77.6668 52.0578 77.648C52.0472 74.3691 52.0566 71.0902 52.0531 67.8113C52.0472 66.868 52.0894 65.9199 51.9453 64.9848C51.609 62.5766 50.382 60.3102 48.5621 58.7C46.748 57.0723 44.3457 56.1184 41.9082 56.0691C40.4257 56.0504 38.9433 56.0727 37.4609 56.0586C36.8562 56.0668 36.3113 55.5336 36.3125 54.9277C36.2914 54.0289 36.3054 53.1277 36.2925 52.2277C33.6254 54.1859 30.9652 56.1523 28.3004 58.1129Z" fill="#183D3D"/>
</g>
<path d="M68.331 18.5789L68.331 18.5789L68.3318 18.576C68.4941 17.9317 68.6914 17.2939 68.912 16.6608C69.8998 17.0652 70.8564 17.4694 71.7527 17.9891L71.753 17.9893C72.7107 18.5435 73.5937 19.2349 74.3909 20.022L74.3927 20.0238C75.3905 20.9987 76.1365 22.2375 76.6522 23.5807C76.9959 24.5187 77.1556 25.5349 77.1789 26.5647L77.1789 26.5647L77.179 26.5691C77.2046 27.3832 77.117 28.197 77.025 29.0513C77.0159 29.1357 77.0067 29.2206 76.9977 29.3059C76.8983 30.239 76.8076 31.2182 76.9007 32.21L76.9006 32.21L76.9019 32.2214C76.9118 32.3063 76.9205 32.4036 76.9297 32.5082C76.9416 32.642 76.9546 32.7877 76.9726 32.9347C76.6919 32.843 76.4113 32.7541 76.1332 32.6659C76.0075 32.626 75.8824 32.5863 75.758 32.5466C75.0998 32.3366 74.4556 32.1243 73.8276 31.8765C73.0514 31.5673 72.3164 31.1943 71.6703 30.7072L71.6703 30.7072L71.666 30.704C70.9442 30.1718 70.2816 29.5931 69.7618 28.9046L69.7618 28.9046L69.7603 28.9026C69.2641 28.2521 68.8986 27.4972 68.5242 26.6951C68.2133 26.0239 68.0123 25.2956 67.9237 24.5482L67.9238 24.5482L67.9226 24.5396C67.6543 22.5687 67.8264 20.5319 68.331 18.5789ZM70.495 23.5078L70.4989 23.5194L70.5035 23.5308C70.9151 24.5628 71.38 25.5747 71.8386 26.5728C71.9927 26.9081 72.146 27.242 72.2964 27.5745C72.4698 27.9718 72.9374 28.417 73.5516 28.2906C73.9102 28.2262 74.1679 27.9766 74.3018 27.712C74.4358 27.4472 74.4834 27.0937 74.329 26.7679C74.1006 26.25 73.875 25.7224 73.648 25.1918C73.2638 24.2935 72.8759 23.3864 72.4645 22.5028C72.3436 22.2258 72.0811 21.8683 71.6292 21.7857C71.0146 21.667 70.4075 22.1387 70.3443 22.7535C70.3242 22.9407 70.3591 23.1039 70.3956 23.2256C70.4157 23.2929 70.4535 23.395 70.4768 23.458C70.4853 23.4811 70.4919 23.499 70.495 23.5078Z" stroke="#A7D397"/>
<path d="M96.6325 21.4778L96.6313 21.4776C94.6964 21.1681 92.7015 21.2231 90.7756 21.6049L96.6325 21.4778ZM96.6325 21.4778C96.9034 21.5205 97.1703 21.5756 97.4506 21.6334C97.5181 21.6474 97.5864 21.6615 97.6557 21.6756C97.8518 21.7156 98.054 21.7553 98.2607 21.7892C98.081 23.5052 97.7983 25.1923 97.2165 26.7848L97.2157 26.7871M96.6325 21.4778L97.2157 26.7871M97.2157 26.7871C96.94 27.5532 96.5451 28.2814 96.1186 29.0285C95.4714 30.1582 94.716 31.2207 93.8034 32.1348L93.8033 32.135M97.2157 26.7871L93.8033 32.135M93.8033 32.135C92.6436 33.2976 91.2826 34.2736 89.7885 34.9912L89.7874 34.9917M93.8033 32.135L89.7874 34.9917M89.7874 34.9917C88.3095 35.7059 86.7005 36.166 85.0559 36.3861L85.0559 36.3861M89.7874 34.9917L85.0559 36.3861M85.0559 36.3861L85.0502 36.3869M85.0559 36.3861L85.0502 36.3869M85.0502 36.3869C84.2325 36.5059 83.3944 36.5083 82.528 36.4939C82.4778 36.4919 82.428 36.4901 82.3787 36.4882C81.9326 36.4716 81.5222 36.4563 81.1318 36.3913C81.1692 36.1044 81.259 35.8032 81.3667 35.4641C81.5786 34.8054 81.9002 34.1842 82.3338 33.6504C82.3924 33.5793 82.4544 33.4979 82.5082 33.4273C82.533 33.3947 82.5561 33.3643 82.5763 33.3384C82.6495 33.2444 82.7124 33.1703 82.7779 33.1088L82.7779 33.1088L82.7803 33.1066C82.9019 32.991 83.0047 32.886 83.0996 32.7891C83.2801 32.6048 83.432 32.4498 83.6299 32.3068L83.6378 32.301L83.6455 32.295C84.403 31.701 85.2665 31.2343 86.1879 30.9202C86.6059 30.7796 87.0285 30.6529 87.4604 30.5235C87.533 30.5017 87.6058 30.4799 87.6789 30.4579C88.1826 30.3065 88.6968 30.1484 89.2048 29.9626C90.9822 29.3355 92.5965 28.2949 93.8946 26.9664L93.8946 26.9664L93.8988 26.962C93.9194 26.9404 93.9402 26.9186 93.9615 26.8964C94.286 26.5572 94.6835 26.1418 94.9239 25.623L95.559 24.253L94.2318 24.9732C94.1253 25.031 93.9831 25.1096 93.85 25.2169L93.8499 25.2168L93.8411 25.2243C93.2298 25.7414 92.4872 26.1104 91.6906 26.4745M85.0502 36.3869L91.6906 26.4745M91.6906 26.4745C90.8369 26.8491 89.9887 27.1865 89.1124 27.4054L89.1124 27.4054L89.1095 27.4061C88.6387 27.5267 88.1644 27.6273 87.6782 27.7304C87.5517 27.7573 87.4244 27.7843 87.2962 27.8118C86.6815 27.9439 86.0525 28.0876 85.4321 28.2828L85.4321 28.2828L85.4293 28.2837C83.7742 28.8152 82.2241 29.7152 81.0048 30.9528C80.4549 31.5067 79.9777 32.1283 79.5874 32.7978C79.6372 32.3942 79.6999 31.9962 79.7842 31.6047C80.0398 30.5943 80.372 29.6135 80.8472 28.7076C81.2098 28.0408 81.5936 27.4026 82.0483 26.8229C82.6031 26.1182 83.1797 25.4565 83.8458 24.8999C84.4932 24.3692 85.1328 23.8664 85.8244 23.451L91.6906 26.4745ZM85.8246 23.4509C87.3277 22.5489 89.0247 21.9525 90.7755 21.6049L85.8246 23.4509Z" stroke="#A7D397"/>
<defs>
<clipPath id="clip0_3957_10638">
<rect width="60" height="60" fill="white" transform="translate(20 20)"/>
</clipPath>
</defs>
</svg>
