<svg width="100" height="100" viewBox="0 0 100 100" fill="none" xmlns="http://www.w3.org/2000/svg">
<mask id="path-1-inside-1_3957_10773" fill="white">
<path d="M100 50C100 56.5661 98.7067 63.0679 96.194 69.1342C93.6812 75.2005 89.9983 80.7124 85.3553 85.3553C80.7124 89.9983 75.2004 93.6812 69.1342 96.194C63.0679 98.7067 56.5661 100 50 100C43.4339 100 36.9321 98.7067 30.8658 96.194C24.7995 93.6812 19.2876 89.9983 14.6447 85.3553C10.0017 80.7124 6.31876 75.2004 3.80602 69.1342C1.29329 63.0679 -5.74026e-07 56.5661 0 50L50 50H100Z"/>
</mask>
<path d="M100 50C100 56.5661 98.7067 63.0679 96.194 69.1342C93.6812 75.2005 89.9983 80.7124 85.3553 85.3553C80.7124 89.9983 75.2004 93.6812 69.1342 96.194C63.0679 98.7067 56.5661 100 50 100C43.4339 100 36.9321 98.7067 30.8658 96.194C24.7995 93.6812 19.2876 89.9983 14.6447 85.3553C10.0017 80.7124 6.31876 75.2004 3.80602 69.1342C1.29329 63.0679 -5.74026e-07 56.5661 0 50L50 50H100Z" stroke="#183D3D" stroke-width="2" stroke-dasharray="6 6" mask="url(#path-1-inside-1_3957_10773)"/>
<rect width="54" height="54" transform="translate(23 23)" fill="white"/>
<g clip-path="url(#clip0_3957_10773)">
<path d="M25.565 26.1936C27.0194 24.5251 29.2448 23.6571 31.4333 23.6423C33.9677 23.6371 36.5021 23.6402 39.0365 23.6402C40.8432 23.6423 42.6773 24.1802 44.1011 25.3151C45.9299 26.7357 46.9129 29.0518 46.9498 31.3384C46.9635 33.0702 46.9519 34.8009 46.9551 36.5327C48.1311 35.3441 49.3165 34.166 50.4999 32.9848C51.8267 31.6696 53.606 30.7942 55.478 30.6528C57.8532 30.4419 60.242 31.4544 61.8673 33.1735C63.4662 34.7746 65.0672 36.3724 66.6672 37.9724C67.2578 38.5482 67.8094 39.1726 68.2408 39.8792C69.1415 41.3115 69.5781 43.0475 69.3693 44.735C69.1605 46.5607 68.2271 48.2503 66.934 49.536C65.7412 50.7246 64.562 51.9269 63.3523 53.0998C65.0546 53.0871 66.7558 53.0966 68.4581 53.0945C70.1814 53.0976 71.9322 53.5796 73.3265 54.6132C75.3926 56.0951 76.4452 58.6833 76.3861 61.1829C76.3872 63.0792 76.3861 64.9766 76.3861 66.874C76.3777 68.0289 76.4473 69.2006 76.1889 70.3365C75.8345 72.0599 74.8874 73.6725 73.4847 74.7472C72.0366 75.8821 70.1762 76.3999 68.3526 76.3873C57.5937 76.3894 46.8349 76.3862 36.076 76.3894C34.5035 76.4516 32.9204 76.2438 31.4227 75.7597C28.4084 74.743 25.8888 72.4016 24.5989 69.5001C23.9513 67.9034 23.6149 66.1758 23.637 64.4514C23.6391 53.4816 23.636 42.5107 23.6391 31.5409C23.6412 29.6108 24.2677 27.647 25.565 26.1936ZM30.6475 27.3981C29.711 27.5478 28.8039 28.0024 28.2049 28.7491C27.5425 29.5591 27.2894 30.6286 27.2957 31.6569C27.2936 42.5887 27.2957 53.5206 27.2947 64.4514C27.2166 66.9773 28.4443 69.4885 30.4345 71.0337C31.8288 72.0915 33.5722 72.7423 35.3346 72.6832C37.156 72.6927 38.9553 71.9976 40.357 70.847C41.6542 69.7353 42.6256 68.2261 43.0148 66.5555C43.3206 65.3151 43.2405 64.0305 43.25 62.7649C43.2489 52.3942 43.251 42.0234 43.2489 31.6527C43.2763 30.2869 42.7543 28.8219 41.5741 28.0467C40.7999 27.5204 39.8497 27.3211 38.9247 27.32C36.6772 27.3137 34.4286 27.32 32.181 27.3169C31.6685 27.3169 31.1538 27.3137 30.6475 27.3981ZM53.0058 35.7069C50.9903 37.7308 48.9569 39.7358 46.953 41.7714C46.9572 49.2818 46.9583 56.7922 46.953 64.3026C52.7232 58.524 58.5208 52.7717 64.2942 46.9963C65.1263 46.1821 65.7507 45.0767 65.7306 43.886C65.7254 42.6721 65.063 41.5657 64.2108 40.7451C62.5044 39.0408 60.8031 37.329 59.0924 35.6289C58.3046 34.8442 57.2404 34.2883 56.1108 34.2883C54.9275 34.2725 53.8158 34.8748 53.0058 35.7069ZM59.7495 56.7521C54.4413 62.0804 49.0961 67.3728 43.7974 72.7106C51.6674 72.6958 59.5375 72.7085 67.4065 72.7043C68.1807 72.698 68.9685 72.7475 69.7247 72.5482C70.598 72.3394 71.4122 71.8363 71.9301 71.0948C72.4986 70.3038 72.7085 69.3092 72.7042 68.3484C72.7053 66.238 72.7042 64.1276 72.7042 62.0171C72.7 61.2799 72.7401 60.5321 72.5671 59.8097C72.3752 58.9491 71.9079 58.1369 71.1992 57.6001C70.3945 56.9789 69.3556 56.7448 68.3536 56.7511C65.486 56.75 62.6172 56.7479 59.7495 56.7521Z" fill="#183D3D"/>
<path d="M34.728 60.4699C35.827 60.3254 36.9766 60.6323 37.8552 61.3084C38.8054 62.0235 39.4404 63.1446 39.5458 64.3311C39.6481 65.3753 39.3402 66.45 38.7084 67.2864C38.0355 68.1955 36.9935 68.822 35.8734 68.976C34.9094 69.1183 33.9011 68.9106 33.0711 68.4022C32.0027 67.7652 31.2317 66.6472 31.0366 65.4164C30.851 64.3195 31.1231 63.1551 31.7749 62.2523C32.4573 61.2841 33.552 60.6186 34.728 60.4699ZM35.0434 64.1571C34.7365 64.2689 34.5614 64.6633 34.7154 64.9587C34.9685 65.4048 35.8344 65.3183 35.885 64.7657C35.9325 64.3322 35.441 63.9799 35.0434 64.1571Z" fill="#183D3D"/>
</g>
<path d="M68.331 18.5788L68.331 18.5789L68.3318 18.5759C68.4941 17.9316 68.6914 17.2939 68.912 16.6608C69.8998 17.0651 70.8564 17.4694 71.7527 17.989L71.753 17.9892C72.7107 18.5435 73.5937 19.2348 74.3909 20.0219L74.3927 20.0237C75.3905 20.9986 76.1365 22.2375 76.6522 23.5807C76.9959 24.5187 77.1556 25.5349 77.1789 26.5646L77.1789 26.5646L77.179 26.5691C77.2046 27.3832 77.117 28.197 77.025 29.0512C77.0159 29.1357 77.0067 29.2205 76.9977 29.3058C76.8983 30.239 76.8076 31.2181 76.9007 32.21L76.9006 32.21L76.9019 32.2213C76.9118 32.3062 76.9205 32.4036 76.9297 32.5082C76.9416 32.642 76.9546 32.7877 76.9726 32.9347C76.6919 32.843 76.4113 32.754 76.1332 32.6658C76.0075 32.626 75.8824 32.5863 75.758 32.5466C75.0998 32.3366 74.4556 32.1243 73.8276 31.8765C73.0514 31.5672 72.3164 31.1943 71.6703 30.7071L71.6703 30.7071L71.666 30.7039C70.9442 30.1718 70.2816 29.5931 69.7618 28.9046L69.7618 28.9046L69.7603 28.9026C69.2641 28.2521 68.8986 27.4972 68.5242 26.6951C68.2133 26.0238 68.0123 25.2956 67.9237 24.5482L67.9238 24.5482L67.9226 24.5396C67.6543 22.5686 67.8264 20.5319 68.331 18.5788ZM70.495 23.5078L70.4989 23.5194L70.5035 23.5307C70.9151 24.5627 71.38 25.5747 71.8386 26.5727C71.9927 26.9081 72.146 27.2419 72.2964 27.5744C72.4698 27.9717 72.9374 28.417 73.5516 28.2905C73.9102 28.2261 74.1679 27.9766 74.3018 27.712C74.4358 27.4472 74.4834 27.0937 74.329 26.7678C74.1006 26.2499 73.875 25.7224 73.648 25.1918C73.2638 24.2934 72.8759 23.3864 72.4645 22.5028C72.3436 22.2258 72.0811 21.8683 71.6292 21.7857C71.0146 21.667 70.4075 22.1387 70.3443 22.7535C70.3242 22.9407 70.3591 23.1038 70.3956 23.2256C70.4157 23.2929 70.4535 23.395 70.4768 23.4579C70.4853 23.4811 70.4919 23.4989 70.495 23.5078Z" stroke="#A7D397"/>
<path d="M96.6325 21.4778L96.6313 21.4776C94.6964 21.168 92.7015 21.2231 90.7756 21.6049L96.6325 21.4778ZM96.6325 21.4778C96.9034 21.5204 97.1703 21.5756 97.4506 21.6334C97.5181 21.6474 97.5864 21.6615 97.6557 21.6756C97.8518 21.7156 98.054 21.7552 98.2607 21.7892C98.081 23.5052 97.7983 25.1923 97.2165 26.7848L97.2157 26.7871M96.6325 21.4778L97.2157 26.7871M97.2157 26.7871C96.94 27.5532 96.5451 28.2814 96.1186 29.0285C95.4714 30.1582 94.716 31.2206 93.8034 32.1348L93.8033 32.1349M97.2157 26.7871L93.8033 32.1349M93.8033 32.1349C92.6436 33.2976 91.2826 34.2736 89.7885 34.9912L89.7874 34.9917M93.8033 32.1349L89.7874 34.9917M89.7874 34.9917C88.3095 35.7059 86.7005 36.166 85.0559 36.3861L85.0559 36.3861M89.7874 34.9917L85.0559 36.3861M85.0559 36.3861L85.0502 36.3869M85.0559 36.3861L85.0502 36.3869M85.0502 36.3869C84.2325 36.5059 83.3944 36.5083 82.528 36.4938C82.4778 36.4919 82.428 36.4901 82.3787 36.4882C81.9326 36.4716 81.5222 36.4563 81.1318 36.3913C81.1692 36.1044 81.259 35.8032 81.3667 35.4641C81.5786 34.8054 81.9002 34.1842 82.3338 33.6504C82.3924 33.5793 82.4544 33.4979 82.5082 33.4273C82.533 33.3946 82.5561 33.3643 82.5763 33.3384C82.6495 33.2444 82.7124 33.1703 82.7779 33.1088L82.7779 33.1088L82.7803 33.1065C82.9019 32.991 83.0047 32.886 83.0996 32.7891C83.2801 32.6048 83.432 32.4497 83.6299 32.3067L83.6378 32.301L83.6455 32.2949C84.403 31.701 85.2665 31.2342 86.1879 30.9202C86.6059 30.7795 87.0285 30.6529 87.4604 30.5235C87.533 30.5017 87.6058 30.4799 87.6789 30.4579C88.1826 30.3065 88.6968 30.1484 89.2048 29.9626C90.9822 29.3355 92.5965 28.2948 93.8946 26.9664L93.8946 26.9664L93.8988 26.9619C93.9194 26.9404 93.9402 26.9186 93.9615 26.8964C94.286 26.5572 94.6835 26.1418 94.9239 25.6229L95.559 24.253L94.2318 24.9732C94.1253 25.031 93.9831 25.1096 93.85 25.2169L93.8499 25.2168L93.8411 25.2243C93.2298 25.7414 92.4872 26.1104 91.6906 26.4745M85.0502 36.3869L91.6906 26.4745M91.6906 26.4745C90.8369 26.8491 89.9887 27.1865 89.1124 27.4054L89.1124 27.4054L89.1095 27.4061C88.6387 27.5267 88.1644 27.6273 87.6782 27.7304C87.5517 27.7572 87.4244 27.7842 87.2962 27.8118C86.6815 27.9439 86.0525 28.0876 85.4321 28.2828L85.4321 28.2828L85.4293 28.2837C83.7742 28.8152 82.2241 29.7152 81.0048 30.9528C80.4549 31.5067 79.9777 32.1282 79.5874 32.7978C79.6372 32.3942 79.6999 31.9962 79.7842 31.6047C80.0398 30.5943 80.372 29.6135 80.8472 28.7076C81.2098 28.0408 81.5936 27.4025 82.0483 26.8229C82.6031 26.1181 83.1797 25.4565 83.8458 24.8999C84.4932 24.3692 85.1328 23.8664 85.8244 23.451L91.6906 26.4745ZM85.8246 23.4509C87.3277 22.5488 89.0247 21.9524 90.7755 21.6049L85.8246 23.4509Z" stroke="#A7D397"/>
<defs>
<clipPath id="clip0_3957_10773">
<rect width="54" height="54" fill="white" transform="translate(23 23)"/>
</clipPath>
</defs>
</svg>
