<svg width="100" height="100" viewBox="0 0 100 100" fill="none" xmlns="http://www.w3.org/2000/svg">
<mask id="path-1-inside-1_3957_10755" fill="white">
<path d="M100 50C100 56.5661 98.7067 63.0679 96.194 69.1342C93.6812 75.2005 89.9983 80.7124 85.3553 85.3553C80.7124 89.9983 75.2004 93.6812 69.1342 96.194C63.0679 98.7067 56.5661 100 50 100C43.4339 100 36.9321 98.7067 30.8658 96.194C24.7995 93.6812 19.2876 89.9983 14.6447 85.3553C10.0017 80.7124 6.31876 75.2004 3.80602 69.1342C1.29329 63.0679 -5.74026e-07 56.5661 0 50L50 50H100Z"/>
</mask>
<path d="M100 50C100 56.5661 98.7067 63.0679 96.194 69.1342C93.6812 75.2005 89.9983 80.7124 85.3553 85.3553C80.7124 89.9983 75.2004 93.6812 69.1342 96.194C63.0679 98.7067 56.5661 100 50 100C43.4339 100 36.9321 98.7067 30.8658 96.194C24.7995 93.6812 19.2876 89.9983 14.6447 85.3553C10.0017 80.7124 6.31876 75.2004 3.80602 69.1342C1.29329 63.0679 -5.74026e-07 56.5661 0 50L50 50H100Z" fill="white" stroke="#183D3D" stroke-width="2" stroke-dasharray="6 6" mask="url(#path-1-inside-1_3957_10755)"/>
<rect width="54" height="72" transform="translate(23 14)" fill="white"/>
<g clip-path="url(#clip0_3957_10755)">
<path d="M49.6161 23H50.386C53.4921 23.0696 56.5802 23.8975 59.2855 25.4311C62.6784 27.3358 65.4596 30.3069 67.1334 33.819C68.7081 37.0948 69.2924 40.8295 68.8262 44.4323C68.4243 47.6417 67.1608 50.7309 65.2276 53.3212C61.842 57.8416 58.4523 62.3588 55.0625 66.875C53.8897 68.4454 51.9617 69.4136 50.0011 69.4052C48.0415 69.4147 46.1145 68.4444 44.9407 66.8782C41.5646 62.3799 38.1896 57.8806 34.8167 53.3792C33.0058 50.9724 31.7708 48.1332 31.2804 45.159C30.6634 41.4918 31.1359 37.6422 32.6662 34.2504C34.2324 30.7372 36.8987 27.7292 40.1893 25.7411C43.019 24.0167 46.3065 23.0759 49.6161 23ZM48.4739 27.2989C44.3806 27.7018 40.5257 29.9314 38.1042 33.2505C36.2922 35.6984 35.2724 38.7212 35.2386 41.7671C35.1753 44.985 36.2131 48.2091 38.1443 50.7847C41.5182 55.2893 44.8974 59.7896 48.2735 64.2921C48.6859 64.8722 49.3936 65.2297 50.1076 65.1822C50.7541 65.159 51.3606 64.8046 51.7339 64.2836C54.9286 60.0259 58.1222 55.767 61.3157 51.5093C62.0962 50.4999 62.8239 49.441 63.3608 48.2787C65.1601 44.5082 65.2276 39.9668 63.5559 36.1393C62.149 32.8677 59.5154 30.1434 56.2912 28.6299C53.8749 27.475 51.1348 27.0257 48.4739 27.2989Z" fill="#183D3D"/>
<path d="M49.0107 35.7343C50.4282 35.5065 51.9195 35.7849 53.1609 36.5063C54.5773 37.3237 55.6573 38.7075 56.0908 40.2853C56.4589 41.5625 56.3924 42.9547 55.9231 44.1961C55.3631 45.7085 54.1976 46.9836 52.7443 47.6818C51.3753 48.3441 49.7616 48.4992 48.2988 48.0731C46.973 47.7039 45.7781 46.8866 44.9512 45.7876C44.0842 44.6464 43.6233 43.2015 43.6761 41.7692C43.7278 40.1102 44.4703 38.4881 45.6895 37.3617C46.6018 36.5053 47.7756 35.9357 49.0107 35.7343ZM49.4231 39.9552C48.6152 40.1777 47.9813 40.9213 47.9043 41.7576C47.8083 42.5349 48.1996 43.3386 48.8599 43.7563C49.4463 44.1423 50.2299 44.2003 50.8669 43.905C51.5029 43.6202 51.9786 43.0043 52.0809 42.3145C52.1916 41.6574 51.9617 40.9561 51.485 40.4899C50.9608 39.9562 50.1413 39.7453 49.4231 39.9552Z" fill="#183D3D"/>
<path d="M39.9657 73.5132C40.3802 73.0196 41.0278 72.757 41.668 72.7802C47.223 72.7813 52.7791 72.7823 58.3342 72.7802C58.9986 72.7559 59.6683 73.0439 60.0818 73.5702C60.6292 74.2336 60.6977 75.2397 60.2463 75.9717C59.9088 76.5539 59.2781 76.9262 58.6158 77H41.3874C40.7219 76.9283 40.0912 76.5539 39.7516 75.9706C39.2865 75.2176 39.3772 74.1745 39.9657 73.5132Z" fill="#183D3D"/>
</g>
<path d="M66.331 12.5789L66.331 12.5789L66.3318 12.576C66.4941 11.9317 66.6914 11.2939 66.912 10.6608C67.8998 11.0652 68.8564 11.4694 69.7527 11.9891L69.753 11.9893C70.7107 12.5435 71.5937 13.2349 72.3909 14.022L72.3927 14.0238C73.3905 14.9987 74.1365 16.2375 74.6522 17.5807C74.9959 18.5187 75.1556 19.5349 75.1789 20.5647L75.1789 20.5647L75.179 20.5691C75.2046 21.3832 75.117 22.197 75.025 23.0513C75.0159 23.1357 75.0067 23.2206 74.9977 23.3059C74.8983 24.239 74.8076 25.2182 74.9007 26.21L74.9006 26.21L74.9019 26.2214C74.9118 26.3063 74.9205 26.4036 74.9297 26.5082C74.9416 26.642 74.9546 26.7877 74.9726 26.9347C74.6919 26.843 74.4113 26.7541 74.1332 26.6659C74.0075 26.626 73.8824 26.5863 73.758 26.5466C73.0998 26.3366 72.4556 26.1243 71.8276 25.8765C71.0514 25.5673 70.3164 25.1943 69.6703 24.7072L69.6703 24.7072L69.666 24.704C68.9442 24.1718 68.2816 23.5931 67.7618 22.9046L67.7618 22.9046L67.7603 22.9026C67.2641 22.2521 66.8986 21.4972 66.5242 20.6951C66.2133 20.0239 66.0123 19.2956 65.9237 18.5482L65.9238 18.5482L65.9226 18.5396C65.6543 16.5687 65.8264 14.5319 66.331 12.5789ZM68.495 17.5078L68.4989 17.5194L68.5035 17.5308C68.9151 18.5628 69.38 19.5747 69.8386 20.5728C69.9927 20.9081 70.146 21.242 70.2964 21.5745C70.4698 21.9718 70.9374 22.417 71.5516 22.2906C71.9102 22.2262 72.1679 21.9766 72.3018 21.712C72.4358 21.4472 72.4834 21.0937 72.329 20.7679C72.1006 20.25 71.875 19.7224 71.648 19.1918C71.2638 18.2935 70.8759 17.3864 70.4645 16.5028C70.3436 16.2258 70.0811 15.8683 69.6292 15.7857C69.0146 15.667 68.4075 16.1387 68.3443 16.7535C68.3242 16.9407 68.3591 17.1039 68.3956 17.2256C68.4157 17.2929 68.4535 17.395 68.4768 17.458C68.4853 17.4811 68.4919 17.499 68.495 17.5078Z" stroke="#A7D397"/>
<path d="M94.6326 15.4778L94.6314 15.4776C92.6965 15.168 90.7017 15.2231 88.7757 15.6049L94.6326 15.4778ZM94.6326 15.4778C94.9035 15.5204 95.1704 15.5756 95.4507 15.6334C95.5182 15.6474 95.5865 15.6615 95.6558 15.6756C95.852 15.7156 96.0541 15.7552 96.2608 15.7892C96.0812 17.5052 95.7985 19.1923 95.2167 20.7848L95.2159 20.7871M94.6326 15.4778L95.2159 20.7871M95.2159 20.7871C94.9401 21.5532 94.5452 22.2814 94.1187 23.0285C93.4715 24.1582 92.7161 25.2206 91.8036 26.1348L91.8034 26.1349M95.2159 20.7871L91.8034 26.1349M91.8034 26.1349C90.6438 27.2976 89.2827 28.2736 87.7886 28.9912L87.7875 28.9917M91.8034 26.1349L87.7875 28.9917M87.7875 28.9917C86.3096 29.7059 84.7006 30.166 83.056 30.3861L83.056 30.3861M87.7875 28.9917L83.056 30.3861M83.056 30.3861L83.0503 30.3869M83.056 30.3861L83.0503 30.3869M83.0503 30.3869C82.2327 30.5059 81.3945 30.5083 80.5281 30.4938C80.4779 30.4919 80.4282 30.4901 80.3788 30.4882C79.9327 30.4716 79.5223 30.4563 79.1319 30.3913C79.1693 30.1044 79.2591 29.8032 79.3668 29.4641C79.5787 28.8054 79.9003 28.1842 80.3339 27.6504C80.3925 27.5793 80.4545 27.4979 80.5083 27.4273C80.5332 27.3946 80.5563 27.3643 80.5764 27.3384C80.6496 27.2444 80.7125 27.1703 80.778 27.1088L80.778 27.1088L80.7805 27.1065C80.902 26.991 81.0048 26.886 81.0997 26.7891C81.2802 26.6048 81.4321 26.4497 81.63 26.3067L81.6379 26.301L81.6457 26.2949C82.4032 25.701 83.2666 25.2342 84.1881 24.9202C84.606 24.7795 85.0286 24.6529 85.4606 24.5235C85.5331 24.5017 85.606 24.4799 85.6791 24.4579C86.1828 24.3065 86.6969 24.1484 87.2049 23.9626C88.9823 23.3355 90.5966 22.2948 91.8947 20.9664L91.8947 20.9664L91.899 20.9619C91.9195 20.9404 91.9404 20.9186 91.9616 20.8964C92.2861 20.5572 92.6836 20.1418 92.9241 19.6229L93.5591 18.253L92.2319 18.9732C92.1254 19.031 91.9832 19.1096 91.8501 19.2169L91.8501 19.2168L91.8412 19.2243C91.23 19.7414 90.4873 20.1104 89.6907 20.4745M83.0503 30.3869L89.6907 20.4745M89.6907 20.4745C88.837 20.8491 87.9888 21.1865 87.1125 21.4054L87.1125 21.4054L87.1096 21.4061C86.6388 21.5267 86.1645 21.6273 85.6783 21.7304C85.5518 21.7572 85.4245 21.7842 85.2963 21.8118C84.6817 21.9439 84.0527 22.0876 83.4322 22.2828L83.4322 22.2828L83.4294 22.2837C81.7743 22.8152 80.2242 23.7152 79.0049 24.9528C78.455 25.5067 77.9779 26.1282 77.5875 26.7978C77.6373 26.3942 77.7 25.9962 77.7844 25.6047C78.0399 24.5943 78.3721 23.6135 78.8473 22.7076C79.2099 22.0408 79.5938 21.4025 80.0484 20.8229C80.6032 20.1181 81.1799 19.4565 81.846 18.8999C82.4933 18.3692 83.1329 17.8664 83.8245 17.451L89.6907 20.4745ZM83.8247 17.4509C85.3278 16.5488 87.0248 15.9524 88.7756 15.6049L83.8247 17.4509Z" stroke="#A7D397"/>
<defs>
<clipPath id="clip0_3957_10755">
<rect width="54" height="54" fill="white" transform="translate(23 23)"/>
</clipPath>
</defs>
</svg>
