<svg width="100" height="100" viewBox="0 0 100 100" fill="none" xmlns="http://www.w3.org/2000/svg">
<mask id="path-1-inside-1_3946_59454" fill="white">
<path d="M100 50C100 56.5661 98.7067 63.0679 96.194 69.1342C93.6812 75.2005 89.9983 80.7124 85.3553 85.3553C80.7124 89.9983 75.2004 93.6812 69.1342 96.194C63.0679 98.7067 56.5661 100 50 100C43.4339 100 36.9321 98.7067 30.8658 96.194C24.7995 93.6812 19.2876 89.9983 14.6447 85.3553C10.0017 80.7124 6.31876 75.2004 3.80602 69.1342C1.29329 63.0679 -5.74026e-07 56.5661 0 50L50 50H100Z"/>
</mask>
<path d="M100 50C100 56.5661 98.7067 63.0679 96.194 69.1342C93.6812 75.2005 89.9983 80.7124 85.3553 85.3553C80.7124 89.9983 75.2004 93.6812 69.1342 96.194C63.0679 98.7067 56.5661 100 50 100C43.4339 100 36.9321 98.7067 30.8658 96.194C24.7995 93.6812 19.2876 89.9983 14.6447 85.3553C10.0017 80.7124 6.31876 75.2004 3.80602 69.1342C1.29329 63.0679 -5.74026e-07 56.5661 0 50L50 50H100Z" fill="white" stroke="#183D3D" stroke-width="2" stroke-dasharray="6 6" mask="url(#path-1-inside-1_3946_59454)"/>
<g clip-path="url(#clip0_3946_59454)">
<rect width="60" height="60" transform="translate(20 20)" fill="white"/>
<g clip-path="url(#clip1_3946_59454)">
<path d="M49.8031 20H50.1746C51.0441 20.109 51.7777 20.8754 51.7777 21.7637C51.7906 23.1055 51.7777 24.4473 51.7824 25.7902C55.7469 26.0902 59.6363 27.3676 62.9879 29.5121C66.5023 31.7434 69.425 34.8957 71.3855 38.5684C72.9816 41.5367 73.9273 44.8438 74.1887 48.2023C75.5387 48.207 76.8898 48.1965 78.2398 48.2059C79.1281 48.2 79.898 48.9441 80 49.8125V50.1781C79.9016 51.0465 79.134 51.7977 78.2457 51.793C76.8934 51.8035 75.541 51.7918 74.1887 51.7977C73.8793 55.8359 72.5586 59.7945 70.3461 63.1895C68.1148 66.6395 64.9918 69.5047 61.3637 71.4324C58.4094 73.0156 55.1199 73.9484 51.7813 74.2086C51.7754 75.5504 51.7895 76.8934 51.7766 78.2352C51.7812 79.1199 51.0453 79.8875 50.1816 80H49.7598C48.9078 79.8746 48.1906 79.1199 48.1848 78.2469C48.1742 76.9016 48.1848 75.5551 48.1812 74.2098C45.002 73.9566 41.8672 73.0977 39.023 71.6492C35.2484 69.7414 31.9941 66.8246 29.6785 63.2855C27.4297 59.8707 26.082 55.8758 25.7762 51.8C24.4379 51.7895 23.0996 51.8047 21.7625 51.7941C20.8906 51.8023 20.1535 51.0887 20 50.2543V49.7715C20.1324 48.9195 20.8871 48.2012 21.7648 48.2059C23.1008 48.1977 24.4379 48.2082 25.775 48.2012C25.9637 45.7766 26.5027 43.3777 27.3969 41.116C29.0973 36.7777 32.0867 32.9609 35.8777 30.2539C39.4684 27.6758 43.7762 26.1242 48.1824 25.7891C48.1859 24.4461 48.1754 23.1031 48.1848 21.759C48.1859 20.8695 48.9301 20.0984 49.8031 20ZM48.8738 29.3328C46.9062 29.4383 44.9539 29.8227 43.0965 30.4801C39.0582 31.8934 35.4945 34.6074 33.0418 38.1102C30.5305 41.6574 29.2004 46.0156 29.2906 50.3586C29.3492 54.4426 30.6594 58.4984 33.0078 61.8406C35.1781 64.952 38.2191 67.4504 41.6973 68.9668C45.1297 70.4738 48.9781 71.0105 52.6918 70.5148C57.0371 69.957 61.1738 67.9496 64.3215 64.9074C67.9684 61.4211 70.2676 56.5648 70.6191 51.5281C70.9051 47.7746 70.1422 43.9449 68.4207 40.5945C66.5914 36.998 63.6816 33.9617 60.1672 31.9789C56.7594 30.0359 52.7879 29.1207 48.8738 29.3328Z" fill="#183D3D"/>
<path d="M48.1872 38.1348C50.4981 37.7891 52.911 38.1207 55.0298 39.111C57.8622 40.4141 60.1391 42.8715 61.2208 45.7965C62.3376 48.7567 62.2134 52.1586 60.8762 55.0262C59.7009 57.5879 57.5891 59.7055 55.0309 60.8867C52.4235 62.1031 49.3696 62.3317 46.611 61.5137C43.6942 60.6723 41.1395 58.6672 39.6161 56.0434C38.1044 53.4817 37.6192 50.3445 38.2579 47.4418C38.8333 44.7442 40.3895 42.275 42.5587 40.5746C44.1805 39.2902 46.1411 38.4406 48.1872 38.1348Z" fill="#183D3D"/>
</g>
</g>
<path d="M66.331 12.5789L66.331 12.5789L66.3318 12.576C66.4941 11.9317 66.6914 11.2939 66.912 10.6608C67.8998 11.0652 68.8564 11.4694 69.7527 11.9891L69.753 11.9893C70.7107 12.5435 71.5937 13.2349 72.3909 14.022L72.3927 14.0238C73.3905 14.9987 74.1365 16.2375 74.6522 17.5807C74.9959 18.5187 75.1556 19.5349 75.1789 20.5647L75.1789 20.5647L75.179 20.5691C75.2046 21.3832 75.117 22.197 75.025 23.0513C75.0159 23.1357 75.0067 23.2206 74.9977 23.3059C74.8983 24.239 74.8076 25.2182 74.9007 26.21L74.9006 26.21L74.9019 26.2214C74.9118 26.3063 74.9205 26.4036 74.9297 26.5082C74.9416 26.642 74.9546 26.7877 74.9726 26.9347C74.6919 26.843 74.4113 26.7541 74.1332 26.6659C74.0075 26.626 73.8824 26.5863 73.758 26.5466C73.0998 26.3366 72.4556 26.1243 71.8276 25.8765C71.0514 25.5673 70.3164 25.1943 69.6703 24.7072L69.6703 24.7072L69.666 24.704C68.9442 24.1718 68.2816 23.5931 67.7618 22.9046L67.7618 22.9046L67.7603 22.9026C67.2641 22.2521 66.8986 21.4972 66.5242 20.6951C66.2133 20.0239 66.0123 19.2956 65.9237 18.5482L65.9238 18.5482L65.9226 18.5396C65.6543 16.5687 65.8264 14.5319 66.331 12.5789ZM68.495 17.5078L68.4989 17.5194L68.5035 17.5308C68.9151 18.5628 69.38 19.5747 69.8386 20.5728C69.9927 20.9081 70.146 21.242 70.2964 21.5745C70.4698 21.9718 70.9374 22.417 71.5516 22.2906C71.9102 22.2262 72.1679 21.9766 72.3018 21.712C72.4358 21.4472 72.4834 21.0937 72.329 20.7679C72.1006 20.25 71.875 19.7224 71.648 19.1918C71.2638 18.2935 70.8759 17.3864 70.4645 16.5028C70.3436 16.2258 70.0811 15.8683 69.6292 15.7857C69.0146 15.667 68.4075 16.1387 68.3443 16.7535C68.3242 16.9407 68.3591 17.1039 68.3956 17.2256C68.4157 17.2929 68.4535 17.395 68.4768 17.458C68.4853 17.4811 68.4919 17.499 68.495 17.5078Z" stroke="#A7D397"/>
<path d="M94.6325 15.4778L94.6313 15.4776C92.6964 15.168 90.7015 15.2231 88.7756 15.6049L94.6325 15.4778ZM94.6325 15.4778C94.9034 15.5204 95.1703 15.5756 95.4506 15.6334C95.5181 15.6474 95.5864 15.6615 95.6557 15.6756C95.8518 15.7156 96.054 15.7552 96.2607 15.7892C96.081 17.5052 95.7983 19.1923 95.2165 20.7848L95.2157 20.7871M94.6325 15.4778L95.2157 20.7871M95.2157 20.7871C94.94 21.5532 94.5451 22.2814 94.1186 23.0285C93.4714 24.1582 92.716 25.2206 91.8034 26.1348L91.8033 26.1349M95.2157 20.7871L91.8033 26.1349M91.8033 26.1349C90.6436 27.2976 89.2826 28.2736 87.7885 28.9912L87.7874 28.9917M91.8033 26.1349L87.7874 28.9917M87.7874 28.9917C86.3095 29.7059 84.7005 30.166 83.0559 30.3861L83.0559 30.3861M87.7874 28.9917L83.0559 30.3861M83.0559 30.3861L83.0502 30.3869M83.0559 30.3861L83.0502 30.3869M83.0502 30.3869C82.2325 30.5059 81.3944 30.5083 80.528 30.4938C80.4778 30.4919 80.428 30.4901 80.3787 30.4882C79.9326 30.4716 79.5222 30.4563 79.1318 30.3913C79.1692 30.1044 79.259 29.8032 79.3667 29.4641C79.5786 28.8054 79.9002 28.1842 80.3338 27.6504C80.3924 27.5793 80.4544 27.4979 80.5082 27.4273C80.533 27.3946 80.5561 27.3643 80.5763 27.3384C80.6495 27.2444 80.7124 27.1703 80.7779 27.1088L80.7779 27.1088L80.7803 27.1065C80.9019 26.991 81.0047 26.886 81.0996 26.7891C81.2801 26.6048 81.432 26.4497 81.6299 26.3067L81.6378 26.301L81.6455 26.2949C82.403 25.701 83.2665 25.2342 84.1879 24.9202C84.6059 24.7795 85.0285 24.6529 85.4604 24.5235C85.533 24.5017 85.6058 24.4799 85.6789 24.4579C86.1826 24.3065 86.6968 24.1484 87.2048 23.9626C88.9822 23.3355 90.5965 22.2948 91.8946 20.9664L91.8946 20.9664L91.8988 20.9619C91.9194 20.9404 91.9402 20.9186 91.9615 20.8964C92.286 20.5572 92.6835 20.1418 92.9239 19.6229L93.559 18.253L92.2318 18.9732C92.1253 19.031 91.9831 19.1096 91.85 19.2169L91.8499 19.2168L91.8411 19.2243C91.2298 19.7414 90.4872 20.1104 89.6906 20.4745M83.0502 30.3869L89.6906 20.4745M89.6906 20.4745C88.8369 20.8491 87.9887 21.1865 87.1124 21.4054L87.1124 21.4054L87.1095 21.4061C86.6387 21.5267 86.1644 21.6273 85.6782 21.7304C85.5517 21.7572 85.4244 21.7842 85.2962 21.8118C84.6815 21.9439 84.0525 22.0876 83.4321 22.2828L83.4321 22.2828L83.4293 22.2837C81.7742 22.8152 80.2241 23.7152 79.0048 24.9528C78.4549 25.5067 77.9777 26.1282 77.5874 26.7978C77.6372 26.3942 77.6999 25.9962 77.7842 25.6047C78.0398 24.5943 78.372 23.6135 78.8472 22.7076C79.2098 22.0408 79.5936 21.4025 80.0483 20.8229C80.6031 20.1181 81.1797 19.4565 81.8458 18.8999C82.4932 18.3692 83.1328 17.8664 83.8244 17.451L89.6906 20.4745ZM83.8246 17.4509C85.3277 16.5488 87.0247 15.9524 88.7755 15.6049L83.8246 17.4509Z" stroke="#A7D397"/>
<defs>
<clipPath id="clip0_3946_59454">
<rect width="60" height="60" fill="white" transform="translate(20 20)"/>
</clipPath>
<clipPath id="clip1_3946_59454">
<rect width="60" height="60" fill="white" transform="translate(20 20)"/>
</clipPath>
</defs>
</svg>