<svg width="100" height="100" viewBox="0 0 100 100" fill="none" xmlns="http://www.w3.org/2000/svg">
<mask id="path-1-inside-1_3957_10668" fill="white">
<path d="M100 50C100 56.5661 98.7067 63.0679 96.194 69.1342C93.6812 75.2005 89.9983 80.7124 85.3553 85.3553C80.7124 89.9983 75.2004 93.6812 69.1342 96.194C63.0679 98.7067 56.5661 100 50 100C43.4339 100 36.9321 98.7067 30.8658 96.194C24.7995 93.6812 19.2876 89.9983 14.6447 85.3553C10.0017 80.7124 6.31876 75.2004 3.80602 69.1342C1.29329 63.0679 -5.74026e-07 56.5661 0 50L50 50H100Z"/>
</mask>
<path d="M100 50C100 56.5661 98.7067 63.0679 96.194 69.1342C93.6812 75.2005 89.9983 80.7124 85.3553 85.3553C80.7124 89.9983 75.2004 93.6812 69.1342 96.194C63.0679 98.7067 56.5661 100 50 100C43.4339 100 36.9321 98.7067 30.8658 96.194C24.7995 93.6812 19.2876 89.9983 14.6447 85.3553C10.0017 80.7124 6.31876 75.2004 3.80602 69.1342C1.29329 63.0679 -5.74026e-07 56.5661 0 50L50 50H100Z" fill="white" stroke="#183D3D" stroke-width="2" stroke-dasharray="6 6" mask="url(#path-1-inside-1_3957_10668)"/>
<rect width="58" height="58" transform="translate(21.5 21)" fill="white"/>
<path d="M42.0688 24.8573C44.2468 24.408 46.5966 24.8626 48.437 26.1134C50.3344 27.3748 51.6823 29.4325 52.062 31.6811C52.2487 32.7147 52.1706 33.7684 52.1875 34.8125C55.5625 34.8136 58.9375 34.8114 62.3125 34.8125C62.3125 37.0906 62.3125 39.3687 62.3125 41.6458C61.1903 41.5414 60.0597 41.5414 58.9375 41.6458C58.9365 40.493 58.9386 39.3403 58.9375 38.1875C56.6879 38.1875 54.4372 38.1875 52.1875 38.1875C52.1865 39.3128 52.1886 40.4371 52.1875 41.5625C51.0622 41.5625 49.9379 41.5625 48.8125 41.5625C48.8115 40.4371 48.8136 39.3128 48.8125 38.1875C45.4375 38.1875 42.0625 38.1875 38.6875 38.1875C38.6865 39.3128 38.6886 40.4371 38.6875 41.5625C37.5622 41.5625 36.4379 41.5625 35.3125 41.5625C35.3115 40.4371 35.3136 39.3128 35.3125 38.1875C33.0629 38.1875 30.8122 38.1875 28.5625 38.1875C28.5615 48.1016 28.5625 58.0167 28.5625 67.9307C28.5615 68.4528 28.5383 68.9875 28.6965 69.4938C29.092 70.9408 30.539 71.9987 32.0388 71.9375C36.7922 71.9375 41.5457 71.9375 46.2992 71.9375C47.3623 73.2179 48.6016 74.3496 49.9579 75.3114C43.9525 75.3136 37.9461 75.3125 31.9396 75.3114C30.1467 75.3199 28.3674 74.5711 27.1208 73.2833C26.142 72.3014 25.4902 71.0052 25.2729 69.6383C25.1664 69.0055 25.1886 68.3632 25.1875 67.7251C25.1875 56.7542 25.1875 45.7834 25.1875 34.8125C28.5625 34.8114 31.9375 34.8136 35.3125 34.8125C35.3167 34.1438 35.3041 33.4762 35.3199 32.8086C35.379 31.004 36.0487 29.2279 37.1878 27.8284C38.408 26.3159 40.1609 25.237 42.0688 24.8573ZM42.3684 28.2597C40.7389 28.709 39.3889 30.0358 38.909 31.6558C38.5831 32.6768 38.7149 33.7599 38.6875 34.8125C42.0625 34.8125 45.4375 34.8125 48.8125 34.8125C48.803 34.1059 48.8347 33.3982 48.7893 32.6926C48.6701 31.1633 47.8 29.7215 46.5144 28.8883C45.3099 28.0899 43.7553 27.8568 42.3684 28.2597Z" fill="#183D3D"/>
<path d="M59.0967 45.0166C62.2355 44.6949 65.4691 45.3773 68.1976 46.9646C71.5568 48.8936 74.1302 52.1494 75.2029 55.8746C76.2997 59.5913 75.8958 63.7246 74.0828 67.1513C72.4259 70.3301 69.6098 72.8857 66.2802 74.2177C62.3747 75.8061 57.8026 75.6532 54.0173 73.7927C49.8524 71.8014 46.7094 67.8126 45.7718 63.2891C45.1358 60.3096 45.4174 57.1371 46.5923 54.3232C47.8411 51.2951 50.1023 48.6996 52.9268 47.0416C54.8052 45.931 56.9262 45.2339 59.0967 45.0166ZM59.3013 48.3884C56.2649 48.7164 53.3972 50.2953 51.4745 52.6662C49.7184 54.8009 48.7545 57.5695 48.8167 60.3349C48.8525 62.9853 49.8281 65.6073 51.5241 67.6439C53.0945 69.5455 55.2703 70.9429 57.6602 71.5578C60.2168 72.2254 62.997 72.0018 65.4101 70.9218C68.1386 69.7184 70.3671 67.4414 71.5167 64.6897C72.5851 62.1637 72.7264 59.2612 71.9101 56.6435C71.0495 53.8253 69.0846 51.369 66.5312 49.9009C64.368 48.6342 61.7904 48.1047 59.3013 48.3884Z" fill="#183D3D"/>
<path d="M58.9386 61.1122C61.1904 58.8647 63.4368 56.6129 65.6876 54.3654C66.4859 55.1574 67.2791 55.9548 68.0743 56.75C65.0284 59.7949 61.9856 62.8429 58.9376 65.8847C57.018 63.9651 55.0964 62.0466 53.179 60.125C53.9721 59.3287 54.7673 58.5345 55.5625 57.7404C56.6911 58.8604 57.8111 59.9889 58.9386 61.1122Z" fill="#183D3D"/>
<path d="M66.331 12.5789L66.331 12.5789L66.3318 12.576C66.4941 11.9317 66.6914 11.2939 66.912 10.6608C67.8998 11.0652 68.8564 11.4694 69.7527 11.9891L69.753 11.9893C70.7107 12.5435 71.5937 13.2349 72.3909 14.022L72.3927 14.0238C73.3905 14.9987 74.1365 16.2375 74.6522 17.5807C74.9959 18.5187 75.1556 19.5349 75.1789 20.5647L75.1789 20.5647L75.179 20.5691C75.2046 21.3832 75.117 22.197 75.025 23.0513C75.0159 23.1357 75.0067 23.2206 74.9977 23.3059C74.8983 24.239 74.8076 25.2182 74.9007 26.21L74.9006 26.21L74.9019 26.2214C74.9118 26.3063 74.9205 26.4036 74.9297 26.5082C74.9416 26.642 74.9546 26.7877 74.9726 26.9347C74.6919 26.843 74.4113 26.7541 74.1332 26.6659C74.0075 26.626 73.8824 26.5863 73.758 26.5466C73.0998 26.3366 72.4556 26.1243 71.8276 25.8765C71.0514 25.5673 70.3164 25.1943 69.6703 24.7072L69.6703 24.7072L69.666 24.704C68.9442 24.1718 68.2816 23.5931 67.7618 22.9046L67.7618 22.9046L67.7603 22.9026C67.2641 22.2521 66.8986 21.4972 66.5242 20.6951C66.2133 20.0239 66.0123 19.2956 65.9237 18.5482L65.9238 18.5482L65.9226 18.5396C65.6543 16.5687 65.8264 14.5319 66.331 12.5789ZM68.495 17.5078L68.4989 17.5194L68.5035 17.5308C68.9151 18.5628 69.38 19.5747 69.8386 20.5728C69.9927 20.9081 70.146 21.242 70.2964 21.5745C70.4698 21.9718 70.9374 22.417 71.5516 22.2906C71.9102 22.2262 72.1679 21.9766 72.3018 21.712C72.4358 21.4472 72.4834 21.0937 72.329 20.7679C72.1006 20.25 71.875 19.7224 71.648 19.1918C71.2638 18.2935 70.8759 17.3864 70.4645 16.5028C70.3436 16.2258 70.0811 15.8683 69.6292 15.7857C69.0146 15.667 68.4075 16.1387 68.3443 16.7535C68.3242 16.9407 68.3591 17.1039 68.3956 17.2256C68.4157 17.2929 68.4535 17.395 68.4768 17.458C68.4853 17.4811 68.4919 17.499 68.495 17.5078Z" stroke="#A7D397"/>
<path d="M94.6326 15.4778L94.6314 15.4776C92.6965 15.1681 90.7017 15.2231 88.7757 15.6049L94.6326 15.4778ZM94.6326 15.4778C94.9035 15.5205 95.1704 15.5756 95.4507 15.6334C95.5182 15.6474 95.5865 15.6615 95.6558 15.6756C95.852 15.7156 96.0541 15.7553 96.2608 15.7892C96.0812 17.5052 95.7985 19.1923 95.2167 20.7848L95.2159 20.7871M94.6326 15.4778L95.2159 20.7871M95.2159 20.7871C94.9401 21.5532 94.5452 22.2814 94.1187 23.0285C93.4715 24.1582 92.7161 25.2207 91.8036 26.1348L91.8034 26.135M95.2159 20.7871L91.8034 26.135M91.8034 26.135C90.6438 27.2976 89.2827 28.2736 87.7886 28.9912L87.7875 28.9917M91.8034 26.135L87.7875 28.9917M87.7875 28.9917C86.3096 29.7059 84.7006 30.166 83.056 30.3861L83.056 30.3861M87.7875 28.9917L83.056 30.3861M83.056 30.3861L83.0503 30.3869M83.056 30.3861L83.0503 30.3869M83.0503 30.3869C82.2327 30.5059 81.3945 30.5083 80.5281 30.4939C80.4779 30.4919 80.4282 30.4901 80.3788 30.4882C79.9327 30.4716 79.5223 30.4563 79.1319 30.3913C79.1693 30.1044 79.2591 29.8032 79.3668 29.4641C79.5787 28.8054 79.9003 28.1842 80.3339 27.6504C80.3925 27.5793 80.4545 27.4979 80.5083 27.4273C80.5332 27.3947 80.5563 27.3643 80.5764 27.3384C80.6496 27.2444 80.7125 27.1703 80.778 27.1088L80.778 27.1088L80.7805 27.1066C80.902 26.991 81.0048 26.886 81.0997 26.7891C81.2802 26.6048 81.4321 26.4498 81.63 26.3068L81.6379 26.301L81.6457 26.295C82.4032 25.701 83.2666 25.2343 84.1881 24.9202C84.606 24.7796 85.0286 24.6529 85.4606 24.5235C85.5331 24.5017 85.606 24.4799 85.6791 24.4579C86.1828 24.3065 86.6969 24.1484 87.2049 23.9626C88.9823 23.3355 90.5966 22.2949 91.8947 20.9664L91.8947 20.9664L91.899 20.962C91.9195 20.9404 91.9404 20.9186 91.9616 20.8964C92.2861 20.5572 92.6836 20.1418 92.9241 19.623L93.5591 18.253L92.2319 18.9732C92.1254 19.031 91.9832 19.1096 91.8501 19.2169L91.8501 19.2168L91.8412 19.2243C91.23 19.7414 90.4873 20.1104 89.6907 20.4745M83.0503 30.3869L89.6907 20.4745M89.6907 20.4745C88.837 20.8491 87.9888 21.1865 87.1125 21.4054L87.1125 21.4054L87.1096 21.4061C86.6388 21.5267 86.1645 21.6273 85.6783 21.7304C85.5518 21.7573 85.4245 21.7843 85.2963 21.8118C84.6817 21.9439 84.0527 22.0876 83.4322 22.2828L83.4322 22.2828L83.4294 22.2837C81.7743 22.8152 80.2242 23.7152 79.0049 24.9528C78.455 25.5067 77.9779 26.1283 77.5875 26.7978C77.6373 26.3942 77.7 25.9962 77.7844 25.6047C78.0399 24.5943 78.3721 23.6135 78.8473 22.7076C79.2099 22.0408 79.5938 21.4026 80.0484 20.8229C80.6032 20.1182 81.1799 19.4565 81.846 18.8999C82.4933 18.3692 83.1329 17.8664 83.8245 17.451L89.6907 20.4745ZM83.8247 17.4509C85.3278 16.5489 87.0248 15.9525 88.7756 15.6049L83.8247 17.4509Z" stroke="#A7D397"/>
</svg>
