<svg width="100" height="100" viewBox="0 0 100 100" fill="none" xmlns="http://www.w3.org/2000/svg">
<mask id="path-1-inside-1_3946_59439" fill="white">
<path d="M100 50C100 56.5661 98.7067 63.0679 96.194 69.1342C93.6812 75.2005 89.9983 80.7124 85.3553 85.3553C80.7124 89.9983 75.2004 93.6812 69.1342 96.194C63.0679 98.7067 56.5661 100 50 100C43.4339 100 36.9321 98.7067 30.8658 96.194C24.7995 93.6812 19.2876 89.9983 14.6447 85.3553C10.0017 80.7124 6.31876 75.2004 3.80602 69.1342C1.29329 63.0679 -5.74026e-07 56.5661 0 50L50 50H100Z"/>
</mask>
<path d="M100 50C100 56.5661 98.7067 63.0679 96.194 69.1342C93.6812 75.2005 89.9983 80.7124 85.3553 85.3553C80.7124 89.9983 75.2004 93.6812 69.1342 96.194C63.0679 98.7067 56.5661 100 50 100C43.4339 100 36.9321 98.7067 30.8658 96.194C24.7995 93.6812 19.2876 89.9983 14.6447 85.3553C10.0017 80.7124 6.31876 75.2004 3.80602 69.1342C1.29329 63.0679 -5.74026e-07 56.5661 0 50L50 50H100Z" fill="white" stroke="#183D3D" stroke-width="2" stroke-dasharray="6 6" mask="url(#path-1-inside-1_3946_59439)"/>
<rect width="49.9977" height="60" transform="translate(25 22)" fill="white"/>
<path d="M42.499 22H57.499C57.4966 23.6676 57.5025 25.334 57.4966 27.0016C55.8279 27.0098 54.1591 26.977 52.4915 27.018C52.5103 28.7195 52.4904 30.4223 52.5021 32.125C56.7619 32.5469 60.8986 34.0984 64.3919 36.5723C65.6751 35.2949 66.9478 34.0082 68.2357 32.7344C69.4123 33.9121 70.5935 35.0863 71.7654 36.2688C70.5712 37.4723 69.3619 38.6582 68.1759 39.8699C72.0689 43.9609 74.483 49.416 74.9177 55.0445C75.3068 59.8328 74.2685 64.7242 71.9716 68.9441C69.929 72.727 66.8845 75.959 63.2353 78.2324C59.6775 80.4707 55.5455 81.7504 51.3537 82H48.649C43.1142 81.6871 37.7025 79.5027 33.5376 75.8395C30.3466 73.0551 27.888 69.4422 26.4642 65.4531C24.9759 61.3187 24.6115 56.7871 25.4201 52.4676C26.2814 47.7637 28.5396 43.334 31.8232 39.8605C30.6279 38.6605 29.4267 37.4676 28.2337 36.2664C29.4091 35.0898 30.5869 33.9156 31.7587 32.7355C33.056 34.0023 34.324 35.2984 35.6119 36.5746C39.1029 34.102 43.2384 32.548 47.497 32.125C47.5064 30.4223 47.4888 28.7195 47.5064 27.018C45.8388 26.9781 44.1701 27.0098 42.5025 27.0016C42.4943 25.334 42.5013 23.6676 42.499 22ZM48.1755 37.0832C45.424 37.3363 42.7275 38.1637 40.3111 39.5043C37.0041 41.3301 34.2361 44.1156 32.4349 47.4355C30.5517 50.8809 29.7208 54.8898 30.0806 58.7992C30.4275 62.7109 31.965 66.5055 34.4353 69.557C36.5798 72.2219 39.4251 74.316 42.6044 75.5793C45.4896 76.7313 48.6478 77.1977 51.7427 76.9176C56.5439 76.5215 61.1494 74.2855 64.4611 70.7945C67.8091 67.3082 69.8201 62.5738 69.9794 57.741C70.1353 53.9148 69.1451 50.0535 67.1798 46.7676C65.2943 43.5883 62.5052 40.9516 59.2205 39.2547C55.8466 37.4934 51.9642 36.7293 48.1755 37.0832Z" fill="#183D3D"/>
<path d="M50 41.9992C53.3551 41.9922 56.6961 43.1547 59.32 45.2476C61.9989 47.3617 63.9125 50.4191 64.6414 53.7531C65.3328 56.8375 65.0071 60.1375 63.7309 63.0285C62.4477 65.9723 60.1848 68.4777 57.3864 70.0527C54.5633 71.657 51.2094 72.3051 47.9926 71.8633C44.6106 71.4156 41.4032 69.7668 39.0735 67.2742C36.4754 64.5332 34.986 60.7785 34.9989 57.0004C39.9969 57.0016 44.995 56.9957 49.993 57.0039C50.0071 52.0023 49.9942 47.0008 50 41.9992Z" fill="#183D3D"/>
<path d="M63.331 12.5789L63.331 12.5789L63.3318 12.576C63.4941 11.9317 63.6914 11.2939 63.912 10.6608C64.8998 11.0652 65.8564 11.4694 66.7527 11.9891L66.753 11.9893C67.7107 12.5435 68.5937 13.2349 69.3909 14.022L69.3927 14.0238C70.3905 14.9987 71.1365 16.2375 71.6522 17.5807C71.9959 18.5187 72.1556 19.5349 72.1789 20.5647L72.1789 20.5647L72.179 20.5691C72.2046 21.3832 72.117 22.197 72.025 23.0513C72.0159 23.1357 72.0067 23.2206 71.9977 23.3059C71.8983 24.239 71.8076 25.2182 71.9007 26.21L71.9006 26.21L71.9019 26.2214C71.9118 26.3063 71.9205 26.4036 71.9297 26.5082C71.9416 26.642 71.9546 26.7877 71.9726 26.9347C71.6919 26.843 71.4113 26.7541 71.1332 26.6659C71.0075 26.626 70.8824 26.5863 70.758 26.5466C70.0998 26.3366 69.4556 26.1243 68.8276 25.8765C68.0514 25.5673 67.3164 25.1943 66.6703 24.7072L66.6703 24.7072L66.666 24.704C65.9442 24.1718 65.2816 23.5931 64.7618 22.9046L64.7618 22.9046L64.7603 22.9026C64.2641 22.2521 63.8986 21.4972 63.5242 20.6951C63.2133 20.0239 63.0123 19.2956 62.9237 18.5482L62.9238 18.5482L62.9226 18.5396C62.6543 16.5687 62.8264 14.5319 63.331 12.5789ZM65.495 17.5078L65.4989 17.5194L65.5035 17.5308C65.9151 18.5628 66.38 19.5747 66.8386 20.5728C66.9927 20.9081 67.146 21.242 67.2964 21.5745C67.4698 21.9718 67.9374 22.417 68.5516 22.2906C68.9102 22.2262 69.1679 21.9766 69.3018 21.712C69.4358 21.4472 69.4834 21.0937 69.329 20.7679C69.1006 20.25 68.875 19.7224 68.648 19.1918C68.2638 18.2935 67.8759 17.3864 67.4645 16.5028C67.3436 16.2258 67.0811 15.8683 66.6292 15.7857C66.0146 15.667 65.4075 16.1387 65.3443 16.7535C65.3242 16.9407 65.3591 17.1039 65.3956 17.2256C65.4157 17.2929 65.4535 17.395 65.4768 17.458C65.4853 17.4811 65.4919 17.499 65.495 17.5078Z" stroke="#A7D397"/>
<path d="M91.6325 15.4778L91.6313 15.4776C89.6964 15.168 87.7015 15.2231 85.7756 15.6049L91.6325 15.4778ZM91.6325 15.4778C91.9034 15.5204 92.1703 15.5756 92.4506 15.6334C92.5181 15.6474 92.5864 15.6615 92.6557 15.6756C92.8518 15.7156 93.054 15.7552 93.2607 15.7892C93.081 17.5052 92.7983 19.1923 92.2165 20.7848L92.2157 20.7871M91.6325 15.4778L92.2157 20.7871M92.2157 20.7871C91.94 21.5532 91.5451 22.2814 91.1186 23.0285C90.4714 24.1582 89.716 25.2206 88.8034 26.1348L88.8033 26.1349M92.2157 20.7871L88.8033 26.1349M88.8033 26.1349C87.6436 27.2976 86.2826 28.2736 84.7885 28.9912L84.7874 28.9917M88.8033 26.1349L84.7874 28.9917M84.7874 28.9917C83.3095 29.7059 81.7005 30.166 80.0559 30.3861L80.0559 30.3861M84.7874 28.9917L80.0559 30.3861M80.0559 30.3861L80.0502 30.3869M80.0559 30.3861L80.0502 30.3869M80.0502 30.3869C79.2325 30.5059 78.3944 30.5083 77.528 30.4938C77.4778 30.4919 77.428 30.4901 77.3787 30.4882C76.9326 30.4716 76.5222 30.4563 76.1318 30.3913C76.1692 30.1044 76.259 29.8032 76.3667 29.4641C76.5786 28.8054 76.9002 28.1842 77.3338 27.6504C77.3924 27.5793 77.4544 27.4979 77.5082 27.4273C77.533 27.3946 77.5561 27.3643 77.5763 27.3384C77.6495 27.2444 77.7124 27.1703 77.7779 27.1088L77.7779 27.1088L77.7803 27.1065C77.9019 26.991 78.0047 26.886 78.0996 26.7891C78.2801 26.6048 78.432 26.4497 78.6299 26.3067L78.6378 26.301L78.6455 26.2949C79.403 25.701 80.2665 25.2342 81.1879 24.9202C81.6059 24.7795 82.0285 24.6529 82.4604 24.5235C82.533 24.5017 82.6058 24.4799 82.6789 24.4579C83.1826 24.3065 83.6968 24.1484 84.2048 23.9626C85.9822 23.3355 87.5965 22.2948 88.8946 20.9664L88.8946 20.9664L88.8988 20.9619C88.9194 20.9404 88.9402 20.9186 88.9615 20.8964C89.286 20.5572 89.6835 20.1418 89.9239 19.6229L90.559 18.253L89.2318 18.9732C89.1253 19.031 88.9831 19.1096 88.85 19.2169L88.8499 19.2168L88.8411 19.2243C88.2298 19.7414 87.4872 20.1104 86.6906 20.4745M80.0502 30.3869L86.6906 20.4745M86.6906 20.4745C85.8369 20.8491 84.9887 21.1865 84.1124 21.4054L84.1124 21.4054L84.1095 21.4061C83.6387 21.5267 83.1644 21.6273 82.6782 21.7304C82.5517 21.7572 82.4244 21.7842 82.2962 21.8118C81.6815 21.9439 81.0525 22.0876 80.4321 22.2828L80.4321 22.2828L80.4293 22.2837C78.7742 22.8152 77.2241 23.7152 76.0048 24.9528C75.4549 25.5067 74.9777 26.1282 74.5874 26.7978C74.6372 26.3942 74.6999 25.9962 74.7842 25.6047C75.0398 24.5943 75.372 23.6135 75.8472 22.7076C76.2098 22.0408 76.5936 21.4025 77.0483 20.8229C77.6031 20.1181 78.1797 19.4565 78.8458 18.8999C79.4932 18.3692 80.1328 17.8664 80.8244 17.451L86.6906 20.4745ZM80.8246 17.4509C82.3277 16.5488 84.0247 15.9524 85.7755 15.6049L80.8246 17.4509Z" stroke="#A7D397"/>
</svg>
