<svg width="100" height="100" viewBox="0 0 100 100" fill="none" xmlns="http://www.w3.org/2000/svg">
<mask id="path-1-inside-1_3957_10587" fill="white">
<path d="M100 50C100 56.5661 98.7067 63.0679 96.194 69.1342C93.6812 75.2005 89.9983 80.7124 85.3553 85.3553C80.7124 89.9983 75.2004 93.6812 69.1342 96.194C63.0679 98.7067 56.5661 100 50 100C43.4339 100 36.9321 98.7067 30.8658 96.194C24.7995 93.6812 19.2876 89.9983 14.6447 85.3553C10.0017 80.7124 6.31876 75.2004 3.80602 69.1342C1.29329 63.0679 -5.74026e-07 56.5661 0 50L50 50H100Z"/>
</mask>
<path d="M100 50C100 56.5661 98.7067 63.0679 96.194 69.1342C93.6812 75.2005 89.9983 80.7124 85.3553 85.3553C80.7124 89.9983 75.2004 93.6812 69.1342 96.194C63.0679 98.7067 56.5661 100 50 100C43.4339 100 36.9321 98.7067 30.8658 96.194C24.7995 93.6812 19.2876 89.9983 14.6447 85.3553C10.0017 80.7124 6.31876 75.2004 3.80602 69.1342C1.29329 63.0679 -5.74026e-07 56.5661 0 50L50 50H100Z" fill="white" stroke="#183D3D" stroke-width="2" stroke-dasharray="6 6" mask="url(#path-1-inside-1_3957_10587)"/>
<rect width="50.6307" height="50.6291" transform="translate(24.6847 24.6854)" fill="white"/>
<path d="M32.6542 29.7548C32.9325 29.702 33.2167 29.6884 33.4999 29.6854C37.2733 29.6893 41.0458 29.6815 44.8192 29.6893C46.539 29.6737 48.1239 31.038 48.3817 32.7352C48.454 33.1805 48.4354 33.6327 48.4364 34.0819C48.4354 37.6298 48.4384 41.1776 48.4354 44.7245C48.4403 45.5135 48.1942 46.3036 47.7235 46.9384C47.0409 47.8817 45.8905 48.454 44.7265 48.4354C40.9159 48.4354 37.1054 48.4403 33.2958 48.4325C31.5595 48.4403 29.9599 47.0468 29.7304 45.326C29.6776 44.9657 29.6864 44.6005 29.6854 44.2382C29.6903 40.5917 29.6815 36.9452 29.6893 33.2987C29.6796 31.6102 30.995 30.0487 32.6542 29.7548ZM33.1356 32.8505C32.871 32.9423 32.7899 33.2411 32.8095 33.494C32.8153 37.2411 32.8075 40.9882 32.8134 44.7352C32.7792 45.0575 33.0624 45.3417 33.3847 45.3094C37.1659 45.3134 40.9481 45.3124 44.7294 45.3094C45.0565 45.3446 45.3446 45.0575 45.3095 44.7313C45.3124 40.9501 45.3134 37.1678 45.3095 33.3866C45.3427 33.0653 45.0595 32.7802 44.7372 32.8134C41.122 32.8065 37.5058 32.8163 33.8895 32.8094C33.6386 32.8143 33.3817 32.788 33.1356 32.8505Z" fill="#183D3D"/>
<path d="M54.536 29.7528C54.8095 29.702 55.0878 29.6884 55.3661 29.6854C59.1112 29.6874 62.8573 29.6844 66.6024 29.6874C67.4149 29.6815 68.2294 29.9403 68.872 30.4423C69.7821 31.1288 70.327 32.2587 70.3104 33.3983C70.3114 37.1727 70.3124 40.9462 70.3104 44.7206C70.3202 45.6298 69.9852 46.5399 69.3739 47.2147C68.6835 47.995 67.6493 48.4471 66.6083 48.4354C63.0888 48.4384 59.5702 48.4354 56.0516 48.4364C55.3436 48.4403 54.6102 48.4725 53.9413 48.1991C52.5585 47.7001 51.5653 46.3007 51.5653 44.829C51.5595 40.9843 51.5595 37.1405 51.5643 33.2968C51.5555 31.6063 52.8749 30.0448 54.536 29.7528ZM55.0048 32.8524C54.745 32.9471 54.6659 33.2401 54.6845 33.4901C54.6903 37.2401 54.6815 40.9911 54.6893 44.7411C54.6552 45.0634 54.9442 45.3436 55.2655 45.3094C59.0468 45.3124 62.828 45.3134 66.6093 45.3094C66.9325 45.3436 67.2177 45.0575 67.1845 44.7343C67.1903 40.9872 67.1825 37.2391 67.1884 33.4911C67.2059 33.2401 67.1259 32.9442 66.8641 32.8514C66.5526 32.7772 66.2294 32.8192 65.913 32.8104C62.3964 32.8124 58.8807 32.8124 55.3641 32.8094C55.2421 32.8075 55.122 32.8221 55.0048 32.8524Z" fill="#183D3D"/>
<path d="M35.8778 34.2401C36.246 34.1483 36.6288 34.1649 37.0048 34.1639C38.6014 34.1737 40.1981 34.1522 41.7948 34.1737C42.9598 34.204 43.9667 35.2596 43.954 36.4237C43.9598 38.1815 43.9598 39.9393 43.954 41.6962C43.954 42.5751 43.3934 43.4198 42.5848 43.7626C42.1581 43.9628 41.6766 43.9637 41.2147 43.9589C39.5848 43.9481 37.955 43.9716 36.326 43.9481C35.161 43.9149 34.1522 42.8583 34.1688 41.6942C34.163 39.9384 34.163 38.1815 34.1688 36.4266C34.16 35.4198 34.9052 34.4803 35.8778 34.2401ZM36.6659 36.6659C36.6659 38.2626 36.6659 39.8602 36.6659 41.4569C38.2626 41.4569 39.8602 41.4569 41.4569 41.4569C41.4569 39.8602 41.4569 38.2626 41.4569 36.6659C39.8602 36.6659 38.2626 36.6659 36.6659 36.6659Z" fill="#183D3D"/>
<path d="M57.7588 34.2391C58.0938 34.1551 58.4434 34.1639 58.7871 34.1639C60.416 34.1747 62.0469 34.1512 63.6758 34.1747C64.8399 34.2089 65.8408 35.2626 65.8291 36.4247C65.8389 38.0848 65.8272 39.745 65.835 41.4051C65.8418 41.8544 65.794 42.3173 65.5742 42.7176C65.2002 43.4579 64.4004 43.954 63.5693 43.954C61.9102 43.9637 60.25 43.952 58.5908 43.9598C58.1924 43.9618 57.7813 43.9344 57.4141 43.7635C56.6065 43.4188 56.041 42.577 56.044 41.6962C56.0342 40.0692 56.0459 38.4432 56.0391 36.8163C56.0391 36.4569 56.0352 36.0887 56.1563 35.745C56.3867 35.0135 57.0156 34.4266 57.7588 34.2391ZM58.541 36.6659C58.541 38.2626 58.541 39.8602 58.541 41.4569C60.1377 41.4569 61.7354 41.4569 63.332 41.4569C63.332 39.8602 63.332 38.2626 63.332 36.6659C61.7354 36.6659 60.1377 36.6659 58.541 36.6659Z" fill="#183D3D"/>
<path d="M32.6572 51.6288C32.9335 51.577 33.2148 51.5634 33.496 51.5604C37.2392 51.5634 40.9833 51.5595 44.7265 51.5624C45.5644 51.5555 46.4052 51.8319 47.0566 52.3641C47.9306 53.0536 48.4511 54.1571 48.4355 55.2714C48.4364 59.0487 48.4374 62.8261 48.4355 66.6034C48.4443 67.5331 48.0907 68.4598 47.454 69.1385C46.7616 69.8925 45.7421 70.3241 44.7187 70.3104C40.8818 70.3075 37.0439 70.3202 33.206 70.3046C31.3593 70.2762 29.7245 68.6483 29.6943 66.8007C29.6757 62.9911 29.6923 59.1796 29.6855 55.37C29.6718 54.6659 29.8378 53.954 30.205 53.3505C30.7294 52.4628 31.6445 51.8221 32.6572 51.6288ZM33.1357 54.7255C32.8691 54.8173 32.7909 55.118 32.8095 55.3719C32.8154 59.119 32.8066 62.8671 32.8144 66.6141C32.7802 66.9364 33.0663 67.2167 33.3866 67.1845C37.1698 67.1884 40.954 67.1884 44.7372 67.1845C45.0605 67.2167 45.3437 66.9296 45.3095 66.6063C45.3154 62.8593 45.3075 59.1122 45.3134 55.3651C45.3876 54.9628 45.039 54.6093 44.6347 54.6854C40.9198 54.6874 37.205 54.6874 33.4911 54.6845C33.37 54.6825 33.2519 54.6962 33.1357 54.7255Z" fill="#183D3D"/>
<path d="M53.6532 52.6952C53.9833 52.578 54.3387 52.6034 54.6835 52.6014C55.9188 52.6102 57.1542 52.5927 58.3885 52.6083C59.2499 52.6093 59.9823 53.4452 59.8876 54.2977C59.8378 55.0927 59.0985 55.7567 58.3036 55.7274C56.9042 55.7255 55.5048 55.7352 54.1063 55.7225C53.3124 55.701 52.6151 54.994 52.6044 54.2001C52.5848 53.5409 53.038 52.9159 53.6532 52.6952Z" fill="#183D3D"/>
<path d="M63.5459 52.997C63.8428 52.7225 64.249 52.5966 64.6494 52.6024C65.6885 52.6053 66.7275 52.5975 67.7666 52.6073C68.7226 52.6151 69.6377 53.2069 70.0478 54.0692C70.2519 54.4696 70.3174 54.9227 70.3125 55.368C70.3115 57.2225 70.3105 59.078 70.3125 60.9325C70.3232 61.4813 70.3174 62.0526 70.0664 62.5555C69.6543 63.4677 68.6787 64.0809 67.6777 64.0604C65.5928 64.0604 63.5068 64.0653 61.4219 64.0585C60.3408 64.0624 59.3203 63.3104 58.9892 62.2841C58.7861 61.662 58.8603 60.995 58.8594 60.3514C58.8662 59.5956 59.5068 58.9218 60.2578 58.8622C60.9307 58.7782 61.6084 59.201 61.8603 59.8251C62.0117 60.1747 61.9726 60.5643 61.9814 60.9364C63.7168 60.9364 65.4512 60.9364 67.1865 60.9364C67.1865 59.2001 67.1865 57.4637 67.1865 55.7284C66.3057 55.7235 65.4248 55.7362 64.5449 55.7245C63.9072 55.7196 63.3076 55.2723 63.1045 54.6718C62.8984 54.0917 63.0781 53.3993 63.5459 52.997Z" fill="#183D3D"/>
<path d="M35.8779 56.1151C36.2167 56.0302 36.5683 56.038 36.915 56.0389C38.5107 56.0458 40.1054 56.0341 41.7011 56.0438C42.5986 56.0419 43.454 56.6298 43.7851 57.4628C43.9794 57.911 43.9599 58.41 43.9589 58.8885C43.9491 60.4823 43.9706 62.076 43.9482 63.6698C43.9159 64.8348 42.8622 65.8417 41.6972 65.829C39.9394 65.8348 38.1806 65.8348 36.4228 65.829C35.2607 65.8407 34.207 64.8358 34.1738 63.6727C34.1523 62.0751 34.1738 60.4774 34.164 58.8788C34.165 58.454 34.1435 58.0155 34.2831 57.6063C34.5195 56.8837 35.1406 56.3026 35.8779 56.1151ZM36.6659 58.5409C36.6659 60.1376 36.6659 61.7352 36.6659 63.3319C38.2626 63.3319 39.8603 63.3319 41.457 63.3319C41.457 61.7352 41.457 60.1376 41.457 58.5409C39.8603 58.5409 38.2626 58.5409 36.6659 58.5409Z" fill="#183D3D"/>
<path d="M52.6044 60.452C52.5722 59.6971 53.1591 58.9842 53.9061 58.8759C54.5575 58.7518 55.2479 59.1073 55.5477 59.6932C55.745 60.0409 55.7333 60.451 55.7304 60.8378C55.7255 62.954 55.7294 65.0702 55.7284 67.1864C56.621 67.1932 57.5145 67.1737 58.4071 67.1932C59.2411 67.2176 59.9559 68.0135 59.8886 68.8456C59.8446 69.6473 59.1073 70.33 58.3036 70.3094C57.2616 70.3134 56.2186 70.3143 55.1757 70.3085C54.1708 70.3114 53.2069 69.6649 52.8182 68.7401C52.6376 68.3456 52.5966 67.9071 52.6015 67.4794C52.6063 65.1366 52.6005 62.7938 52.6044 60.452Z" fill="#183D3D"/>
<path d="M64.1992 67.2343C64.4726 67.1727 64.7558 67.1854 65.0351 67.1844C66.2763 67.1923 67.5175 67.1786 68.7577 67.1893C69.5175 67.1844 70.207 67.8114 70.2978 68.5614C70.3837 69.1962 70.0156 69.8446 69.4511 70.1327C69.1201 70.3212 68.7275 70.3153 68.3574 70.3143C67.0859 70.3046 65.8144 70.3202 64.5429 70.3075C63.7587 70.3055 63.0507 69.6249 63.0224 68.8407C62.9648 68.1132 63.4892 67.3993 64.1992 67.2343Z" fill="#183D3D"/>
<path d="M66.331 12.5789L66.331 12.5789L66.3318 12.5759C66.4941 11.9316 66.6914 11.2939 66.912 10.6608C67.8998 11.0651 68.8564 11.4694 69.7527 11.9891L69.753 11.9893C70.7107 12.5435 71.5937 13.2349 72.3909 14.0219L72.3927 14.0238C73.3905 14.9987 74.1365 16.2375 74.6522 17.5807C74.9959 18.5187 75.1556 19.5349 75.1789 20.5647L75.1789 20.5647L75.179 20.5691C75.2046 21.3832 75.117 22.197 75.025 23.0513C75.0159 23.1357 75.0067 23.2206 74.9977 23.3059C74.8983 24.239 74.8076 25.2182 74.9007 26.21L74.9006 26.21L74.9019 26.2213C74.9118 26.3063 74.9205 26.4036 74.9297 26.5082C74.9416 26.642 74.9546 26.7877 74.9726 26.9347C74.6919 26.843 74.4113 26.7541 74.1332 26.6659C74.0075 26.626 73.8824 26.5863 73.758 26.5466C73.0998 26.3366 72.4556 26.1243 71.8276 25.8765C71.0514 25.5673 70.3164 25.1943 69.6703 24.7072L69.6703 24.7071L69.666 24.704C68.9442 24.1718 68.2816 23.5931 67.7618 22.9046L67.7618 22.9046L67.7603 22.9026C67.2641 22.2521 66.8986 21.4972 66.5242 20.6951C66.2133 20.0238 66.0123 19.2956 65.9237 18.5482L65.9238 18.5482L65.9226 18.5396C65.6543 16.5687 65.8264 14.5319 66.331 12.5789ZM68.495 17.5078L68.4989 17.5194L68.5035 17.5308C68.9151 18.5628 69.38 19.5747 69.8386 20.5727C69.9927 20.9081 70.146 21.2419 70.2964 21.5744C70.4698 21.9717 70.9374 22.417 71.5516 22.2906C71.9102 22.2262 72.1679 21.9766 72.3018 21.712C72.4358 21.4472 72.4834 21.0937 72.329 20.7679C72.1006 20.25 71.875 19.7224 71.648 19.1918C71.2638 18.2934 70.8759 17.3864 70.4645 16.5028C70.3436 16.2258 70.0811 15.8683 69.6292 15.7857C69.0146 15.667 68.4075 16.1387 68.3443 16.7535C68.3242 16.9407 68.3591 17.1039 68.3956 17.2256C68.4157 17.2929 68.4535 17.395 68.4768 17.458C68.4853 17.4811 68.4919 17.499 68.495 17.5078Z" stroke="#A7D397"/>
<path d="M94.6325 15.4778L94.6313 15.4776C92.6964 15.1681 90.7015 15.2231 88.7756 15.6049L94.6325 15.4778ZM94.6325 15.4778C94.9034 15.5205 95.1703 15.5756 95.4506 15.6334C95.5181 15.6474 95.5864 15.6615 95.6557 15.6756C95.8518 15.7156 96.054 15.7553 96.2607 15.7892C96.081 17.5052 95.7983 19.1923 95.2165 20.7848L95.2157 20.7871M94.6325 15.4778L95.2157 20.7871M95.2157 20.7871C94.94 21.5532 94.5451 22.2814 94.1186 23.0285C93.4714 24.1582 92.716 25.2207 91.8034 26.1348L91.8033 26.135M95.2157 20.7871L91.8033 26.135M91.8033 26.135C90.6436 27.2976 89.2826 28.2736 87.7885 28.9912L87.7874 28.9917M91.8033 26.135L87.7874 28.9917M87.7874 28.9917C86.3095 29.7059 84.7005 30.166 83.0559 30.3861L83.0559 30.3861M87.7874 28.9917L83.0559 30.3861M83.0559 30.3861L83.0502 30.3869M83.0559 30.3861L83.0502 30.3869M83.0502 30.3869C82.2325 30.5059 81.3944 30.5083 80.528 30.4939C80.4778 30.4919 80.428 30.4901 80.3787 30.4882C79.9326 30.4716 79.5222 30.4563 79.1318 30.3913C79.1692 30.1044 79.259 29.8032 79.3667 29.4641C79.5786 28.8054 79.9002 28.1842 80.3338 27.6504C80.3924 27.5793 80.4544 27.4979 80.5082 27.4273C80.533 27.3947 80.5561 27.3643 80.5763 27.3384C80.6495 27.2444 80.7124 27.1703 80.7779 27.1088L80.7779 27.1088L80.7803 27.1066C80.9019 26.991 81.0047 26.886 81.0996 26.7891C81.2801 26.6048 81.432 26.4498 81.6299 26.3068L81.6378 26.301L81.6455 26.295C82.403 25.701 83.2665 25.2343 84.1879 24.9202C84.6059 24.7796 85.0285 24.6529 85.4604 24.5235C85.533 24.5017 85.6058 24.4799 85.6789 24.4579C86.1826 24.3065 86.6968 24.1484 87.2048 23.9626C88.9822 23.3355 90.5965 22.2949 91.8946 20.9664L91.8946 20.9664L91.8988 20.962C91.9194 20.9404 91.9402 20.9186 91.9615 20.8964C92.286 20.5572 92.6835 20.1418 92.9239 19.623L93.559 18.253L92.2318 18.9732C92.1253 19.031 91.9831 19.1096 91.85 19.2169L91.8499 19.2168L91.8411 19.2243C91.2298 19.7414 90.4872 20.1104 89.6906 20.4745M83.0502 30.3869L89.6906 20.4745M89.6906 20.4745C88.8369 20.8491 87.9887 21.1865 87.1124 21.4054L87.1124 21.4054L87.1095 21.4061C86.6387 21.5267 86.1644 21.6273 85.6782 21.7304C85.5517 21.7573 85.4244 21.7843 85.2962 21.8118C84.6815 21.9439 84.0525 22.0876 83.4321 22.2828L83.4321 22.2828L83.4293 22.2837C81.7742 22.8152 80.2241 23.7152 79.0048 24.9528C78.4549 25.5067 77.9777 26.1283 77.5874 26.7978C77.6372 26.3942 77.6999 25.9962 77.7842 25.6047C78.0398 24.5943 78.372 23.6135 78.8472 22.7076C79.2098 22.0408 79.5936 21.4026 80.0483 20.8229C80.6031 20.1182 81.1797 19.4565 81.8458 18.8999C82.4932 18.3692 83.1328 17.8664 83.8244 17.451L89.6906 20.4745ZM83.8246 17.4509C85.3277 16.5489 87.0247 15.9525 88.7755 15.6049L83.8246 17.4509Z" stroke="#A7D397"/>
</svg>
