<svg width="100" height="100" viewBox="0 0 100 100" fill="none" xmlns="http://www.w3.org/2000/svg">
<mask id="path-1-inside-1_3957_10821" fill="white">
<path d="M100 50C100 56.5661 98.7067 63.0679 96.194 69.1342C93.6812 75.2005 89.9983 80.7124 85.3553 85.3553C80.7124 89.9983 75.2004 93.6812 69.1342 96.194C63.0679 98.7067 56.5661 100 50 100C43.4339 100 36.9321 98.7067 30.8658 96.194C24.7995 93.6812 19.2876 89.9983 14.6447 85.3553C10.0017 80.7124 6.31876 75.2004 3.80602 69.1342C1.29329 63.0679 -5.74026e-07 56.5661 0 50L50 50H100Z"/>
</mask>
<path d="M100 50C100 56.5661 98.7067 63.0679 96.194 69.1342C93.6812 75.2005 89.9983 80.7124 85.3553 85.3553C80.7124 89.9983 75.2004 93.6812 69.1342 96.194C63.0679 98.7067 56.5661 100 50 100C43.4339 100 36.9321 98.7067 30.8658 96.194C24.7995 93.6812 19.2876 89.9983 14.6447 85.3553C10.0017 80.7124 6.31876 75.2004 3.80602 69.1342C1.29329 63.0679 -5.74026e-07 56.5661 0 50L50 50H100Z" fill="white" stroke="#183D3D" stroke-width="2" stroke-dasharray="6 6" mask="url(#path-1-inside-1_3957_10821)"/>
<rect width="60" height="59.5953" transform="translate(20 20.2023)" fill="white"/>
<path d="M26.1512 29.5623C26.6692 29.1615 27.3547 29.2001 27.9735 29.206C38.2051 29.2095 48.4368 29.2048 58.6684 29.2084C59.6282 29.1521 60.5469 29.9185 60.6325 30.8818C60.6828 31.5814 60.6383 32.2845 60.6547 32.9853C63.2739 32.9876 65.893 32.9853 68.5133 32.9865C68.9387 32.9865 69.3817 33.0568 69.7414 33.3017C70.3602 33.699 70.5887 34.4373 70.9227 35.0525C72.4532 38.0935 73.9825 41.1369 75.5129 44.1779C75.766 44.6619 75.9735 45.1763 76.3086 45.6134C77.3703 46.9763 78.4297 48.3416 79.4891 49.7056C79.7809 50.0748 79.9625 50.5224 80 50.9935V63.4271C79.9368 64.3787 79.093 65.1955 78.1332 65.1884C76.2969 65.206 74.4594 65.1873 72.6231 65.1966C72.2059 66.706 71.3258 68.0853 70.1118 69.0755C68.8157 70.1513 67.1493 70.7677 65.4653 70.7947C63.7778 70.8334 62.0821 70.2837 60.7426 69.2537C59.4137 68.2517 58.4493 66.7974 58.0063 65.1966C54.2668 65.1931 50.5274 65.1966 46.7868 65.1943C46.5137 66.1224 46.1024 67.0154 45.5094 67.7841C44.2262 69.5056 42.1813 70.6283 40.0379 70.7759C38.2039 70.9177 36.3243 70.3611 34.8723 69.229C33.5598 68.2294 32.6059 66.7857 32.1676 65.1978C30.5094 65.1861 28.85 65.2072 27.1918 65.1873C26.2274 65.1779 25.3684 64.3283 25.3637 63.3615C25.3028 62.3513 26.1828 61.4232 27.1918 61.4185C28.8418 61.3974 30.4907 61.4232 32.1407 61.4068C32.8157 58.6083 35.218 56.3267 38.0539 55.8169C39.8586 55.4701 41.7887 55.8029 43.3614 56.7603C45.0688 57.7728 46.3285 59.4873 46.8137 61.4103C50.5344 61.4126 54.2551 61.4126 57.977 61.4103C58.3508 59.9478 59.1594 58.599 60.2903 57.597C61.4926 56.5236 63.0453 55.8451 64.6532 55.7126C66.445 55.5486 68.286 56.0537 69.7391 57.1154C71.1746 58.1455 72.22 59.6947 72.65 61.408C73.8395 61.415 75.0289 61.4126 76.2184 61.4091C76.2172 58.2322 76.2149 55.0541 76.2184 51.8771C76.2489 51.665 76.0977 51.5056 75.9817 51.3498C75.1344 50.2763 74.3059 49.1888 73.4598 48.1154C68.8028 48.1166 64.1469 48.113 59.4899 48.1166C58.9414 48.1142 58.3532 48.1634 57.8586 47.8787C57.2305 47.5447 56.8426 46.8427 56.8707 46.1337C56.8743 41.7568 56.859 37.3798 56.8789 33.0029C55.4457 32.9666 54.0125 32.997 52.5793 32.9865C44.1782 32.9865 35.7758 32.9865 27.3735 32.9865C26.6832 33.0181 25.9871 32.6736 25.6332 32.0724C25.1235 31.2662 25.3614 30.1001 26.1512 29.5623ZM60.6535 36.7705C60.6535 39.2912 60.6512 41.8107 60.6547 44.3314C64.2207 44.3326 67.7868 44.3314 71.3528 44.3314C70.0907 41.8095 68.8192 39.2923 67.5536 36.7705C65.2543 36.7681 62.9539 36.7693 60.6535 36.7705ZM38.6856 59.5529C37.6145 59.7791 36.6594 60.4951 36.152 61.4642C35.5989 62.4744 35.559 63.7412 36.0371 64.7876C36.7403 66.4166 38.6832 67.3681 40.3989 66.8959C41.5848 66.6005 42.5961 65.6959 43.0098 64.5462C43.5442 63.1705 43.1481 61.5087 42.07 60.5056C41.1887 59.656 39.8797 59.2939 38.6856 59.5529ZM64.4657 59.5669C62.6317 59.9501 61.2957 61.8544 61.5746 63.7095C61.768 65.5962 63.5715 67.1255 65.4653 67.0072C67.2922 66.9708 68.9282 65.4263 69.0664 63.6052C69.2036 62.3443 68.6364 61.04 67.6332 60.2677C66.7543 59.5705 65.5555 59.3138 64.4657 59.5669Z" fill="#183D3D"/>
<path d="M24.3828 37.0599C24.7473 36.9415 25.1352 36.9603 25.5125 36.9591C30.7051 36.9638 35.8977 36.9544 41.0902 36.9626C41.8637 36.9474 42.6172 37.4548 42.8774 38.1861C43.168 38.9244 42.9219 39.8279 42.2973 40.3154C41.934 40.6224 41.4524 40.7501 40.9836 40.7396C35.6692 40.7384 30.3547 40.7419 25.0402 40.7373C24.1895 40.7712 23.368 40.1689 23.1594 39.3415C22.8817 38.4123 23.457 37.3447 24.3828 37.0599Z" fill="#183D3D"/>
<path d="M20 46.1818C20.0516 45.2185 20.9023 44.3888 21.8738 44.3994C27.2293 44.3877 32.5848 44.3947 37.9402 44.3959C38.5719 44.3818 39.2082 44.6736 39.5668 45.2009C40.1398 45.9755 39.9711 47.1697 39.2059 47.7568C38.7266 48.167 38.068 48.1986 37.468 48.1798C32.2719 48.1705 27.0758 48.1869 21.8809 48.1716C20.8895 48.1869 20.0164 47.3244 20 46.3377V46.1818Z" fill="#183D3D"/>
<path d="M24.3734 51.9392C24.6617 51.8407 24.9687 51.8302 25.2711 51.8302C28.0449 51.8349 30.8199 51.8279 33.5937 51.8325C34.2699 51.815 34.9496 52.1595 35.2918 52.749C35.7207 53.4392 35.6258 54.4025 35.068 54.9943C34.7012 55.4091 34.1457 55.6212 33.5973 55.613C30.7426 55.6154 27.8867 55.6177 25.032 55.6118C24.1449 55.6423 23.2965 54.9825 23.1348 54.106C22.9238 53.2048 23.4898 52.2134 24.3734 51.9392Z" fill="#183D3D"/>
<path d="M66.331 12.5788L66.331 12.5789L66.3318 12.5759C66.4941 11.9316 66.6914 11.2939 66.912 10.6608C67.8998 11.0651 68.8564 11.4694 69.7527 11.989L69.753 11.9892C70.7107 12.5435 71.5937 13.2348 72.3909 14.0219L72.3927 14.0237C73.3905 14.9986 74.1365 16.2375 74.6522 17.5807C74.9959 18.5187 75.1556 19.5349 75.1789 20.5646L75.1789 20.5646L75.179 20.5691C75.2046 21.3832 75.117 22.197 75.025 23.0512C75.0159 23.1357 75.0067 23.2205 74.9977 23.3058C74.8983 24.239 74.8076 25.2181 74.9007 26.21L74.9006 26.21L74.9019 26.2213C74.9118 26.3062 74.9205 26.4036 74.9297 26.5082C74.9416 26.642 74.9546 26.7877 74.9726 26.9347C74.6919 26.843 74.4113 26.754 74.1332 26.6658C74.0075 26.626 73.8824 26.5863 73.758 26.5466C73.0998 26.3366 72.4556 26.1243 71.8276 25.8765C71.0514 25.5672 70.3164 25.1943 69.6703 24.7071L69.6703 24.7071L69.666 24.7039C68.9442 24.1718 68.2816 23.5931 67.7618 22.9046L67.7618 22.9046L67.7603 22.9026C67.2641 22.2521 66.8986 21.4972 66.5242 20.6951C66.2133 20.0238 66.0123 19.2956 65.9237 18.5482L65.9238 18.5482L65.9226 18.5396C65.6543 16.5686 65.8264 14.5319 66.331 12.5788ZM68.495 17.5078L68.4989 17.5194L68.5035 17.5307C68.9151 18.5627 69.38 19.5747 69.8386 20.5727C69.9927 20.9081 70.146 21.2419 70.2964 21.5744C70.4698 21.9717 70.9374 22.417 71.5516 22.2905C71.9102 22.2261 72.1679 21.9766 72.3018 21.712C72.4358 21.4472 72.4834 21.0937 72.329 20.7678C72.1006 20.2499 71.875 19.7224 71.648 19.1918C71.2638 18.2934 70.8759 17.3864 70.4645 16.5028C70.3436 16.2258 70.0811 15.8683 69.6292 15.7857C69.0146 15.667 68.4075 16.1387 68.3443 16.7535C68.3242 16.9407 68.3591 17.1038 68.3956 17.2256C68.4157 17.2929 68.4535 17.395 68.4768 17.4579C68.4853 17.4811 68.4919 17.4989 68.495 17.5078Z" stroke="#A7D397"/>
<path d="M94.6326 15.4778L94.6314 15.4776C92.6965 15.168 90.7017 15.2231 88.7757 15.6049L94.6326 15.4778ZM94.6326 15.4778C94.9035 15.5204 95.1704 15.5756 95.4507 15.6334C95.5182 15.6474 95.5865 15.6615 95.6558 15.6756C95.852 15.7156 96.0541 15.7552 96.2608 15.7892C96.0812 17.5052 95.7985 19.1923 95.2167 20.7848L95.2159 20.7871M94.6326 15.4778L95.2159 20.7871M95.2159 20.7871C94.9401 21.5532 94.5452 22.2814 94.1187 23.0285C93.4715 24.1582 92.7161 25.2206 91.8036 26.1348L91.8034 26.1349M95.2159 20.7871L91.8034 26.1349M91.8034 26.1349C90.6438 27.2976 89.2827 28.2736 87.7886 28.9912L87.7875 28.9917M91.8034 26.1349L87.7875 28.9917M87.7875 28.9917C86.3096 29.7059 84.7006 30.166 83.056 30.3861L83.056 30.3861M87.7875 28.9917L83.056 30.3861M83.056 30.3861L83.0503 30.3869M83.056 30.3861L83.0503 30.3869M83.0503 30.3869C82.2327 30.5059 81.3945 30.5083 80.5281 30.4938C80.4779 30.4919 80.4282 30.4901 80.3788 30.4882C79.9327 30.4716 79.5223 30.4563 79.1319 30.3913C79.1693 30.1044 79.2591 29.8032 79.3668 29.4641C79.5787 28.8054 79.9003 28.1842 80.3339 27.6504C80.3925 27.5793 80.4545 27.4979 80.5083 27.4273C80.5332 27.3946 80.5563 27.3643 80.5764 27.3384C80.6496 27.2444 80.7125 27.1703 80.778 27.1088L80.778 27.1088L80.7805 27.1065C80.902 26.991 81.0048 26.886 81.0997 26.7891C81.2802 26.6048 81.4321 26.4497 81.63 26.3067L81.6379 26.301L81.6457 26.2949C82.4032 25.701 83.2666 25.2342 84.1881 24.9202C84.606 24.7795 85.0286 24.6529 85.4606 24.5235C85.5331 24.5017 85.606 24.4799 85.6791 24.4579C86.1828 24.3065 86.6969 24.1484 87.2049 23.9626C88.9823 23.3355 90.5966 22.2948 91.8947 20.9664L91.8947 20.9664L91.899 20.9619C91.9195 20.9404 91.9404 20.9186 91.9616 20.8964C92.2861 20.5572 92.6836 20.1418 92.9241 19.6229L93.5591 18.253L92.2319 18.9732C92.1254 19.031 91.9832 19.1096 91.8501 19.2169L91.8501 19.2168L91.8412 19.2243C91.23 19.7414 90.4873 20.1104 89.6907 20.4745M83.0503 30.3869L89.6907 20.4745M89.6907 20.4745C88.837 20.8491 87.9888 21.1865 87.1125 21.4054L87.1125 21.4054L87.1096 21.4061C86.6388 21.5267 86.1645 21.6273 85.6783 21.7304C85.5518 21.7572 85.4245 21.7842 85.2963 21.8118C84.6817 21.9439 84.0527 22.0876 83.4322 22.2828L83.4322 22.2828L83.4294 22.2837C81.7743 22.8152 80.2242 23.7152 79.0049 24.9528C78.455 25.5067 77.9779 26.1282 77.5875 26.7978C77.6373 26.3942 77.7 25.9962 77.7844 25.6047C78.0399 24.5943 78.3721 23.6135 78.8473 22.7076C79.2099 22.0408 79.5938 21.4025 80.0484 20.8229C80.6032 20.1181 81.1799 19.4565 81.846 18.8999C82.4933 18.3692 83.1329 17.8664 83.8245 17.451L89.6907 20.4745ZM83.8247 17.4509C85.3278 16.5488 87.0248 15.9524 88.7756 15.6049L83.8247 17.4509Z" stroke="#A7D397"/>
</svg>
